ply
format ascii 1.0
comment Created by Blender 2.72 (sub 0) - www.blender.org, source file: 'Boat.blend'
element vertex 816
property float x
property float y
property float z
property uchar red
property uchar green
property uchar blue
element face 732
property list uchar uint vertex_indices
end_header
1.000000 0.226794 -2.000000 80 80 80
1.000000 0.106599 1.587203 80 80 80
1.000000 0.000000 1.285629 81 81 81
1.000000 0.106599 1.587203 43 43 43
-1.000000 0.106599 1.587203 56 56 56
-1.000000 0.000000 1.285629 53 53 53
-1.000000 0.226794 -2.000000 83 83 83
-1.000000 0.000000 -2.000000 70 70 70
-1.000000 0.000000 1.285629 72 72 72
1.000000 0.000000 -2.000000 52 52 52
1.000000 0.000000 1.285629 43 43 43
-1.000000 0.000000 -2.000000 43 43 43
1.000000 0.405466 1.955375 65 65 65
-1.000000 0.405466 1.955375 58 58 58
-1.000000 0.274352 1.833794 54 54 54
1.000000 0.340192 -2.000000 93 93 93
1.000000 0.274352 1.833794 80 80 80
1.000000 0.274352 1.833794 44 44 44
-1.000000 0.340192 -2.000000 93 93 93
-1.000000 0.106599 1.587203 80 80 80
-1.000000 0.405466 1.955375 110 110 110
-1.000000 0.429527 1.968895 110 110 110
-1.000000 0.447142 1.961207 110 110 110
1.000000 0.405466 1.955375 110 110 110
1.000000 0.453589 1.934370 110 110 110
1.000000 0.447142 1.961207 110 110 110
-1.000000 0.453589 -2.000000 110 110 110
1.000000 0.453589 -2.000000 110 110 110
-1.000000 0.453589 1.934371 166 166 166
-1.000000 0.447142 1.961207 161 161 161
1.000000 0.447142 1.961207 179 179 179
-1.000000 0.447142 1.961207 156 156 156
-1.000000 0.429527 1.968895 156 156 156
1.000000 0.429527 1.968895 71 71 71
-1.000000 0.429527 1.968895 63 63 63
1.000000 0.453589 -2.000000 165 165 165
0.935203 0.453589 -1.715519 174 174 174
0.935204 0.453589 1.422009 169 169 169
0.935203 0.453589 -1.715519 135 135 135
0.935203 0.071354 -1.715519 126 126 126
0.935204 0.071354 1.246865 126 126 126
-1.000000 0.453589 -2.000000 160 160 160
-0.935204 0.453589 1.422009 164 164 164
1.000000 0.453589 1.934370 179 179 179
-0.935204 0.453589 -1.715519 169 169 169
-0.935204 0.071354 -1.715519 139 139 139
-0.935204 0.071354 1.246865 133 133 133
0.935204 0.071354 1.246865 150 150 150
-0.935204 0.453589 -1.715519 135 135 135
-0.935204 0.453589 1.422009 135 135 135
-0.935204 0.071354 1.246865 126 126 126
0.935204 0.453589 1.422009 135 135 135
-0.935204 0.071354 -1.715519 126 126 126
0.758122 0.946549 -2.140083 40 48 40
0.773180 0.928261 -2.124847 40 48 40
-0.773074 0.928261 -2.124856 40 48 40
0.758122 0.946549 -2.140083 59 71 59
-0.758315 0.946549 -2.140092 58 71 58
-0.773074 0.964836 -2.124856 58 71 58
-0.936921 0.426186 -1.954905 54 67 54
-0.936921 0.560279 -1.954905 56 69 56
-0.916753 0.560279 -1.975074 55 68 56
-0.936921 0.666295 -1.954905 59 72 59
-0.916753 0.666295 -1.975074 58 72 59
-0.936921 0.749461 -1.954905 59 73 60
-0.916753 0.749461 -1.975074 59 72 59
-0.936921 0.815004 -1.954905 59 73 60
-0.916753 0.815004 -1.975074 59 72 60
-0.936921 0.868150 -1.954905 59 73 60
-0.916753 0.868150 -1.975074 59 73 60
-0.936921 0.914124 -1.954905 60 74 61
-0.916753 0.914124 -1.975074 60 74 61
-0.936921 0.958155 -1.954905 61 74 62
-0.916753 0.958155 -1.975074 60 74 61
-0.936921 1.005468 -1.954905 61 75 62
-0.916753 1.005468 -1.975074 61 75 62
-0.936921 1.061289 -1.954905 62 76 63
-0.916753 1.061289 -1.975074 62 75 63
-0.936921 1.130845 -1.954905 63 77 64
-0.916753 1.130845 -1.975074 63 76 63
-0.936921 1.219362 -1.954905 63 77 64
-0.916753 1.219362 -1.975074 63 77 64
-0.936910 1.332744 -1.954905 63 77 64
-0.916753 1.332067 -1.975074 63 77 64
-0.928368 1.459137 -1.954905 63 77 64
-0.908381 1.456434 -1.975074 63 77 64
-0.903444 1.581066 -1.954905 63 77 64
-0.883995 1.575725 -1.975074 63 77 64
-0.863267 1.696697 -1.954905 63 77 64
-0.844689 1.688847 -1.975074 63 77 64
-0.808962 1.804894 -1.954905 63 77 64
-0.791557 1.794704 -1.975074 63 77 64
-0.741650 1.904538 -1.954905 63 77 64
-0.725691 1.892205 -1.975074 63 77 64
-0.662449 1.994515 -1.954905 63 77 64
-0.648187 1.980254 -1.975074 63 77 64
-0.572471 2.073716 -1.954905 63 77 64
-0.560138 2.057758 -1.975074 63 77 64
-0.472828 2.141028 -1.954905 63 77 64
-0.462638 2.123623 -1.975074 63 77 64
-0.364630 2.195334 -1.954905 63 77 64
-0.356780 2.176756 -1.975074 63 77 64
-0.249000 2.235510 -1.954905 63 77 64
-0.243658 2.216062 -1.975074 63 77 64
-0.127070 2.260434 -1.954905 63 77 64
-0.124367 2.240448 -1.975074 63 77 64
-0.000000 2.268988 -1.954905 63 77 64
-0.000000 2.248819 -1.975074 63 77 64
0.127070 2.260434 -1.954905 63 77 64
0.124367 2.240448 -1.975074 63 77 64
0.249000 2.235511 -1.954905 63 77 64
0.243658 2.216062 -1.975074 63 77 64
0.364630 2.195334 -1.954905 63 77 64
0.356780 2.176756 -1.975074 63 77 64
0.472827 2.141028 -1.954905 63 77 64
0.462638 2.123623 -1.975074 63 77 64
0.572471 2.073716 -1.954905 63 77 64
0.560138 2.057758 -1.975074 63 77 64
0.662449 1.994515 -1.954905 63 77 64
0.648187 1.980254 -1.975074 63 77 64
0.741650 1.904538 -1.954905 63 77 64
0.725691 1.892205 -1.975074 63 77 64
0.808962 1.804894 -1.954905 63 77 64
0.791557 1.794704 -1.975074 63 77 64
0.863267 1.696697 -1.954905 63 77 64
0.844689 1.688847 -1.975074 63 77 64
0.903444 1.581066 -1.954905 63 77 64
0.883995 1.575725 -1.975074 63 77 64
0.928368 1.459137 -1.954905 63 77 64
0.908381 1.456434 -1.975074 63 77 64
0.936910 1.332744 -1.954905 63 77 64
0.916753 1.332067 -1.975074 63 77 64
0.936921 1.219219 -1.954905 63 77 64
0.916753 1.219219 -1.975074 63 77 64
0.936921 1.130307 -1.954905 63 77 64
0.916753 1.130307 -1.975074 63 77 64
0.936921 1.060155 -1.954905 62 76 63
0.916753 1.060155 -1.975074 62 76 63
0.936921 1.003586 -1.954905 62 76 63
0.916753 1.003586 -1.975074 62 75 63
0.936921 0.955424 -1.954905 61 75 62
0.916753 0.955424 -1.975074 61 75 62
0.936921 0.910495 -1.954905 61 74 62
0.916753 0.910495 -1.975074 61 74 62
0.936921 0.863621 -1.954905 60 74 61
0.916753 0.863621 -1.975074 60 74 61
0.936921 0.809626 -1.954905 60 73 61
0.916753 0.809626 -1.975074 59 73 60
0.936921 0.743336 -1.954905 59 73 60
0.916753 0.743336 -1.975074 59 73 60
0.936921 0.659573 -1.954905 59 72 60
0.916753 0.659573 -1.975074 59 72 60
0.936921 0.553162 -1.954905 56 69 56
0.916753 0.553162 -1.975074 56 67 57
0.936921 0.418927 -1.954905 55 68 55
0.916753 0.418927 -1.975074 54 67 54
-0.916753 0.426186 -1.934736 46 56 47
-0.916753 0.560279 -1.934736 46 56 47
-0.936921 0.560279 -1.954905 46 56 47
-0.916753 0.666295 -1.934736 46 56 47
-0.936921 0.666295 -1.954905 46 56 47
-0.916753 0.749461 -1.934736 46 56 47
-0.936921 0.749461 -1.954905 46 56 47
-0.916753 0.815004 -1.934736 46 56 47
-0.936921 0.815004 -1.954905 46 56 47
-0.916753 0.868150 -1.934736 46 56 47
-0.936921 0.868150 -1.954905 46 56 47
-0.916753 0.914124 -1.934736 46 56 47
-0.936921 0.914124 -1.954905 46 56 47
-0.916753 0.958155 -1.934736 46 56 47
-0.936921 0.958155 -1.954905 46 56 47
-0.916753 1.005468 -1.934736 46 56 47
-0.936921 1.005468 -1.954905 46 56 47
-0.916753 1.061289 -1.934736 46 56 47
-0.936921 1.061289 -1.954905 46 56 47
-0.916753 1.130845 -1.934736 46 56 47
-0.936921 1.130845 -1.954905 46 56 47
-0.916753 1.219362 -1.934736 46 56 47
-0.936921 1.219362 -1.954905 46 56 47
-0.916753 1.332067 -1.934736 46 56 47
-0.936910 1.332744 -1.954905 46 56 47
-0.908381 1.456434 -1.934736 46 56 47
-0.928368 1.459137 -1.954905 46 56 47
-0.883995 1.575725 -1.934736 46 56 47
-0.903444 1.581066 -1.954905 46 56 47
-0.844689 1.688847 -1.934736 46 56 47
-0.863267 1.696697 -1.954905 46 56 47
-0.791557 1.794704 -1.934736 46 56 47
-0.808962 1.804894 -1.954905 46 56 47
-0.725691 1.892205 -1.934736 46 56 47
-0.741650 1.904538 -1.954905 46 56 47
-0.648187 1.980254 -1.934736 46 56 47
-0.662449 1.994515 -1.954905 46 56 47
-0.560138 2.057758 -1.934737 46 56 47
-0.572471 2.073716 -1.954905 46 56 47
-0.462638 2.123623 -1.934737 46 56 47
-0.472828 2.141028 -1.954905 46 56 47
-0.356780 2.176756 -1.934737 46 56 47
-0.364630 2.195334 -1.954905 46 56 47
-0.243658 2.216062 -1.934737 46 56 47
-0.249000 2.235510 -1.954905 46 56 47
-0.124367 2.240448 -1.934737 46 56 47
-0.127070 2.260434 -1.954905 46 56 47
0.000000 2.248819 -1.934737 46 56 47
-0.000000 2.268988 -1.954905 46 56 47
0.124367 2.240448 -1.934737 46 56 47
0.127070 2.260434 -1.954905 46 56 47
0.243658 2.216062 -1.934737 46 56 47
0.249000 2.235511 -1.954905 46 56 47
0.356780 2.176756 -1.934737 46 56 47
0.364630 2.195334 -1.954905 46 56 47
0.462638 2.123623 -1.934737 46 56 47
0.472827 2.141028 -1.954905 46 56 47
0.560138 2.057758 -1.934737 46 56 47
0.572471 2.073716 -1.954905 46 56 47
0.648187 1.980254 -1.934736 46 56 47
0.662449 1.994515 -1.954905 46 56 47
0.725691 1.892205 -1.934736 46 56 47
0.741650 1.904538 -1.954905 46 56 47
0.791557 1.794704 -1.934736 46 56 47
0.808962 1.804894 -1.954905 46 56 47
0.844689 1.688847 -1.934736 46 56 47
0.863267 1.696697 -1.954905 46 56 47
0.883995 1.575725 -1.934736 46 56 47
0.903444 1.581066 -1.954905 46 56 47
0.908381 1.456434 -1.934736 46 56 47
0.928368 1.459137 -1.954905 46 56 47
0.916753 1.332067 -1.934736 46 56 47
0.936910 1.332744 -1.954905 46 56 47
0.916753 1.219219 -1.934736 46 56 47
0.936921 1.219219 -1.954905 46 56 47
0.916753 1.130307 -1.934736 46 56 47
0.936921 1.130307 -1.954905 46 56 47
0.916753 1.060155 -1.934736 46 56 47
0.936921 1.060155 -1.954905 46 56 47
0.916753 1.003586 -1.934736 46 56 47
0.936921 1.003586 -1.954905 46 56 47
0.916753 0.955424 -1.934736 46 56 47
0.936921 0.955424 -1.954905 46 56 47
0.916753 0.910495 -1.934736 46 56 47
0.936921 0.910495 -1.954905 46 56 47
0.916753 0.863621 -1.934736 46 56 47
0.936921 0.863621 -1.954905 46 56 47
0.916753 0.809626 -1.934736 46 56 47
0.936921 0.809626 -1.954905 46 56 47
0.916753 0.743336 -1.934736 46 56 47
0.936921 0.743336 -1.954905 46 56 47
0.916753 0.659573 -1.934736 46 56 47
0.936921 0.659573 -1.954905 46 56 47
0.916753 0.553162 -1.934736 46 56 47
0.936921 0.553162 -1.954905 46 56 47
0.916753 0.418927 -1.934736 46 56 47
0.936921 0.418927 -1.954905 46 56 47
-0.916753 0.426186 -1.975074 54 67 55
-0.936921 0.426186 -1.954905 46 56 47
-0.936921 0.426186 -1.749185 63 77 64
-0.936921 0.560279 -1.749185 63 77 64
-0.916753 0.560279 -1.769354 63 77 64
-0.936921 0.666295 -1.749185 63 77 64
-0.916753 0.666295 -1.769354 63 77 64
-0.936921 0.749461 -1.749185 63 77 64
-0.916753 0.749461 -1.769354 63 77 64
-0.936921 0.815004 -1.749185 63 77 64
-0.916753 0.815004 -1.769354 63 77 64
-0.936921 0.868150 -1.749185 63 77 64
-0.916753 0.868150 -1.769354 63 77 64
-0.936921 0.914124 -1.749185 63 77 64
-0.916753 0.914124 -1.769354 63 77 64
-0.936921 0.958155 -1.749185 63 77 64
-0.916753 0.958155 -1.769354 63 77 64
-0.936921 1.005468 -1.749185 63 77 64
-0.916753 1.005468 -1.769354 63 77 64
-0.936921 1.061289 -1.749185 63 77 64
-0.916753 1.061289 -1.769354 63 77 64
-0.936921 1.130845 -1.749185 63 77 64
-0.916753 1.130845 -1.769354 63 77 64
-0.936921 1.219362 -1.749185 63 77 64
-0.916753 1.219362 -1.769354 63 77 64
-0.936910 1.332744 -1.749185 63 77 64
-0.916753 1.332067 -1.769354 63 77 64
-0.928368 1.459137 -1.749185 63 77 64
-0.908381 1.456434 -1.769354 63 77 64
-0.903444 1.581066 -1.749185 63 77 64
-0.883995 1.575725 -1.769354 63 77 64
-0.863267 1.696697 -1.749185 63 77 64
-0.844689 1.688847 -1.769354 63 77 64
-0.808962 1.804894 -1.749185 63 77 64
-0.791557 1.794704 -1.769354 63 77 64
-0.741650 1.904538 -1.749185 63 77 64
-0.725691 1.892205 -1.769354 63 77 64
-0.662449 1.994515 -1.749185 63 77 64
-0.648187 1.980254 -1.769354 63 77 64
-0.572471 2.073716 -1.749185 63 77 64
-0.560138 2.057758 -1.769354 63 77 64
-0.472828 2.141028 -1.749185 63 77 64
-0.462638 2.123623 -1.769354 63 77 64
-0.364630 2.195334 -1.749185 63 77 64
-0.356780 2.176756 -1.769354 63 77 64
-0.249000 2.235510 -1.749185 63 77 64
-0.243658 2.216062 -1.769354 63 77 64
-0.127070 2.260434 -1.749185 63 77 64
-0.124367 2.240448 -1.769354 63 77 64
-0.000000 2.268988 -1.749185 63 77 64
-0.000000 2.248819 -1.769354 63 77 64
0.127070 2.260434 -1.749185 63 77 64
0.124367 2.240448 -1.769354 63 77 64
0.249000 2.235511 -1.749185 63 77 64
0.243658 2.216062 -1.769354 63 77 64
0.364630 2.195334 -1.749185 63 77 64
0.356780 2.176756 -1.769354 63 77 64
0.472827 2.141028 -1.749185 63 77 64
0.462638 2.123623 -1.769354 63 77 64
0.572471 2.073716 -1.749185 63 77 64
0.560138 2.057758 -1.769354 63 77 64
0.662449 1.994515 -1.749185 63 77 64
0.648187 1.980254 -1.769354 63 77 64
0.741650 1.904538 -1.749185 63 77 64
0.725691 1.892205 -1.769354 63 77 64
0.808962 1.804894 -1.749185 63 77 64
0.791557 1.794704 -1.769354 63 77 64
0.863267 1.696697 -1.749185 63 77 64
0.844689 1.688847 -1.769354 63 77 64
0.903444 1.581066 -1.749185 63 77 64
0.883995 1.575725 -1.769354 63 77 64
0.928368 1.459137 -1.749185 63 77 64
0.908381 1.456434 -1.769354 63 77 64
0.936910 1.332744 -1.749185 63 77 64
0.916753 1.332067 -1.769354 63 77 64
0.936921 1.219219 -1.749185 63 77 64
0.916753 1.219219 -1.769354 63 77 64
0.936921 1.130307 -1.749185 63 77 64
0.916753 1.130307 -1.769354 63 77 64
0.936921 1.060155 -1.749185 63 77 64
0.916753 1.060155 -1.769354 63 77 64
0.936921 1.003586 -1.749185 63 77 64
0.916753 1.003586 -1.769354 63 77 64
0.936921 0.955425 -1.749185 63 77 64
0.916753 0.955425 -1.769354 63 77 64
0.936921 0.910495 -1.749185 63 77 64
0.916753 0.910495 -1.769354 63 77 64
0.936921 0.863621 -1.749185 63 77 64
0.916753 0.863621 -1.769354 63 77 64
0.936921 0.809626 -1.749185 63 77 64
0.916753 0.809626 -1.769354 63 77 64
0.936921 0.743336 -1.749185 63 77 64
0.916753 0.743336 -1.769354 63 77 64
0.936921 0.659573 -1.749185 63 77 64
0.916753 0.659573 -1.769354 63 77 64
0.936921 0.553162 -1.749185 63 77 64
0.916753 0.553162 -1.769354 63 77 64
0.936921 0.418927 -1.749185 63 77 64
0.916753 0.418927 -1.769354 63 77 64
-0.916753 0.426186 -1.729017 46 56 47
-0.916753 0.560279 -1.729017 46 56 47
-0.936921 0.560279 -1.749185 46 56 47
-0.916753 0.666295 -1.729017 46 56 47
-0.936921 0.666295 -1.749185 46 56 47
-0.916753 0.749461 -1.729017 46 56 47
-0.936921 0.749461 -1.749185 46 56 47
-0.916753 0.815004 -1.729017 46 56 47
-0.936921 0.815004 -1.749185 46 56 47
-0.916753 0.868150 -1.729017 46 56 47
-0.936921 0.868150 -1.749185 46 56 47
-0.916753 0.914124 -1.729017 46 56 47
-0.936921 0.914124 -1.749185 46 56 47
-0.916753 0.958155 -1.729017 46 56 47
-0.936921 0.958155 -1.749185 46 56 47
-0.916753 1.005468 -1.729017 46 56 47
-0.936921 1.005468 -1.749185 46 56 47
-0.916753 1.061289 -1.729017 46 56 47
-0.936921 1.061289 -1.749185 46 56 47
-0.916753 1.130845 -1.729017 46 56 47
-0.936921 1.130845 -1.749185 46 56 47
-0.916753 1.219362 -1.729017 46 56 47
-0.936921 1.219362 -1.749185 46 56 47
-0.916753 1.332067 -1.729017 46 56 47
-0.936910 1.332744 -1.749185 46 56 47
-0.908381 1.456434 -1.729017 46 56 47
-0.928368 1.459137 -1.749185 46 56 47
-0.883995 1.575725 -1.729017 46 56 47
-0.903444 1.581066 -1.749185 46 56 47
-0.844689 1.688847 -1.729017 46 56 47
-0.863267 1.696697 -1.749185 46 56 47
-0.791557 1.794704 -1.729017 46 56 47
-0.808962 1.804894 -1.749185 46 56 47
-0.725691 1.892205 -1.729017 46 56 47
-0.741650 1.904538 -1.749185 46 56 47
-0.648187 1.980254 -1.729017 46 56 47
-0.662449 1.994515 -1.749185 46 56 47
-0.560138 2.057758 -1.729017 46 56 47
-0.572471 2.073716 -1.749185 46 56 47
-0.462638 2.123623 -1.729017 46 56 47
-0.472828 2.141028 -1.749185 46 56 47
-0.356780 2.176756 -1.729017 46 56 47
-0.364630 2.195334 -1.749185 46 56 47
-0.243658 2.216062 -1.729017 46 56 47
-0.249000 2.235510 -1.749185 46 56 47
-0.124367 2.240448 -1.729017 46 56 47
-0.127070 2.260434 -1.749185 46 56 47
0.000000 2.248820 -1.729017 46 56 47
-0.000000 2.268988 -1.749185 46 56 47
0.124367 2.240448 -1.729017 46 56 47
0.127070 2.260434 -1.749185 46 56 47
0.243658 2.216062 -1.729017 46 56 47
0.249000 2.235511 -1.749185 46 56 47
0.356780 2.176756 -1.729017 46 56 47
0.364630 2.195334 -1.749185 46 56 47
0.462638 2.123623 -1.729017 46 56 47
0.472827 2.141028 -1.749185 46 56 47
0.560138 2.057758 -1.729017 46 56 47
0.572471 2.073716 -1.749185 46 56 47
0.648187 1.980254 -1.729017 46 56 47
0.662449 1.994515 -1.749185 46 56 47
0.725691 1.892205 -1.729017 46 56 47
0.741650 1.904538 -1.749185 46 56 47
0.791557 1.794704 -1.729017 46 56 47
0.808962 1.804894 -1.749185 46 56 47
0.844689 1.688847 -1.729017 46 56 47
0.863267 1.696697 -1.749185 46 56 47
0.883995 1.575725 -1.729017 46 56 47
0.903444 1.581066 -1.749185 46 56 47
0.908381 1.456434 -1.729017 46 56 47
0.928368 1.459137 -1.749185 46 56 47
0.916753 1.332067 -1.729017 46 56 47
0.936910 1.332744 -1.749185 46 56 47
0.916753 1.219219 -1.729017 46 56 47
0.936921 1.219219 -1.749185 46 56 47
0.916753 1.130307 -1.729017 46 56 47
0.936921 1.130307 -1.749185 46 56 47
0.916753 1.060155 -1.729017 46 56 47
0.936921 1.060155 -1.749185 46 56 47
0.916753 1.003586 -1.729017 46 56 47
0.936921 1.003586 -1.749185 46 56 47
0.916753 0.955425 -1.729017 46 56 47
0.936921 0.955425 -1.749185 46 56 47
0.916753 0.910495 -1.729017 46 56 47
0.936921 0.910495 -1.749185 46 56 47
0.916753 0.863621 -1.729017 46 56 47
0.936921 0.863621 -1.749185 46 56 47
0.916753 0.809626 -1.729017 46 56 47
0.936921 0.809626 -1.749185 46 56 47
0.916753 0.743336 -1.729017 46 56 47
0.936921 0.743336 -1.749185 46 56 47
0.916753 0.659573 -1.729017 46 56 47
0.936921 0.659573 -1.749185 46 56 47
0.916753 0.553162 -1.729017 46 56 47
0.936921 0.553162 -1.749185 46 56 47
0.916753 0.418927 -1.729017 46 56 47
0.936921 0.418927 -1.749185 46 56 47
-0.916753 0.426186 -1.769354 63 77 64
-0.936921 0.426186 -1.749185 46 56 47
-0.938715 0.473337 -1.749667 61 74 61
-0.918655 0.493397 -1.749667 61 74 61
-0.918665 0.493397 -1.955054 61 74 61
-0.938715 0.473337 -1.749667 40 48 40
-0.938725 0.473337 -1.955095 40 48 40
-0.918665 0.452866 -1.955054 40 48 40
-0.918665 0.493397 -1.955054 49 60 49
-0.760600 0.493397 -2.112554 50 60 50
-0.775628 0.473337 -2.125843 50 59 50
-0.775628 0.473337 -2.125843 40 48 40
-0.938715 0.947724 -1.749667 61 74 61
-0.918655 0.967785 -1.749667 61 74 61
-0.918665 0.967785 -1.955054 61 74 61
-0.938715 0.947724 -1.749667 40 48 40
-0.938725 0.947724 -1.955095 40 48 40
-0.918665 0.927663 -1.955054 40 48 40
-0.918665 0.967785 -1.955054 59 71 59
-0.760600 0.967785 -2.112554 58 71 58
-0.775628 0.947724 -2.125843 58 71 58
-0.775628 0.947724 -2.125843 40 48 40
-0.925263 1.471397 -1.749667 61 74 61
-0.902830 1.488222 -1.749667 61 74 61
-0.902840 1.488224 -1.955054 61 74 61
-0.925263 1.471397 -1.749667 40 48 40
-0.925273 1.471398 -1.955095 40 48 40
-0.908052 1.448460 -1.955054 40 48 40
-0.747105 1.461185 -2.112554 61 74 61
-0.764080 1.446548 -2.125843 61 74 61
-0.764080 1.446548 -2.125843 40 48 40
-0.705316 1.948444 -1.749667 61 74 61
-0.676372 1.949750 -1.749667 61 74 61
-0.676380 1.949757 -1.955054 61 74 61
-0.705316 1.948444 -1.749667 48 59 49
-0.705323 1.948450 -1.955095 48 59 49
-0.702671 1.919512 -1.955054 48 59 49
-0.559687 1.843139 -2.112554 61 74 61
-0.582547 1.841089 -2.125843 61 74 61
-0.582547 1.841089 -2.125843 48 59 49
-0.262000 2.230575 -1.749667 61 74 61
-0.237017 2.216483 -1.749667 61 74 61
-0.237020 2.216493 -1.955054 61 74 61
-0.262000 2.230575 -1.749667 52 64 53
-0.262002 2.230585 -1.955095 52 64 53
-0.275782 2.206150 -1.955054 52 64 53
-0.196240 2.063780 -2.112554 61 74 61
-0.216462 2.073975 -2.125843 61 74 61
-0.216462 2.073975 -2.125843 52 64 53
0.263212 2.230064 -1.749667 52 64 53
0.276912 2.205447 -1.749667 52 64 53
0.276915 2.205457 -1.955054 52 64 53
0.263212 2.230064 -1.749667 61 74 61
0.263214 2.230074 -1.955095 61 74 61
0.238257 2.216181 -1.955054 61 74 61
0.229233 2.054756 -2.112554 52 64 53
0.217454 2.073528 -2.125843 52 64 53
0.217454 2.073528 -2.125843 61 74 61
0.706140 1.947407 -1.749667 48 59 49
0.703637 1.918645 -1.749667 48 59 49
0.703645 1.918652 -1.955054 48 59 49
0.706140 1.947407 -1.749667 61 74 61
0.706147 1.947413 -1.955095 61 74 61
0.677176 1.948749 -1.955054 61 74 61
0.582273 1.817393 -2.112554 48 59 49
0.583222 1.840222 -2.125843 48 59 49
0.583222 1.840222 -2.125843 61 74 61
0.925672 1.470129 -1.749667 40 48 40
0.908248 1.447199 -1.749667 40 48 40
0.908258 1.447201 -1.955054 40 48 40
0.925672 1.470129 -1.749667 61 74 61
0.925682 1.470131 -1.955095 61 74 61
0.903442 1.487016 -1.955054 61 74 61
0.751584 1.426282 -2.112554 40 48 40
0.764447 1.445558 -2.125843 40 48 40
0.764447 1.445558 -2.125843 61 74 61
0.938715 0.946449 -1.749667 40 48 40
0.918654 0.926388 -1.749667 40 48 40
0.918665 0.926388 -1.955054 40 48 40
0.938715 0.946449 -1.749667 61 74 61
0.938725 0.946449 -1.955095 61 74 61
0.918665 0.966509 -1.955054 61 74 61
0.760600 0.926388 -2.112554 40 48 40
0.775628 0.946449 -2.125843 40 48 40
0.918665 0.966509 -1.955054 59 72 59
0.938725 0.946449 -1.955095 59 72 59
0.775628 0.946449 -2.125843 59 71 59
0.938715 0.472062 -1.749667 40 48 40
0.918654 0.451716 -1.749667 40 48 40
0.918665 0.451716 -1.955054 40 48 40
0.938715 0.472062 -1.749667 61 74 61
0.938725 0.472062 -1.955095 61 74 61
0.918665 0.492122 -1.955054 61 74 61
0.760600 0.451716 -2.112554 40 48 40
0.775628 0.472062 -2.125843 40 48 40
0.918665 0.492122 -1.955054 50 59 50
0.938725 0.472062 -1.955095 50 59 50
0.775628 0.472062 -2.125843 50 60 50
-0.773670 0.457856 -2.126257 54 67 55
-0.773670 0.567687 -2.126257 55 68 56
-0.757016 0.567687 -2.142911 55 69 56
-0.773670 0.686831 -2.126257 59 72 59
-0.757016 0.686831 -2.142911 59 72 59
-0.773670 0.781379 -2.126257 59 72 59
-0.757016 0.781379 -2.142911 59 72 59
-0.773670 0.856218 -2.126257 59 73 60
-0.757016 0.856218 -2.142911 59 73 60
-0.773670 0.916238 -2.126257 60 74 61
-0.757016 0.916238 -2.142911 60 74 61
-0.773670 0.966326 -2.126257 60 74 61
-0.757016 0.966326 -2.142911 60 74 61
-0.773670 1.011373 -2.126257 61 75 62
-0.757016 1.011373 -2.142911 61 75 62
-0.773670 1.056265 -2.126257 61 75 62
-0.757016 1.056265 -2.142911 61 75 62
-0.773670 1.105892 -2.126257 62 76 63
-0.757016 1.105892 -2.142911 62 76 63
-0.773670 1.165142 -2.126257 62 76 63
-0.757016 1.165142 -2.142911 62 76 63
-0.773670 1.238904 -2.126257 63 77 64
-0.757016 1.238904 -2.142911 63 77 64
-0.773661 1.332626 -2.126257 63 77 64
-0.757016 1.332067 -2.142911 63 77 64
-0.766607 1.436996 -2.126257 63 77 64
-0.750103 1.434764 -2.142911 63 77 64
-0.746026 1.537680 -2.126257 63 77 64
-0.729966 1.533270 -2.142911 63 77 64
-0.712850 1.633163 -2.126257 63 77 64
-0.697509 1.626681 -2.142912 63 77 64
-0.668007 1.722508 -2.126257 63 77 64
-0.653634 1.714094 -2.142912 63 77 64
-0.612423 1.804790 -2.126257 63 77 64
-0.599246 1.794605 -2.142912 63 77 64
-0.547022 1.879089 -2.126257 63 77 64
-0.535246 1.867313 -2.142912 63 77 64
-0.472723 1.944490 -2.126257 63 77 64
-0.462539 1.931312 -2.142912 63 77 64
-0.390441 2.000073 -2.126257 63 77 64
-0.382027 1.985701 -2.142912 63 77 64
-0.301096 2.044917 -2.126257 63 77 64
-0.294614 2.029576 -2.142912 63 77 64
-0.205614 2.078093 -2.126257 63 77 64
-0.201203 2.062033 -2.142912 63 77 64
-0.104929 2.098674 -2.126257 63 77 64
-0.102697 2.082170 -2.142912 63 77 64
-0.000000 2.105737 -2.126257 63 77 64
0.000000 2.089083 -2.142912 63 77 64
0.104929 2.098674 -2.126257 63 77 64
0.102697 2.082170 -2.142912 63 77 64
0.205614 2.078093 -2.126257 63 77 64
0.201203 2.062033 -2.142912 63 77 64
0.301096 2.044917 -2.126257 63 77 64
0.294614 2.029576 -2.142912 63 77 64
0.390441 2.000074 -2.126257 63 77 64
0.382027 1.985701 -2.142912 63 77 64
0.472723 1.944490 -2.126257 63 77 64
0.462539 1.931312 -2.142912 63 77 64
0.547022 1.879089 -2.126257 63 77 64
0.535246 1.867313 -2.142912 63 77 64
0.612423 1.804790 -2.126257 63 77 64
0.599246 1.794605 -2.142912 63 77 64
0.668007 1.722508 -2.126257 63 77 64
0.653634 1.714094 -2.142912 63 77 64
0.712850 1.633163 -2.126257 63 77 64
0.697509 1.626681 -2.142912 63 77 64
0.746026 1.537680 -2.126257 63 77 64
0.729966 1.533270 -2.142911 63 77 64
0.766607 1.436996 -2.126257 63 77 64
0.750103 1.434764 -2.142911 63 77 64
0.773661 1.332626 -2.126257 63 77 64
0.757016 1.332067 -2.142911 63 77 64
0.773670 1.238787 -2.126257 63 77 64
0.757016 1.238787 -2.142911 63 77 64
0.773670 1.164698 -2.126257 63 77 64
0.757016 1.164698 -2.142911 63 77 64
0.773670 1.104956 -2.126257 62 76 63
0.757016 1.104956 -2.142911 62 76 63
0.773670 1.054711 -2.126257 62 76 63
0.757016 1.054711 -2.142911 62 76 63
0.773670 1.009118 -2.126257 61 75 62
0.757016 1.009118 -2.142911 61 75 62
0.773670 0.963329 -2.126257 61 75 62
0.757016 0.963329 -2.142911 61 75 62
0.773670 0.912498 -2.126257 60 74 61
0.757016 0.912498 -2.142911 60 74 61
0.773670 0.851777 -2.126257 60 73 61
0.757016 0.851777 -2.142911 60 73 61
0.773670 0.776321 -2.126257 59 73 60
0.757016 0.776321 -2.142911 59 73 60
0.773670 0.681281 -2.126257 58 72 59
0.757016 0.681281 -2.142911 58 72 59
0.773670 0.561810 -2.126257 55 68 55
0.757016 0.561810 -2.142911 56 68 56
0.773670 0.451861 -2.126257 54 67 55
0.757016 0.451861 -2.142911 54 67 55
-0.757016 0.457856 -2.109603 46 56 47
-0.757016 0.567687 -2.109603 46 56 47
-0.773670 0.567687 -2.126257 46 56 47
-0.757016 0.686831 -2.109603 46 56 47
-0.773670 0.686831 -2.126257 46 56 47
-0.757016 0.781379 -2.109603 46 56 47
-0.773670 0.781379 -2.126257 46 56 47
-0.757016 0.856218 -2.109603 46 56 47
-0.773670 0.856218 -2.126257 46 56 47
-0.757016 0.916238 -2.109603 46 56 47
-0.773670 0.916238 -2.126257 46 56 47
-0.757016 0.966326 -2.109603 46 56 47
-0.773670 0.966326 -2.126257 46 56 47
-0.757016 1.011373 -2.109603 46 56 47
-0.773670 1.011373 -2.126257 46 56 47
-0.757016 1.056265 -2.109603 46 56 47
-0.773670 1.056265 -2.126257 46 56 47
-0.757016 1.105892 -2.109603 46 56 47
-0.773670 1.105892 -2.126257 46 56 47
-0.757016 1.165142 -2.109603 46 56 47
-0.773670 1.165142 -2.126257 46 56 47
-0.757016 1.238904 -2.109603 46 56 47
-0.773670 1.238904 -2.126257 46 56 47
-0.757016 1.332067 -2.109603 46 56 47
-0.773661 1.332626 -2.126257 46 56 47
-0.750103 1.434764 -2.109603 46 56 47
-0.766607 1.436996 -2.126257 46 56 47
-0.729966 1.533270 -2.109603 46 56 47
-0.746026 1.537680 -2.126257 46 56 47
-0.697509 1.626681 -2.109603 46 56 47
-0.712850 1.633163 -2.126257 46 56 47
-0.653634 1.714094 -2.109603 46 56 47
-0.668007 1.722508 -2.126257 46 56 47
-0.599246 1.794605 -2.109603 46 56 47
-0.612423 1.804790 -2.126257 46 56 47
-0.535246 1.867313 -2.109603 46 56 47
-0.547022 1.879089 -2.126257 46 56 47
-0.462539 1.931312 -2.109603 46 56 47
-0.472723 1.944490 -2.126257 46 56 47
-0.382027 1.985701 -2.109603 46 56 47
-0.390441 2.000073 -2.126257 46 56 47
-0.294614 2.029576 -2.109603 46 56 47
-0.301096 2.044917 -2.126257 46 56 47
-0.201203 2.062033 -2.109603 46 56 47
-0.205614 2.078093 -2.126257 46 56 47
-0.102697 2.082170 -2.109603 46 56 47
-0.104929 2.098674 -2.126257 46 56 47
-0.000000 2.089083 -2.109603 46 56 47
-0.000000 2.105737 -2.126257 46 56 47
0.102697 2.082170 -2.109603 46 56 47
0.104929 2.098674 -2.126257 46 56 47
0.201203 2.062033 -2.109603 46 56 47
0.205614 2.078093 -2.126257 46 56 47
0.294614 2.029576 -2.109603 46 56 47
0.301096 2.044917 -2.126257 46 56 47
0.382027 1.985701 -2.109603 46 56 47
0.390441 2.000074 -2.126257 46 56 47
0.462539 1.931312 -2.109603 46 56 47
0.472723 1.944490 -2.126257 46 56 47
0.535246 1.867313 -2.109603 46 56 47
0.547022 1.879089 -2.126257 46 56 47
0.599246 1.794605 -2.109603 46 56 47
0.612423 1.804790 -2.126257 46 56 47
0.653634 1.714094 -2.109603 46 56 47
0.668007 1.722508 -2.126257 46 56 47
0.697509 1.626681 -2.109603 46 56 47
0.712850 1.633163 -2.126257 46 56 47
0.729966 1.533270 -2.109603 46 56 47
0.746026 1.537680 -2.126257 46 56 47
0.750103 1.434764 -2.109603 46 56 47
0.766607 1.436996 -2.126257 46 56 47
0.757016 1.332067 -2.109603 46 56 47
0.773661 1.332626 -2.126257 46 56 47
0.757016 1.238787 -2.109603 46 56 47
0.773670 1.238787 -2.126257 46 56 47
0.757016 1.164698 -2.109603 46 56 47
0.773670 1.164698 -2.126257 46 56 47
0.757016 1.104956 -2.109603 46 56 47
0.773670 1.104956 -2.126257 46 56 47
0.757016 1.054711 -2.109603 46 56 47
0.773670 1.054711 -2.126257 46 56 47
0.757016 1.009118 -2.109603 46 56 47
0.773670 1.009118 -2.126257 46 56 47
0.757016 0.963329 -2.109603 46 56 47
0.773670 0.963329 -2.126257 46 56 47
0.757016 0.912498 -2.109603 46 56 47
0.773670 0.912498 -2.126257 46 56 47
0.757016 0.851777 -2.109603 46 56 47
0.773670 0.851777 -2.126257 46 56 47
0.757016 0.776321 -2.109603 46 56 47
0.773670 0.776321 -2.126257 46 56 47
0.757016 0.681281 -2.109603 46 56 47
0.773670 0.681281 -2.126257 46 56 47
0.757016 0.561810 -2.109603 46 56 47
0.773670 0.561810 -2.126257 46 56 47
0.757016 0.451861 -2.109603 46 56 47
0.773670 0.451861 -2.126257 46 56 47
-0.757016 0.457856 -2.142911 53 67 54
-0.773670 0.457856 -2.126257 46 56 47
0.747643 1.442847 -2.140082 40 48 40
0.756911 1.425943 -2.124847 40 48 40
-0.756807 1.425943 -2.124856 40 48 40
0.747643 1.442847 -2.140082 61 74 61
-0.747832 1.442847 -2.140092 61 74 61
-0.756807 1.459751 -2.124856 61 74 61
0.758122 0.473882 -2.140083 40 48 40
0.773180 0.455594 -2.124847 40 48 40
-0.773074 0.455594 -2.124856 40 48 40
0.758122 0.473882 -2.140083 51 60 51
-0.758315 0.473882 -2.140092 50 59 50
-0.773074 0.492169 -2.124856 50 60 50
-0.905924 1.467431 -1.730700 40 48 40
-0.917402 1.450528 -1.745936 40 48 40
0.917276 1.450528 -1.745927 40 48 40
-0.905924 1.467431 -1.730700 61 74 61
0.906153 1.467431 -1.730691 61 74 61
0.917276 1.484335 -1.745927 61 74 61
-0.916632 0.946549 -1.730700 40 48 40
-0.931777 0.928261 -1.745936 40 48 40
0.931649 0.928261 -1.745927 40 48 40
-0.916632 0.946549 -1.730700 59 72 59
0.916865 0.946549 -1.730691 59 71 59
0.931649 0.964836 -1.745927 59 71 59
1.000000 0.000000 -2.000000 70 70 70
1.000000 0.000000 -2.000000 43 43 43
-1.000000 0.274352 1.833794 93 93 93
-1.000000 0.453589 1.934371 110 110 110
1.000000 0.429527 1.968895 110 110 110
1.000000 0.429527 1.968895 178 178 178
0.935203 0.071354 -1.715519 132 132 132
-0.758315 0.946549 -2.140092 40 48 40
0.773180 0.964836 -2.124847 59 72 59
-0.938725 0.473337 -1.955095 61 74 61
-0.918655 0.452866 -1.749667 40 48 40
-0.938725 0.473337 -1.955095 50 59 50
-0.760600 0.452866 -2.112554 40 48 40
-0.938725 0.947724 -1.955095 61 74 61
-0.918655 0.927663 -1.749667 40 48 40
-0.938725 0.947724 -1.955095 59 71 59
-0.760600 0.927663 -2.112554 40 48 40
-0.925273 1.471398 -1.955095 61 74 61
-0.908042 1.448459 -1.749667 40 48 40
-0.751405 1.427339 -2.112554 40 48 40
-0.705323 1.948450 -1.955095 61 74 61
-0.702663 1.919505 -1.749667 48 59 49
-0.581440 1.818085 -2.112554 48 59 49
-0.262002 2.230585 -1.955095 61 74 61
-0.275779 2.206140 -1.749667 52 64 53
-0.228313 2.055382 -2.112554 52 64 53
0.263214 2.230074 -1.955095 52 64 53
0.238254 2.216171 -1.749667 61 74 61
0.197263 2.063525 -2.112554 61 74 61
0.706147 1.947413 -1.955095 48 59 49
0.677168 1.948742 -1.749667 61 74 61
0.560336 1.842293 -2.112554 61 74 61
0.925682 1.470131 -1.955095 40 48 40
0.903432 1.487015 -1.749667 61 74 61
0.747650 1.460312 -2.112554 61 74 61
0.938725 0.946449 -1.955095 40 48 40
0.918654 0.966509 -1.749667 61 74 61
0.760600 0.966509 -2.112554 59 72 59
0.938725 0.472062 -1.955095 40 48 40
0.918654 0.492122 -1.749667 61 74 61
0.760600 0.492122 -2.112554 51 62 51
-0.747832 1.442847 -2.140092 40 48 40
0.756911 1.459751 -2.124847 61 74 61
-0.758315 0.473882 -2.140092 40 48 40
0.773180 0.492169 -2.124847 51 61 51
0.906153 1.467431 -1.730691 40 48 40
-0.917402 1.484335 -1.745936 61 74 61
0.916865 0.946549 -1.730691 40 48 40
-0.931777 0.964836 -1.745936 59 72 59
3 0 1 2
3 3 4 5
3 6 7 8
3 6 0 9
3 10 5 11
3 12 13 14
3 15 16 1
3 17 14 4
3 18 6 19
3 18 15 0
3 20 21 22
3 23 24 25
3 26 27 15
3 28 29 30
3 30 31 32
3 33 34 13
3 35 36 37
3 38 39 40
3 41 28 42
3 43 37 42
3 41 44 36
3 45 46 47
3 48 49 50
3 51 40 50
3 38 48 52
3 53 54 55
3 56 57 58
3 59 60 61
3 60 62 63
3 62 64 65
3 64 66 67
3 66 68 69
3 68 70 71
3 70 72 73
3 72 74 75
3 74 76 77
3 76 78 79
3 78 80 81
3 80 82 83
3 82 84 85
3 86 87 85
3 88 89 87
3 90 91 89
3 92 93 91
3 94 95 93
3 94 96 97
3 96 98 99
3 98 100 101
3 100 102 103
3 102 104 105
3 106 107 105
3 106 108 109
3 110 111 109
3 112 113 111
3 114 115 113
3 116 117 115
3 118 119 117
3 118 120 121
3 120 122 123
3 122 124 125
3 124 126 127
3 126 128 129
3 130 131 129
3 132 133 131
3 132 134 135
3 136 137 135
3 138 139 137
3 140 141 139
3 142 143 141
3 144 145 143
3 146 147 145
3 148 149 147
3 148 150 151
3 150 152 153
3 152 154 155
3 156 157 158
3 157 159 160
3 159 161 162
3 161 163 164
3 163 165 166
3 165 167 168
3 167 169 170
3 169 171 172
3 171 173 174
3 173 175 176
3 175 177 178
3 179 180 178
3 181 182 180
3 181 183 184
3 183 185 186
3 185 187 188
3 187 189 190
3 189 191 192
3 193 194 192
3 195 196 194
3 197 198 196
3 199 200 198
3 201 202 200
3 201 203 204
3 205 206 204
3 205 207 208
3 207 209 210
3 209 211 212
3 211 213 214
3 213 215 216
3 217 218 216
3 219 220 218
3 221 222 220
3 223 224 222
3 225 226 224
3 225 227 228
3 227 229 230
3 229 231 232
3 233 234 232
3 235 236 234
3 237 238 236
3 239 240 238
3 241 242 240
3 243 244 242
3 245 246 244
3 247 248 246
3 247 249 250
3 249 251 252
3 253 59 61
3 61 60 63
3 63 62 65
3 65 64 67
3 67 66 69
3 69 68 71
3 71 70 73
3 73 72 75
3 75 74 77
3 77 76 79
3 79 78 81
3 81 80 83
3 83 82 85
3 84 86 85
3 86 88 87
3 88 90 89
3 90 92 91
3 92 94 93
3 95 94 97
3 97 96 99
3 99 98 101
3 101 100 103
3 103 102 105
3 104 106 105
3 107 106 109
3 108 110 109
3 110 112 111
3 112 114 113
3 114 116 115
3 116 118 117
3 119 118 121
3 121 120 123
3 123 122 125
3 125 124 127
3 127 126 129
3 128 130 129
3 130 132 131
3 133 132 135
3 134 136 135
3 136 138 137
3 138 140 139
3 140 142 141
3 142 144 143
3 144 146 145
3 146 148 147
3 149 148 151
3 151 150 153
3 153 152 155
3 254 156 158
3 158 157 160
3 160 159 162
3 162 161 164
3 164 163 166
3 166 165 168
3 168 167 170
3 170 169 172
3 172 171 174
3 174 173 176
3 176 175 178
3 177 179 178
3 179 181 180
3 182 181 184
3 184 183 186
3 186 185 188
3 188 187 190
3 190 189 192
3 191 193 192
3 193 195 194
3 195 197 196
3 197 199 198
3 199 201 200
3 202 201 204
3 203 205 204
3 206 205 208
3 208 207 210
3 210 209 212
3 212 211 214
3 214 213 216
3 215 217 216
3 217 219 218
3 219 221 220
3 221 223 222
3 223 225 224
3 226 225 228
3 228 227 230
3 230 229 232
3 231 233 232
3 233 235 234
3 235 237 236
3 237 239 238
3 239 241 240
3 241 243 242
3 243 245 244
3 245 247 246
3 248 247 250
3 250 249 252
3 255 256 257
3 256 258 259
3 258 260 261
3 260 262 263
3 262 264 265
3 264 266 267
3 266 268 269
3 268 270 271
3 270 272 273
3 272 274 275
3 274 276 277
3 276 278 279
3 278 280 281
3 282 283 281
3 284 285 283
3 286 287 285
3 288 289 287
3 290 291 289
3 290 292 293
3 292 294 295
3 294 296 297
3 296 298 299
3 298 300 301
3 302 303 301
3 302 304 305
3 306 307 305
3 308 309 307
3 310 311 309
3 312 313 311
3 314 315 313
3 314 316 317
3 316 318 319
3 318 320 321
3 320 322 323
3 322 324 325
3 326 327 325
3 328 329 327
3 328 330 331
3 332 333 331
3 334 335 333
3 336 337 335
3 338 339 337
3 340 341 339
3 342 343 341
3 344 345 343
3 344 346 347
3 346 348 349
3 348 350 351
3 352 353 354
3 353 355 356
3 355 357 358
3 357 359 360
3 359 361 362
3 361 363 364
3 363 365 366
3 365 367 368
3 367 369 370
3 369 371 372
3 371 373 374
3 375 376 374
3 377 378 376
3 377 379 380
3 379 381 382
3 381 383 384
3 383 385 386
3 385 387 388
3 389 390 388
3 391 392 390
3 393 394 392
3 395 396 394
3 397 398 396
3 397 399 400
3 401 402 400
3 401 403 404
3 403 405 406
3 405 407 408
3 407 409 410
3 409 411 412
3 413 414 412
3 415 416 414
3 417 418 416
3 419 420 418
3 421 422 420
3 421 423 424
3 423 425 426
3 425 427 428
3 429 430 428
3 431 432 430
3 433 434 432
3 435 436 434
3 437 438 436
3 439 440 438
3 441 442 440
3 443 444 442
3 443 445 446
3 445 447 448
3 449 255 257
3 257 256 259
3 259 258 261
3 261 260 263
3 263 262 265
3 265 264 267
3 267 266 269
3 269 268 271
3 271 270 273
3 273 272 275
3 275 274 277
3 277 276 279
3 279 278 281
3 280 282 281
3 282 284 283
3 284 286 285
3 286 288 287
3 288 290 289
3 291 290 293
3 293 292 295
3 295 294 297
3 297 296 299
3 299 298 301
3 300 302 301
3 303 302 305
3 304 306 305
3 306 308 307
3 308 310 309
3 310 312 311
3 312 314 313
3 315 314 317
3 317 316 319
3 319 318 321
3 321 320 323
3 323 322 325
3 324 326 325
3 326 328 327
3 329 328 331
3 330 332 331
3 332 334 333
3 334 336 335
3 336 338 337
3 338 340 339
3 340 342 341
3 342 344 343
3 345 344 347
3 347 346 349
3 349 348 351
3 450 352 354
3 354 353 356
3 356 355 358
3 358 357 360
3 360 359 362
3 362 361 364
3 364 363 366
3 366 365 368
3 368 367 370
3 370 369 372
3 372 371 374
3 373 375 374
3 375 377 376
3 378 377 380
3 380 379 382
3 382 381 384
3 384 383 386
3 386 385 388
3 387 389 388
3 389 391 390
3 391 393 392
3 393 395 394
3 395 397 396
3 398 397 400
3 399 401 400
3 402 401 404
3 404 403 406
3 406 405 408
3 408 407 410
3 410 409 412
3 411 413 412
3 413 415 414
3 415 417 416
3 417 419 418
3 419 421 420
3 422 421 424
3 424 423 426
3 426 425 428
3 427 429 428
3 429 431 430
3 431 433 432
3 433 435 434
3 435 437 436
3 437 439 438
3 439 441 440
3 441 443 442
3 444 443 446
3 446 445 448
3 451 452 453
3 454 455 456
3 457 458 459
3 456 455 460
3 461 462 463
3 464 465 466
3 467 468 469
3 466 465 470
3 471 472 473
3 474 475 476
3 473 477 478
3 476 475 479
3 480 481 482
3 483 484 485
3 482 486 487
3 485 484 488
3 489 490 491
3 492 493 494
3 491 495 496
3 494 493 497
3 498 499 500
3 501 502 503
3 500 504 505
3 503 502 506
3 507 508 509
3 510 511 512
3 509 513 514
3 512 511 515
3 516 517 518
3 519 520 521
3 518 522 523
3 521 520 524
3 525 526 527
3 528 529 530
3 527 531 532
3 533 534 535
3 536 537 538
3 539 540 541
3 538 542 543
3 544 545 546
3 547 548 549
3 548 550 551
3 550 552 553
3 552 554 555
3 554 556 557
3 556 558 559
3 558 560 561
3 560 562 563
3 562 564 565
3 564 566 567
3 566 568 569
3 568 570 571
3 570 572 573
3 574 575 573
3 576 577 575
3 578 579 577
3 580 581 579
3 582 583 581
3 582 584 585
3 584 586 587
3 586 588 589
3 588 590 591
3 590 592 593
3 594 595 593
3 594 596 597
3 598 599 597
3 600 601 599
3 602 603 601
3 604 605 603
3 606 607 605
3 606 608 609
3 608 610 611
3 610 612 613
3 612 614 615
3 614 616 617
3 618 619 617
3 620 621 619
3 620 622 623
3 624 625 623
3 626 627 625
3 628 629 627
3 630 631 629
3 632 633 631
3 634 635 633
3 636 637 635
3 638 639 637
3 640 641 639
3 640 642 643
3 644 645 646
3 645 647 648
3 647 649 650
3 649 651 652
3 651 653 654
3 653 655 656
3 655 657 658
3 657 659 660
3 659 661 662
3 661 663 664
3 663 665 666
3 667 668 666
3 669 670 668
3 669 671 672
3 671 673 674
3 673 675 676
3 675 677 678
3 677 679 680
3 681 682 680
3 683 684 682
3 685 686 684
3 687 688 686
3 689 690 688
3 689 691 692
3 693 694 692
3 693 695 696
3 695 697 698
3 697 699 700
3 699 701 702
3 701 703 704
3 705 706 704
3 707 708 706
3 709 710 708
3 711 712 710
3 713 714 712
3 713 715 716
3 715 717 718
3 717 719 720
3 721 722 720
3 723 724 722
3 725 726 724
3 727 728 726
3 729 730 728
3 731 732 730
3 733 734 732
3 735 736 734
3 737 738 736
3 737 739 740
3 741 547 549
3 549 548 551
3 551 550 553
3 553 552 555
3 555 554 557
3 557 556 559
3 559 558 561
3 561 560 563
3 563 562 565
3 565 564 567
3 567 566 569
3 569 568 571
3 571 570 573
3 572 574 573
3 574 576 575
3 576 578 577
3 578 580 579
3 580 582 581
3 583 582 585
3 585 584 587
3 587 586 589
3 589 588 591
3 591 590 593
3 592 594 593
3 595 594 597
3 596 598 597
3 598 600 599
3 600 602 601
3 602 604 603
3 604 606 605
3 607 606 609
3 609 608 611
3 611 610 613
3 613 612 615
3 615 614 617
3 616 618 617
3 618 620 619
3 621 620 623
3 622 624 623
3 624 626 625
3 626 628 627
3 628 630 629
3 630 632 631
3 632 634 633
3 634 636 635
3 636 638 637
3 638 640 639
3 641 640 643
3 742 644 646
3 646 645 648
3 648 647 650
3 650 649 652
3 652 651 654
3 654 653 656
3 656 655 658
3 658 657 660
3 660 659 662
3 662 661 664
3 664 663 666
3 665 667 666
3 667 669 668
3 670 669 672
3 672 671 674
3 674 673 676
3 676 675 678
3 678 677 680
3 679 681 680
3 681 683 682
3 683 685 684
3 685 687 686
3 687 689 688
3 690 689 692
3 691 693 692
3 694 693 696
3 696 695 698
3 698 697 700
3 700 699 702
3 702 701 704
3 703 705 704
3 705 707 706
3 707 709 708
3 709 711 710
3 711 713 712
3 714 713 716
3 716 715 718
3 718 717 720
3 719 721 720
3 721 723 722
3 723 725 724
3 725 727 726
3 727 729 728
3 729 731 730
3 731 733 732
3 733 735 734
3 735 737 736
3 738 737 740
3 743 744 745
3 746 747 748
3 749 750 751
3 752 753 754
3 755 756 757
3 758 759 760
3 761 762 763
3 764 765 766
3 767 0 2
3 10 3 5
3 19 6 8
3 7 6 9
3 768 10 11
3 17 12 14
3 0 15 1
3 3 17 4
3 769 18 19
3 6 18 0
3 20 770 769
3 18 769 26
3 770 20 22
3 16 15 27
3 769 770 26
3 16 24 23
3 771 23 25
3 16 27 24
3 18 26 15
3 43 28 30
3 772 30 32
3 12 33 13
3 43 35 37
3 51 38 40
3 44 41 42
3 28 43 42
3 35 41 36
3 773 45 47
3 52 48 50
3 49 51 50
3 39 38 52
3 774 53 55
3 775 56 58
3 776 451 453
3 777 454 456
3 778 457 459
3 779 456 460
3 780 461 463
3 781 464 466
3 782 467 469
3 783 466 470
3 784 471 473
3 785 474 476
3 784 473 478
3 786 476 479
3 787 480 482
3 788 483 485
3 787 482 487
3 789 485 488
3 790 489 491
3 791 492 494
3 790 491 496
3 792 494 497
3 793 498 500
3 794 501 503
3 793 500 505
3 795 503 506
3 796 507 509
3 797 510 512
3 796 509 514
3 798 512 515
3 799 516 518
3 800 519 521
3 799 518 523
3 801 521 524
3 802 525 527
3 803 528 530
3 802 527 532
3 804 533 535
3 805 536 538
3 806 539 541
3 805 538 543
3 807 544 546
3 808 743 745
3 809 746 748
3 810 749 751
3 811 752 754
3 812 755 757
3 813 758 760
3 814 761 763
3 815 764 766
