ply
format ascii 1.0
comment Created by Blender 2.76 (sub 0) - www.blender.org, source file: 'Boulder.blend'
element vertex 257
property float x
property float y
property float z
property float nx
property float ny
property float nz
property uchar red
property uchar green
property uchar blue
element face 480
property list uchar uint vertex_indices
end_header
-0.090740 -1.223329 0.395914 -0.045351 -0.997894 0.045900 64 64 64
0.009202 -1.214692 0.042969 0.056093 -0.993835 -0.095370 63 63 63
0.300775 -1.241754 0.262345 0.060457 -0.993591 -0.095279 62 62 62
0.599439 -1.228565 0.501838 0.300760 -0.951140 0.069399 62 62 62
0.214535 -1.226943 0.678914 -0.002319 -0.986541 0.163366 62 62 62
-0.201187 -1.168552 0.799000 -0.157476 -0.955473 0.249428 62 62 62
1.045491 -0.829604 0.537109 0.862545 -0.440626 0.248665 65 65 65
0.891199 -0.787123 0.957550 0.803797 -0.479110 0.352611 64 64 64
0.777721 -1.050895 0.754795 0.609638 -0.732292 0.303385 65 65 65
0.929786 -1.002700 0.523487 0.716514 -0.666005 0.207404 66 66 66
0.908481 -1.057406 0.299112 0.617725 -0.784722 -0.050935 66 66 66
1.144478 -0.794019 0.098187 0.859310 -0.481246 -0.173009 66 66 66
-0.312572 -1.228647 0.279679 -0.027497 -0.998657 0.043611 63 63 63
-0.337572 -1.233793 0.017614 -0.024964 -0.999176 -0.031007 63 63 63
-0.463326 -1.211191 0.395531 -0.176611 -0.973083 0.147954 63 63 63
-0.705465 -1.198076 -0.006894 -0.297922 -0.951659 -0.074404 62 62 62
-0.106134 -1.193156 -0.300051 0.114475 -0.973327 -0.198675 65 65 65
-0.481039 -1.180209 -0.351703 -0.213263 -0.934965 -0.283425 63 63 63
-0.225258 -1.109122 -0.653513 0.046663 -0.896603 -0.440321 66 66 66
0.099976 -1.152530 -0.315247 0.224128 -0.940428 -0.255623 63 63 63
0.253878 -1.156993 -0.122499 0.193884 -0.946318 -0.258522 62 62 62
0.143314 -1.081793 -0.482316 0.333201 -0.833247 -0.441176 64 64 64
0.494069 -1.026767 -0.278553 0.393384 -0.786981 -0.475234 63 63 63
1.052381 -0.487263 0.796331 0.943266 -0.206305 0.260048 63 63 63
1.188954 -0.486247 0.312077 0.985595 -0.096957 0.138462 63 63 63
1.109974 -0.614800 0.544067 0.942656 -0.208930 0.260201 63 63 63
1.142931 -0.140327 0.539082 0.973266 0.140660 0.181524 63 63 63
-0.174802 -0.495647 1.753609 -0.009278 -0.387066 0.921995 64 64 64
-0.431194 -0.343509 1.784455 -0.283975 -0.260781 0.922666 70 70 70
-0.466554 -0.741592 1.547904 -0.345439 -0.651631 0.675283 62 62 62
-0.094805 -0.800917 1.584878 -0.041444 -0.643208 0.764550 62 62 62
0.353810 -0.876648 1.479996 0.226173 -0.679525 0.697867 63 63 63
0.031087 -0.365373 1.776573 0.106845 -0.277902 0.954619 65 65 65
-0.314320 0.134184 1.882896 -0.153081 0.201575 0.967406 74 74 74
-1.269263 -0.630603 0.358677 -0.814020 -0.355205 0.459548 66 66 66
-1.410232 -0.456752 0.187190 -0.984161 -0.113559 0.135990 68 68 68
-1.353109 -0.759603 -0.019934 -0.902676 -0.418928 -0.098209 67 67 67
-1.153963 -0.871599 0.306601 -0.703177 -0.605976 0.371899 66 66 66
-0.833003 -0.931091 0.686976 -0.610004 -0.712363 0.346965 62 62 62
-1.159509 -0.554648 0.567139 -0.821894 -0.380749 0.423627 66 66 66
-1.359390 -0.104835 0.406417 -0.960418 0.180548 0.212043 69 69 69
-0.619756 -0.365109 -1.240831 -0.435591 -0.052095 -0.898618 66 66 66
-0.420030 -0.652242 -1.254457 -0.097781 -0.434004 -0.895566 68 68 68
-0.683451 -0.706899 -1.038887 -0.592212 -0.541704 -0.596484 66 66 66
-0.683451 -0.706899 -1.038887 -0.592212 -0.541704 -0.596484 67 67 67
-0.929042 -0.712676 -0.684953 -0.714560 -0.463271 -0.524155 66 66 66
-0.885002 -0.364025 -0.940236 -0.840144 -0.134709 -0.525346 64 64 64
-0.781544 -0.009322 -1.112228 -0.596393 0.133915 -0.791436 66 66 66
0.725515 -0.267273 -0.842816 0.624958 -0.504685 -0.595538 63 63 63
0.766285 -0.520818 -0.545719 0.592944 -0.527268 -0.608570 66 66 66
0.534558 -0.549773 -0.736743 0.526902 -0.598407 -0.603504 64 64 64
0.578158 -0.366511 -0.892502 0.531144 -0.562365 -0.633717 66 66 66
0.264514 -0.579086 -0.918066 0.458235 -0.536882 -0.708335 66 66 66
0.469620 -0.280848 -1.036341 0.367168 -0.486404 -0.792810 64 64 64
0.661723 0.015361 -1.116674 0.485488 -0.277596 -0.828974 63 63 63
1.023385 -0.338214 1.095739 0.945433 -0.181005 0.270852 64 64 64
0.916731 -0.455246 1.315231 0.838496 -0.309183 0.448653 66 66 66
1.046889 -0.100032 1.092580 0.953429 0.160314 0.255440 69 69 69
0.862955 -0.043219 1.577521 0.705985 0.213752 0.675161 72 72 72
0.916731 -0.455246 1.315231 0.838496 -0.309183 0.448653 65 65 65
-0.624691 -0.355135 1.675353 -0.619343 -0.213111 0.755608 69 69 69
-0.706445 -0.607689 1.475319 -0.669057 -0.456740 0.586261 63 63 63
-0.649179 -0.123640 1.669210 -0.739525 0.064547 0.669973 74 74 74
-0.897027 -0.404228 1.283391 -0.863704 -0.120426 0.489364 67 67 67
-1.300573 -0.406448 -0.204365 -0.906461 0.062716 -0.417524 67 67 67
-1.370880 -0.294024 -0.003936 -0.949400 0.156957 -0.271950 70 70 70
-1.283512 -0.040183 -0.003443 -0.902890 0.353343 -0.244728 70 70 70
-1.112525 -0.003764 -0.403191 -0.923002 0.194494 -0.332011 66 66 66
-0.236882 -0.351535 -1.268486 0.181158 -0.038392 -0.982696 68 68 68
-0.414189 -0.010777 -1.201278 -0.106571 0.249123 -0.962584 64 64 64
-0.020840 -0.009667 -1.198515 0.052522 0.027711 -0.998230 66 66 66
0.873884 -0.181438 -0.729509 0.733909 -0.428816 -0.526749 62 62 62
0.966297 -0.300914 -0.501931 0.737388 -0.377148 -0.560320 62 62 62
0.766285 -0.520818 -0.545719 0.592944 -0.527268 -0.608570 64 64 64
0.928205 0.020070 -0.809181 0.784265 -0.311563 -0.536485 62 62 62
1.125843 -0.025474 -0.411439 0.943449 -0.120762 -0.308695 62 62 62
0.223693 0.771058 0.906558 0.485061 0.782098 0.391156 80 80 80
0.281650 0.570271 1.194453 0.454482 0.764885 0.456435 79 79 79
0.546164 0.528077 0.935900 0.544237 0.771752 0.328898 77 77 77
0.756578 0.473886 0.655015 0.686880 0.650899 0.323191 68 68 68
0.463879 0.748332 0.609001 0.543107 0.718192 0.434980 70 70 70
0.146497 0.968203 0.597313 0.302103 0.844234 0.442640 80 80 80
-0.620125 0.767107 0.906315 -0.612110 0.743950 0.268044 80 80 80
-0.710918 0.749270 0.582950 -0.686880 0.713004 0.140690 82 82 82
-0.910392 0.469979 0.731373 -0.788171 0.537767 0.299264 69 69 69
-0.687413 0.581581 1.123330 -0.760643 0.523087 0.384350 78 78 78
-0.412542 0.690479 1.460190 -0.350841 0.762383 0.543718 79 79 79
-0.449463 0.864850 0.937660 -0.373272 0.884121 0.280984 70 70 70
-0.487131 0.973133 0.366060 -0.534257 0.814508 0.226020 79 79 79
-0.738273 0.833346 -0.619768 -0.606037 0.706931 -0.364574 76 76 76
-0.890310 0.589418 -0.737089 -0.763634 0.482650 -0.428816 79 79 79
-0.920675 0.609327 -0.439640 -0.879696 0.474349 -0.032777 71 71 71
-0.916534 0.571131 -0.072764 -0.820124 0.572008 0.011353 78 78 78
-0.737687 0.843321 -0.272591 -0.751518 0.656728 0.062410 81 81 81
-0.522961 1.057599 -0.453653 -0.549028 0.786828 -0.281808 78 78 78
0.052739 0.752535 -0.994487 -0.150090 0.531114 -0.833888 73 73 73
0.258421 0.812294 -0.981053 -0.033662 0.573138 -0.818751 82 82 82
0.264794 0.486735 -1.153908 -0.013886 0.333018 -0.942808 77 77 77
-0.014583 0.541749 -1.095776 -0.179724 0.380596 -0.907071 71 71 71
-0.312875 0.587989 -0.996547 -0.216773 0.474990 -0.852840 71 71 71
-0.057552 0.877925 -0.876528 -0.203864 0.616382 -0.760582 72 72 72
0.222383 1.123143 -0.711803 0.060121 0.817835 -0.572253 82 82 82
0.880595 0.765806 -0.036204 0.763787 0.585253 0.272103 69 69 69
1.046995 0.473164 -0.008091 0.895260 0.397748 0.200598 72 72 72
1.048319 0.640708 -0.424545 0.913144 0.407086 0.020112 81 81 81
0.957228 0.753819 -0.841589 0.721030 0.487472 -0.492416 82 82 82
0.829654 0.943488 -0.466073 0.654439 0.755638 -0.026093 78 78 78
0.629979 1.040529 -0.051072 0.598437 0.767602 0.229438 76 76 76
0.296394 1.255316 -0.055334 0.406781 0.897977 0.167608 82 82 82
0.462385 1.146682 -0.409827 0.418989 0.895718 -0.148747 82 82 82
0.096125 1.300678 -0.379730 0.096133 0.953612 -0.285195 80 80 80
-0.020288 1.348595 -0.062624 -0.038545 0.990051 0.135136 74 74 74
0.617813 0.977236 -0.803623 0.314463 0.785638 -0.532731 73 73 73
0.616393 0.643479 -1.059002 0.245888 0.424848 -0.871212 72 72 72
-0.163726 1.135077 -0.599674 -0.260598 0.771264 -0.580706 74 74 74
-0.269473 1.264176 -0.257427 -0.421613 0.896023 -0.139195 68 68 68
-0.425489 0.864885 -0.751406 -0.294900 0.666646 -0.684530 80 80 80
-0.647376 0.612407 -0.891425 -0.342326 0.553545 -0.759178 76 76 76
-0.612856 0.786314 -0.761538 -0.338847 0.675283 -0.655080 74 74 74
-0.522614 1.050422 -0.062637 -0.682821 0.722221 0.110141 82 82 82
-0.255186 1.208874 0.132578 -0.382977 0.859584 0.338237 82 82 82
-0.365072 1.197224 -0.060798 -0.587695 0.798639 0.129429 82 82 82
-0.714136 0.794772 0.132759 -0.732170 0.673147 0.103671 70 70 70
-0.936763 0.541346 0.332916 -0.746147 0.661611 0.073916 79 79 79
-0.784033 0.703178 0.333723 -0.707541 0.702628 0.075167 74 74 74
-0.125918 1.157888 0.295848 -0.189581 0.867794 0.459304 82 82 82
-0.182694 1.017233 0.526319 -0.131718 0.919340 0.370739 82 82 82
0.064591 1.206123 0.247190 0.109378 0.878262 0.465468 79 79 79
-0.127404 0.870438 1.048584 0.115635 0.925382 0.360942 82 82 82
-0.256431 0.921394 0.859152 -0.082339 0.958617 0.272469 82 82 82
-0.066489 0.679919 1.366145 0.335490 0.769555 0.543290 72 72 72
0.015677 0.792546 1.115717 0.381115 0.830805 0.405530 81 81 81
0.400587 1.030522 0.279410 0.489578 0.744743 0.453475 71 71 71
0.629979 1.040529 -0.051072 0.598437 0.767602 0.229438 75 75 75
0.698048 0.770585 0.305155 0.634297 0.647816 0.421827 66 66 66
0.925443 0.474774 0.317776 0.787439 0.509262 0.347179 76 76 76
0.837742 0.680224 0.206936 0.730705 0.569597 0.376232 71 71 71
1.106949 0.433678 -0.454143 0.980163 0.188513 -0.060884 69 69 69
1.128056 0.251208 -0.211145 0.987060 0.159825 0.010254 67 67 67
1.079524 0.380484 -0.671234 0.943999 0.041749 -0.327219 65 65 65
0.848155 0.389847 -1.029855 0.640980 0.050905 -0.765831 71 71 71
0.661499 0.437703 -1.119707 0.335337 0.205298 -0.919431 74 74 74
0.471991 0.268353 -1.190110 0.184484 0.076174 -0.979858 67 67 67
0.125737 0.245355 -1.198921 -0.086825 0.119266 -0.989044 70 70 70
-0.181891 0.287202 -1.130277 -0.143223 0.261025 -0.954619 67 67 67
-0.028595 0.354086 -1.150353 -0.190741 0.237251 -0.952513 71 71 71
-0.559180 0.301960 -1.084955 -0.223701 0.346934 -0.910794 67 67 67
-0.868236 0.323163 -0.940621 -0.695639 0.277413 -0.662648 69 69 69
-0.703542 0.415663 -0.997204 -0.356212 0.405133 -0.841975 71 71 71
-1.009768 0.329187 -0.603636 -0.945982 0.237342 -0.220771 68 68 68
-1.047179 0.300211 -0.237404 -0.910611 0.388440 -0.140812 70 70 70
-1.168939 0.179007 -0.025107 -0.865383 0.437849 -0.243568 74 74 74
-1.168814 0.261192 0.165040 -0.853633 0.516007 -0.070864 75 75 75
-1.164057 0.196882 0.583413 -0.830714 0.459090 0.314829 77 77 77
-1.111349 0.349046 0.354759 -0.807733 0.585559 0.068117 79 79 79
-0.945218 0.054155 1.025262 -0.822626 0.285470 0.491684 69 69 69
-0.684365 0.161355 1.456901 -0.849055 0.300363 0.434584 78 78 78
-0.769580 0.254266 1.226052 -0.842128 0.332560 0.424482 75 75 75
-0.598222 0.158776 1.657168 -0.773064 0.286081 0.566118 79 79 79
-0.405189 0.430007 1.726367 -0.333018 0.537980 0.774346 73 73 73
0.002295 0.418736 1.595242 0.321360 0.636158 0.701407 79 79 79
-0.176660 0.542770 1.593995 0.260842 0.640980 0.721824 80 80 80
0.574175 0.305225 1.418809 0.459548 0.723258 0.515427 73 73 73
0.858505 0.223869 1.137157 0.726341 0.625385 0.285104 79 79 79
0.691861 0.351282 1.173687 0.565508 0.760430 0.319254 79 79 79
0.987206 0.172039 0.647109 0.847255 0.488784 0.207892 77 77 77
1.108573 0.179920 0.251007 0.927519 0.321757 0.190100 66 66 66
1.012937 0.268846 0.403872 0.822352 0.486343 0.295267 69 69 69
0.329587 -0.004303 -1.187696 0.129643 -0.223884 -0.965941 62 62 62
0.305789 0.159398 -1.213381 0.017579 -0.038942 -0.999084 68 68 68
0.136897 -0.300169 -1.110201 0.314188 -0.291696 -0.903409 64 64 64
0.136897 -0.300169 -1.110201 0.314188 -0.291696 -0.903409 65 65 65
-0.089911 -0.643054 -1.132609 0.415113 -0.443709 -0.794214 67 67 67
-0.236882 -0.351535 -1.268486 0.181158 -0.038392 -0.982696 66 66 66
-0.973468 0.001704 -0.787434 -0.905942 0.021546 -0.422773 68 68 68
-1.065097 -0.365919 -0.565468 -0.867580 -0.023560 -0.496689 64 64 64
-1.201152 -0.515719 -0.380618 -0.839564 -0.037690 -0.541917 64 64 64
-1.192334 -0.756771 -0.341876 -0.759880 -0.396680 -0.514969 66 66 66
-1.123418 -0.025918 0.824023 -0.810511 0.256874 0.526353 66 66 66
-1.158496 -0.291657 0.842273 -0.886044 -0.093661 0.453993 69 69 69
-1.079391 -0.532535 0.806770 -0.830592 -0.427778 0.356487 66 66 66
-0.896802 -0.707595 1.008242 -0.773431 -0.530259 0.347240 64 64 64
-0.641735 -0.877152 1.163236 -0.496048 -0.779260 0.382946 62 62 62
-0.752023 -0.766262 1.226984 -0.648610 -0.634754 0.419935 62 62 62
0.296805 0.064407 1.793645 0.272835 0.279702 0.920499 71 71 71
0.294957 0.278393 1.632167 0.334666 0.657521 0.674978 72 72 72
0.619812 -0.460004 1.624138 0.433546 -0.339335 0.834773 64 64 64
0.323284 -0.246112 1.773595 0.203772 -0.179174 0.962462 66 66 66
0.761104 -0.611614 1.429289 0.657888 -0.458052 0.597766 64 64 64
0.673980 -0.867248 1.246843 0.577319 -0.650288 0.493759 64 64 64
1.177992 -0.099520 0.054626 0.994079 0.108371 0.001801 62 62 62
1.148248 0.106916 0.040220 0.978576 0.193487 0.070101 66 66 66
1.204369 -0.338340 0.066242 0.999237 0.021882 -0.032044 63 63 63
1.172756 -0.419379 -0.146058 0.928800 -0.183630 -0.321818 63 63 63
0.978434 -0.665047 -0.249776 0.654012 -0.488632 -0.577471 65 65 65
1.061265 -0.467645 -0.297883 0.752373 -0.352062 -0.556719 64 64 64
0.656178 -0.781388 -0.414806 0.507645 -0.593432 -0.624561 66 66 66
0.374971 -0.824503 -0.608785 0.489700 -0.628407 -0.604358 63 63 63
0.517214 -0.722790 -0.585158 0.533494 -0.577837 -0.617603 64 64 64
0.029317 -0.880775 -0.816488 0.419416 -0.685629 -0.594928 62 62 62
-0.340532 -0.903942 -1.011966 -0.011628 -0.789117 -0.614093 64 64 64
-0.598615 -0.961547 -0.702643 -0.420209 -0.801050 -0.426283 65 65 65
-0.929042 -0.712676 -0.684953 -0.714560 -0.463271 -0.524155 65 65 65
-0.858334 -0.999240 -0.362239 -0.457808 -0.786950 -0.413587 63 63 63
-1.088576 -1.018624 -0.020424 -0.572375 -0.816126 -0.079196 66 66 66
-1.076580 -0.943900 -0.250859 -0.536699 -0.728751 -0.425214 66 66 66
-1.021182 -1.030006 0.212794 -0.541459 -0.800439 0.257088 65 65 65
-0.788313 -1.108764 0.343592 -0.423933 -0.868068 0.258217 63 63 63
-0.529311 -1.081756 0.765805 -0.371075 -0.878903 0.299631 62 62 62
-0.586933 -1.151387 0.496114 -0.343272 -0.898679 0.272958 63 63 63
-0.507645 -0.985711 1.062211 -0.364849 -0.868496 0.335459 62 62 62
-0.332150 -0.982636 1.229757 -0.262795 -0.868007 0.421277 62 62 62
0.978434 -0.665047 -0.249776 0.654012 -0.488632 -0.577471 66 66 66
0.851519 -0.947774 -0.087406 0.528306 -0.713523 -0.460128 64 64 64
0.840313 -0.812781 -0.246846 0.533921 -0.587909 -0.607654 66 66 66
0.587459 -1.158200 0.094706 0.299203 -0.914457 -0.272378 62 62 62
0.390672 -1.195657 0.078708 0.156346 -0.960082 -0.231819 62 62 62
0.089412 -1.074610 1.170464 -0.019898 -0.912870 0.407727 62 62 62
-0.105020 -0.977130 1.352196 -0.135380 -0.850673 0.507950 62 62 62
0.277455 -1.157124 0.954809 0.043306 -0.951811 0.303537 62 62 62
0.492744 -1.117285 1.002068 0.257271 -0.891293 0.373302 63 63 63
0.645493 -1.041142 1.011916 0.517655 -0.759178 0.394482 64 64 64
0.149191 -1.242964 0.448389 -0.031800 -0.999054 0.029359 62 62 62
-0.315662 -1.221082 -0.225377 -0.023560 -0.988800 -0.147343 64 64 64
-0.755104 -0.487175 -1.100865 -0.724204 -0.242653 -0.645466 63 63 63
-0.619756 -0.365109 -1.240831 -0.435591 -0.052095 -0.898618 64 64 64
-0.755104 -0.487175 -1.100865 -0.724204 -0.242653 -0.645466 64 64 64
0.578158 -0.366511 -0.892502 0.531144 -0.562365 -0.633717 64 64 64
1.023385 -0.338214 1.095739 0.945433 -0.181005 0.270852 63 63 63
-0.431808 -0.242845 -1.268813 -0.088992 0.149632 -0.984710 67 67 67
-0.431808 -0.242845 -1.268813 -0.088992 0.149632 -0.984710 66 66 66
0.411199 0.688577 0.790549 0.534776 0.754143 0.381085 75 75 75
-0.813206 0.782452 -0.452032 -0.773247 0.633442 -0.028016 72 72 72
0.937115 0.804950 -0.320881 0.784845 0.602313 0.145451 72 72 72
0.291166 1.257295 -0.282471 0.377178 0.920316 -0.103488 73 73 73
0.655548 1.041558 -0.572152 0.453322 0.867672 -0.204047 82 82 82
0.511192 0.833360 -0.965374 0.126560 0.611499 -0.781030 82 82 82
-0.118032 1.264177 -0.428526 -0.219550 0.887020 -0.406110 80 80 80
-0.212103 0.967614 -0.747320 -0.262185 0.655629 -0.708060 73 73 73
-0.659493 0.896801 -0.070085 -0.747734 0.652730 0.121525 79 79 79
0.261603 1.189313 0.163355 0.386944 0.820978 0.419813 74 74 74
0.526612 0.848849 0.401492 0.554186 0.681539 0.477828 71 71 71
0.975689 0.274629 -0.859747 0.827387 -0.119968 -0.548631 64 64 64
-0.384122 0.198515 -1.138853 -0.101535 0.305582 -0.946715 66 66 66
-0.995336 0.418791 -0.428089 -0.937986 0.339976 -0.067507 65 65 65
0.982469 0.100177 0.981565 0.864071 0.471603 0.175817 77 77 77
0.324254 -0.188749 -1.116414 0.225013 -0.376537 -0.898648 63 63 63
-0.057815 -0.435420 -1.183346 0.409314 -0.208441 -0.888241 66 66 66
-0.970313 0.224324 -0.792777 -0.911222 0.118839 -0.394391 68 68 68
-0.974189 -0.237155 -0.766477 -0.900632 -0.036805 -0.432936 66 66 66
0.189434 -0.938257 -0.635567 0.452925 -0.688101 -0.566820 63 63 63
-0.131690 -0.828650 -1.009844 0.372631 -0.667135 -0.644978 63 63 63
-0.550908 -0.879557 -0.936742 -0.407239 -0.772698 -0.486892 65 65 65
-0.645422 -1.057716 -0.472596 -0.387646 -0.835780 -0.388806 62 62 62
0.840313 -0.812781 -0.246846 0.533921 -0.587909 -0.607654 64 64 64
0.656178 -0.781388 -0.414806 0.507645 -0.593432 -0.624561 64 64 64
0.803230 -1.071376 0.096700 0.472030 -0.828608 -0.300851 63 63 63
3 0 1 2
3 2 3 4
3 4 5 0
3 6 7 8
3 9 8 3
3 10 11 6
3 12 13 1
3 0 5 14
3 14 15 13
3 16 1 13
3 13 15 17
3 17 18 16
3 19 20 1
3 16 18 21
3 21 22 20
3 23 7 6
3 6 11 24
3 25 24 26
3 27 28 29
3 30 31 32
3 32 33 28
3 34 35 36
3 37 38 39
3 39 40 35
3 41 42 43
3 44 45 46
3 46 47 41
3 48 49 50
3 51 50 52
3 53 54 48
3 55 56 7
3 23 26 57
3 57 58 59
3 60 61 29
3 28 33 62
3 60 62 63
3 64 36 35
3 65 35 40
3 66 67 64
3 68 42 41
3 41 47 69
3 69 70 68
3 71 72 73
3 48 54 74
3 71 74 75
3 76 77 78
3 78 79 80
3 80 81 76
3 82 83 84
3 85 86 87
3 87 88 83
3 89 90 91
3 91 92 93
3 93 94 89
3 95 96 97
3 95 98 99
3 100 101 96
3 102 103 104
3 104 105 106
3 106 107 102
3 108 107 109
3 109 101 110
3 110 111 108
3 109 107 106
3 106 105 112
3 112 101 109
3 112 105 113
3 113 97 96
3 96 101 112
3 110 101 114
3 114 94 115
3 115 111 110
3 114 101 100
3 100 99 116
3 116 94 114
3 116 99 117
3 118 117 90
3 89 94 116
3 115 94 119
3 119 88 120
3 121 120 111
3 119 94 93
3 93 92 122
3 122 88 119
3 122 92 123
3 123 84 83
3 124 83 88
3 125 120 88
3 126 81 127
3 127 111 120
3 126 88 87
3 87 86 128
3 129 128 81
3 128 86 130
3 131 130 77
3 76 81 128
3 127 81 132
3 132 133 108
3 108 111 127
3 132 81 80
3 80 79 134
3 134 133 132
3 134 79 135
3 136 135 103
3 102 133 134
3 137 138 75
3 139 105 104
3 104 103 138
3 139 75 74
3 74 54 140
3 140 105 139
3 141 140 54
3 141 142 97
3 113 105 140
3 143 70 144
3 144 99 98
3 145 98 97
3 144 70 69
3 69 47 146
3 146 99 144
3 146 47 147
3 148 147 90
3 117 99 146
3 149 67 150
3 150 92 91
3 91 90 149
3 151 150 67
3 66 40 152
3 152 92 150
3 152 40 153
3 154 153 84
3 123 92 152
3 155 63 156
3 156 86 85
3 157 85 84
3 156 63 62
3 158 62 33
3 159 86 156
3 159 33 160
3 160 77 130
3 161 130 86
3 162 58 163
3 163 79 78
3 164 78 77
3 163 58 57
3 57 26 165
3 165 79 163
3 165 26 166
3 166 103 135
3 167 135 79
3 142 54 168
3 168 70 143
3 169 143 97
3 168 54 53
3 53 52 170
3 171 70 168
3 170 52 172
3 172 42 173
3 173 70 170
3 147 47 174
3 174 67 149
3 149 90 147
3 174 47 46
3 46 45 175
3 175 67 174
3 176 175 45
3 177 36 64
3 64 67 175
3 178 153 40
3 179 63 155
3 155 84 153
3 179 40 39
3 180 39 38
3 181 63 179
3 181 38 182
3 182 29 61
3 183 61 63
3 160 33 184
3 184 58 162
3 185 162 77
3 184 33 32
3 32 31 186
3 187 186 58
3 188 186 31
3 189 7 59
3 59 58 186
3 166 26 190
3 190 75 138
3 191 138 103
3 190 26 24
3 192 24 11
3 193 75 190
3 193 11 194
3 195 194 73
3 72 75 193
3 196 22 197
3 197 52 50
3 198 50 49
3 197 22 21
3 21 18 199
3 199 52 197
3 199 18 200
3 200 42 172
3 172 52 199
3 200 18 201
3 201 202 43
3 43 42 200
3 201 18 17
3 17 15 203
3 203 202 201
3 203 15 204
3 205 204 36
3 177 202 203
3 206 204 15
3 207 38 37
3 37 36 204
3 207 15 14
3 14 5 208
3 209 208 38
3 210 208 5
3 211 29 182
3 182 38 208
3 212 11 213
3 214 213 22
3 196 49 212
3 213 11 10
3 10 3 215
3 215 22 213
3 215 3 2
3 216 2 1
3 20 22 215
3 211 5 217
3 218 217 31
3 30 29 211
3 219 217 5
3 4 3 220
3 220 31 217
3 220 3 8
3 221 8 7
3 189 31 220
3 222 0 2
3 222 2 4
3 222 4 0
3 9 6 8
3 10 9 3
3 9 10 6
3 0 12 1
3 12 0 14
3 12 14 13
3 223 16 13
3 223 13 17
3 223 17 16
3 16 19 1
3 19 16 21
3 19 21 20
3 25 23 6
3 25 6 24
3 23 25 26
3 30 27 29
3 27 30 32
3 27 32 28
3 37 34 36
3 34 37 39
3 34 39 35
3 224 225 43
3 226 44 46
3 226 46 41
3 51 48 50
3 53 51 52
3 227 53 48
3 23 55 7
3 228 23 57
3 228 57 59
3 28 60 29
3 60 28 62
3 61 60 63
3 65 64 35
3 66 65 40
3 65 66 64
3 229 68 41
3 229 41 69
3 230 69 173
3 48 71 73
3 71 48 74
3 72 71 75
3 231 76 78
3 231 78 80
3 231 80 76
3 85 82 84
3 82 85 87
3 82 87 83
3 232 89 91
3 232 91 93
3 232 93 89
3 98 95 97
3 100 95 99
3 95 100 96
3 233 102 104
3 233 104 106
3 233 106 102
3 234 108 109
3 234 109 110
3 234 110 108
3 235 109 106
3 235 106 112
3 235 112 109
3 236 112 113
3 236 113 96
3 236 96 112
3 237 110 114
3 237 114 115
3 237 115 110
3 238 114 100
3 238 100 116
3 238 116 114
3 118 116 117
3 89 118 90
3 118 89 116
3 121 115 119
3 121 119 120
3 115 121 111
3 239 119 93
3 239 93 122
3 239 122 119
3 124 122 123
3 124 123 83
3 122 124 88
3 126 125 88
3 125 126 127
3 125 127 120
3 129 126 87
3 129 87 128
3 126 129 81
3 131 128 130
3 76 131 77
3 131 76 128
3 240 127 132
3 240 132 108
3 240 108 127
3 241 132 80
3 241 80 134
3 241 134 132
3 136 134 135
3 102 136 103
3 136 102 134
3 139 137 75
3 137 139 104
3 137 104 138
3 242 139 74
3 242 74 140
3 242 140 139
3 142 141 54
3 113 141 97
3 141 113 140
3 145 143 144
3 145 144 98
3 143 145 97
3 243 144 69
3 243 69 146
3 243 146 144
3 148 146 147
3 117 148 90
3 148 117 146
3 244 149 150
3 244 150 91
3 244 91 149
3 66 151 67
3 151 66 152
3 151 152 150
3 154 152 153
3 123 154 84
3 154 123 152
3 157 155 156
3 157 156 85
3 155 157 84
3 158 156 62
3 159 158 33
3 158 159 156
3 161 159 160
3 161 160 130
3 159 161 86
3 164 162 163
3 164 163 78
3 162 164 77
3 245 163 57
3 245 57 165
3 245 165 163
3 167 165 166
3 167 166 135
3 165 167 79
3 169 142 168
3 169 168 143
3 142 169 97
3 246 168 53
3 246 53 170
3 246 170 168
3 247 170 172
3 247 172 173
3 247 173 170
3 248 147 174
3 248 174 149
3 248 149 147
3 249 174 46
3 249 46 175
3 249 175 174
3 177 176 45
3 176 177 64
3 176 64 175
3 179 178 40
3 178 179 155
3 178 155 153
3 180 179 39
3 181 180 38
3 180 181 179
3 183 181 182
3 183 182 61
3 181 183 63
3 185 160 184
3 185 184 162
3 160 185 77
3 187 184 32
3 187 32 186
3 184 187 58
3 189 188 31
3 188 189 56
3 188 59 186
3 191 166 190
3 191 190 138
3 166 191 103
3 192 190 24
3 193 192 11
3 192 193 190
3 195 193 194
3 72 195 73
3 195 72 193
3 198 196 197
3 198 197 50
3 196 198 49
3 250 197 21
3 250 21 199
3 250 199 197
3 251 199 200
3 251 200 172
3 251 172 199
3 252 200 201
3 252 201 43
3 252 43 200
3 253 201 17
3 253 17 203
3 253 203 201
3 205 203 204
3 177 205 36
3 205 177 203
3 207 206 15
3 206 207 37
3 206 37 204
3 209 207 14
3 209 14 208
3 207 209 38
3 211 210 5
3 210 211 182
3 210 182 208
3 214 212 213
3 196 214 22
3 254 255 194
3 256 213 10
3 256 10 215
3 256 215 213
3 216 215 2
3 20 216 1
3 216 20 215
3 218 211 217
3 30 218 31
3 218 30 211
3 4 219 5
3 219 4 220
3 219 220 217
3 221 220 8
3 189 221 7
3 221 189 220
