ply
format ascii 1.0
comment Created by Blender 2.71 (sub 0) - www.blender.org, source file: 'Fan.blend'
element vertex 546
property float x
property float y
property float z
property float nx
property float ny
property float nz
property uchar red
property uchar green
property uchar blue
element face 512
property list uchar uint vertex_indices
end_header
0.241832 -0.047070 0.040495 0.019288 0.730735 -0.682363 76 76 76
0.098316 -0.041306 0.038520 0.039674 0.769951 -0.636830 59 59 59
0.098316 0.047332 0.145684 0.000610 0.744652 -0.667440 59 59 59
0.815893 -0.065587 0.052426 0.002106 0.529618 -0.848201 64 64 64
0.672378 -0.061719 0.048885 0.018708 0.569384 -0.821833 67 67 67
0.672378 0.067745 0.135319 -0.018555 0.540757 -0.840968 75 75 75
0.528863 -0.057319 0.045699 0.018891 0.623554 -0.781549 73 73 73
0.528863 0.063345 0.138505 -0.018708 0.595355 -0.803217 75 75 75
0.385347 -0.052422 0.042895 0.019074 0.677389 -0.735343 77 77 77
0.385347 0.058449 0.141309 -0.018891 0.649831 -0.759819 78 78 78
0.241832 0.053096 0.143708 -0.019074 0.703970 -0.709922 85 85 85
0.098316 0.041146 0.151236 -0.000580 -0.744652 0.667440 59 59 59
0.098316 -0.047492 0.044072 -0.039552 -0.769951 0.636830 59 59 59
0.241832 -0.053036 0.046283 -0.019166 -0.730766 0.682333 76 76 76
0.672378 0.063129 0.142232 0.018433 -0.540727 0.840968 75 75 75
0.672378 -0.066335 0.055798 -0.018647 -0.569414 0.821802 67 67 67
0.815893 -0.069976 0.059485 -0.002136 -0.529618 0.848201 64 64 64
0.528863 0.058276 0.145093 0.018586 -0.595325 0.803247 75 75 75
0.528863 -0.062387 0.052287 -0.018769 -0.623585 0.781518 73 73 73
0.385347 0.052929 0.147525 0.018738 -0.649800 0.759850 78 78 78
0.385347 -0.057941 0.049111 -0.018952 -0.677450 0.735313 77 77 77
0.241832 0.047130 0.149496 0.019013 -0.703940 0.709952 85 85 85
0.815893 -0.065587 0.052426 1.000000 0.000000 0.000000 64 64 64
0.815893 0.071614 0.131778 0.999969 0.000000 0.000000 74 74 74
0.815893 0.067225 0.138837 1.000000 0.000000 0.000000 74 74 74
0.241832 -0.047070 0.040495 -0.014924 -0.695669 -0.718192 76 76 76
0.241832 -0.053036 0.046283 -0.014832 -0.697165 -0.716727 76 76 76
0.098316 -0.047492 0.044072 -0.016541 -0.668844 -0.743187 59 59 59
0.098316 0.047332 0.145684 -1.000000 0.000000 0.000000 59 59 59
0.098316 -0.041306 0.038520 -1.000000 0.000000 0.000000 59 59 59
0.098316 -0.047492 0.044072 -1.000000 0.000000 0.000000 59 59 59
0.672378 0.067745 0.135319 -0.011811 0.831874 0.554765 75 75 75
0.672378 0.063129 0.142232 -0.011933 0.830866 0.556291 75 75 75
0.815893 0.067225 0.138837 -0.009888 0.848567 0.528947 74 74 74
0.815893 -0.065587 0.052426 -0.007996 -0.848598 -0.528947 64 64 64
0.815893 -0.069976 0.059485 -0.007965 -0.849208 -0.527940 64 64 64
0.672378 -0.066335 0.055798 -0.008972 -0.831904 -0.554796 67 67 67
0.672378 -0.061719 0.048885 -0.009033 -0.830897 -0.556322 67 67 67
0.528863 -0.062387 0.052287 -0.010865 -0.793268 -0.608753 73 73 73
0.528863 -0.057319 0.045699 -0.010926 -0.791711 -0.610736 73 73 73
0.385347 -0.057941 0.049111 -0.012452 -0.748527 -0.662954 77 77 77
0.385347 -0.052422 0.042895 -0.012513 -0.746757 -0.664937 77 77 77
0.098316 0.047332 0.145684 -0.018769 0.668813 0.743156 59 59 59
0.098316 0.041146 0.151236 -0.018799 0.667776 0.744102 59 59 59
0.241832 0.047130 0.149496 -0.018159 0.695639 0.718131 85 85 85
0.241832 0.053096 0.143708 -0.018128 0.697134 0.716697 85 85 85
0.385347 0.052929 0.147525 -0.016724 0.746727 0.664907 78 78 78
0.385347 0.058449 0.141309 -0.016663 0.748497 0.662893 78 78 78
0.528863 0.058276 0.145093 -0.014893 0.791681 0.610706 75 75 75
0.528863 0.063345 0.138505 -0.014832 0.793237 0.608722 75 75 75
0.815893 0.071614 0.131778 -0.034822 0.500351 -0.865108 74 74 74
0.815893 0.067225 0.138837 0.034730 -0.500351 0.865108 74 74 74
0.815893 -0.069976 0.059485 0.999969 0.000000 0.000000 64 64 64
0.098316 -0.041306 0.038520 -0.016572 -0.667806 -0.744133 59 59 59
0.098316 0.041146 0.151236 -1.000000 0.000000 0.000000 59 59 59
0.815893 0.071614 0.131778 -0.009857 0.849208 0.527940 74 74 74
0.204284 0.137717 0.040495 -0.503037 0.530351 -0.682363 76 76 76
0.098728 0.040313 0.038520 -0.516373 0.572497 -0.636830 59 59 59
0.036051 0.102989 0.145684 -0.526109 0.526994 -0.667440 59 59 59
0.623301 0.530547 0.052426 -0.372997 0.375988 -0.848201 64 64 64
0.519085 0.431801 0.048885 -0.389386 0.415845 -0.821833 67 67 67
0.427540 0.523346 0.135319 -0.395489 0.369243 -0.840968 75 75 75
0.414493 0.333432 0.045699 -0.427534 0.454268 -0.781549 73 73 73
0.329171 0.418754 0.138505 -0.434217 0.407758 -0.803217 75 75 75
0.309550 0.235414 0.042895 -0.465499 0.492477 -0.735343 77 77 77
0.231152 0.313811 0.141309 -0.472854 0.446150 -0.759819 78 78 78
0.133456 0.208546 0.143708 -0.511277 0.484298 -0.709922 85 85 85
0.040426 0.098615 0.151236 0.526139 -0.526963 0.667440 59 59 59
0.103102 0.035938 0.044072 0.516465 -0.572405 0.636830 59 59 59
0.208503 0.133498 0.046283 0.503159 -0.530290 0.682333 76 76 76
0.430804 0.520082 0.142232 0.395398 -0.369304 0.840968 75 75 75
0.522349 0.428537 0.055798 0.389447 -0.415845 0.821802 67 67 67
0.626404 0.527443 0.059485 0.372967 -0.375988 0.848201 64 64 64
0.332755 0.415170 0.145093 0.434095 -0.407819 0.803247 75 75 75
0.418077 0.329848 0.052287 0.427656 -0.454207 0.781518 73 73 73
0.235055 0.309908 0.147525 0.472732 -0.446211 0.759850 78 78 78
0.313452 0.231511 0.049111 0.465590 -0.492447 0.735313 77 77 77
0.137675 0.204327 0.149496 0.511216 -0.484298 0.709952 85 85 85
0.623301 0.530547 0.052426 0.707083 0.707083 0.000000 64 64 64
0.526285 0.627562 0.131778 0.707083 0.707083 0.000000 74 74 74
0.529389 0.624459 0.138837 0.707083 0.707083 0.000000 74 74 74
0.204284 0.137717 0.040495 0.481338 -0.502457 -0.718192 76 76 76
0.208503 0.133498 0.046283 0.482467 -0.503464 -0.716727 76 76 76
0.103102 0.035938 0.044072 0.461226 -0.484634 -0.743187 59 59 59
0.036051 0.102989 0.145684 -0.707083 -0.707083 0.000000 59 59 59
0.098728 0.040313 0.038520 -0.707083 -0.707083 0.000000 59 59 59
0.103102 0.035938 0.044072 -0.707083 -0.707083 0.000000 59 59 59
0.427540 0.523346 0.135319 -0.596606 0.579852 0.554796 75 75 75
0.430804 0.520082 0.142232 -0.595965 0.579058 0.556291 75 75 75
0.529389 0.624459 0.138837 -0.607013 0.593036 0.528947 74 74 74
0.623301 0.530547 0.052426 0.594378 -0.605701 -0.528947 64 64 64
0.626404 0.527443 0.059485 0.594836 -0.606128 -0.527940 64 64 64
0.522349 0.428537 0.055798 0.581896 -0.594592 -0.554796 67 67 67
0.519085 0.431801 0.048885 0.581133 -0.593921 -0.556322 67 67 67
0.418077 0.329848 0.052287 0.553240 -0.568621 -0.608753 73 73 73
0.414493 0.333432 0.045699 0.552080 -0.567553 -0.610736 73 73 73
0.313452 0.231511 0.049111 0.520463 -0.538102 -0.662954 77 77 77
0.309550 0.235414 0.042895 0.519181 -0.536912 -0.664937 77 77 77
0.036051 0.102989 0.145684 -0.486221 0.459639 0.743156 59 59 59
0.040426 0.098615 0.151236 -0.485488 0.458876 0.744102 59 59 59
0.137675 0.204327 0.149496 -0.504746 0.479019 0.718162 85 85 85
0.133456 0.208546 0.143708 -0.505783 0.480087 0.716697 85 85 85
0.235055 0.309908 0.147525 -0.539842 0.516190 0.664907 78 78 78
0.231152 0.313811 0.141309 -0.541032 0.517472 0.662893 78 78 78
0.332755 0.415170 0.145093 -0.570360 0.549242 0.610706 75 75 75
0.329171 0.418754 0.138505 -0.571398 0.550401 0.608722 75 75 75
0.526285 0.627562 0.131778 -0.378430 0.329173 -0.865108 74 74 74
0.529389 0.624459 0.138837 0.378368 -0.329234 0.865108 74 74 74
0.626404 0.527443 0.059485 0.707083 0.707083 0.000000 64 64 64
0.098728 0.040313 0.038520 0.460494 -0.483932 -0.744133 59 59 59
0.040426 0.098615 0.151236 -0.707083 -0.707083 0.000000 59 59 59
0.526285 0.627562 0.131778 -0.607440 0.593493 0.527940 74 74 74
0.047070 0.241832 0.040495 -0.730735 0.019288 -0.682363 76 76 76
0.041306 0.098316 0.038520 -0.769951 0.039674 -0.636830 59 59 59
-0.047332 0.098316 0.145684 -0.744652 0.000610 -0.667440 59 59 59
0.065587 0.815894 0.052426 -0.529618 0.002106 -0.848201 64 64 64
0.061719 0.672378 0.048885 -0.569384 0.018708 -0.821833 67 67 67
-0.067745 0.672378 0.135319 -0.540757 -0.018555 -0.840968 75 75 75
0.057319 0.528863 0.045699 -0.623554 0.018891 -0.781549 73 73 73
-0.063345 0.528863 0.138505 -0.595355 -0.018708 -0.803217 75 75 75
0.052422 0.385347 0.042895 -0.677389 0.019074 -0.735343 77 77 77
-0.058449 0.385347 0.141309 -0.649831 -0.018891 -0.759819 78 78 78
-0.053096 0.241832 0.143708 -0.703970 -0.019074 -0.709922 85 85 85
-0.041146 0.098316 0.151236 0.744652 -0.000580 0.667440 59 59 59
0.047492 0.098316 0.044072 0.769951 -0.039552 0.636830 59 59 59
0.053037 0.241832 0.046283 0.730766 -0.019166 0.682333 76 76 76
-0.063129 0.672378 0.142232 0.540727 0.018433 0.840968 75 75 75
0.066335 0.672378 0.055798 0.569414 -0.018647 0.821802 67 67 67
0.069976 0.815894 0.059485 0.529618 -0.002136 0.848201 64 64 64
-0.058276 0.528863 0.145093 0.595325 0.018586 0.803247 75 75 75
0.062387 0.528863 0.052287 0.623585 -0.018769 0.781518 73 73 73
-0.052929 0.385347 0.147525 0.649800 0.018738 0.759850 78 78 78
0.057941 0.385347 0.049111 0.677450 -0.018952 0.735313 77 77 77
-0.047130 0.241832 0.149496 0.703940 0.019013 0.709952 85 85 85
0.065587 0.815894 0.052426 0.000000 1.000000 0.000000 64 64 64
-0.071614 0.815894 0.131778 0.000000 1.000000 0.000000 74 74 74
-0.067225 0.815894 0.138837 0.000000 1.000000 0.000000 74 74 74
0.047070 0.241832 0.040495 0.695669 -0.014924 -0.718192 76 76 76
0.053037 0.241832 0.046283 0.697165 -0.014832 -0.716727 76 76 76
0.047492 0.098316 0.044072 0.668844 -0.016541 -0.743187 59 59 59
-0.047332 0.098316 0.145684 0.000000 -0.999969 0.000000 59 59 59
0.041306 0.098316 0.038520 0.000000 -1.000000 0.000000 59 59 59
0.047492 0.098316 0.044072 0.000000 -1.000000 0.000000 59 59 59
-0.067745 0.672378 0.135319 -0.831874 -0.011811 0.554796 75 75 75
-0.063129 0.672378 0.142232 -0.830866 -0.011933 0.556291 75 75 75
-0.067225 0.815894 0.138837 -0.848567 -0.009888 0.528947 74 74 74
0.065587 0.815894 0.052426 0.848598 -0.007996 -0.528947 64 64 64
0.069976 0.815894 0.059485 0.849208 -0.007965 -0.527940 64 64 64
0.066335 0.672378 0.055798 0.831904 -0.008972 -0.554796 67 67 67
0.061719 0.672378 0.048885 0.830897 -0.009033 -0.556322 67 67 67
0.062387 0.528863 0.052287 0.793268 -0.010865 -0.608753 73 73 73
0.057319 0.528863 0.045699 0.791711 -0.010926 -0.610736 73 73 73
0.057941 0.385347 0.049111 0.748527 -0.012452 -0.662954 77 77 77
0.052422 0.385347 0.042895 0.746757 -0.012513 -0.664937 77 77 77
-0.047332 0.098316 0.145684 -0.668813 -0.018769 0.743156 59 59 59
-0.041146 0.098316 0.151236 -0.667776 -0.018799 0.744102 59 59 59
-0.047130 0.241832 0.149496 -0.695608 -0.018159 0.718162 85 85 85
-0.053096 0.241832 0.143708 -0.697134 -0.018128 0.716697 85 85 85
-0.052929 0.385347 0.147525 -0.746727 -0.016724 0.664907 78 78 78
-0.058449 0.385347 0.141309 -0.748497 -0.016663 0.662893 78 78 78
-0.058276 0.528863 0.145093 -0.791681 -0.014893 0.610706 75 75 75
-0.063345 0.528863 0.138505 -0.793237 -0.014832 0.608722 75 75 75
-0.071614 0.815894 0.131778 -0.500351 -0.034822 -0.865108 74 74 74
-0.067225 0.815894 0.138837 0.500351 0.034730 0.865108 74 74 74
0.069976 0.815894 0.059485 0.000000 1.000000 0.000000 64 64 64
0.041306 0.098316 0.038520 0.667806 -0.016572 -0.744133 59 59 59
-0.041146 0.098316 0.151236 0.000000 -1.000000 0.000000 59 59 59
-0.071614 0.815894 0.131778 -0.849208 -0.009857 0.527940 74 74 74
-0.137717 0.204284 0.040495 -0.530351 -0.503037 -0.682363 76 76 76
-0.040313 0.098728 0.038520 -0.572497 -0.516373 -0.636830 59 59 59
-0.102989 0.036051 0.145684 -0.526994 -0.526109 -0.667440 59 59 59
-0.530547 0.623301 0.052426 -0.375988 -0.372997 -0.848201 64 64 64
-0.431801 0.519085 0.048885 -0.415845 -0.389386 -0.821833 67 67 67
-0.523346 0.427540 0.135319 -0.369243 -0.395489 -0.840968 75 75 75
-0.333432 0.414493 0.045699 -0.454268 -0.427534 -0.781549 73 73 73
-0.418754 0.329171 0.138505 -0.407758 -0.434217 -0.803217 75 75 75
-0.235414 0.309550 0.042895 -0.492477 -0.465499 -0.735343 77 77 77
-0.313811 0.231152 0.141309 -0.446150 -0.472854 -0.759819 78 78 78
-0.208546 0.133456 0.143708 -0.484298 -0.511277 -0.709922 85 85 85
-0.098615 0.040426 0.151236 0.526963 0.526139 0.667440 59 59 59
-0.035938 0.103102 0.044072 0.572405 0.516465 0.636830 59 59 59
-0.133498 0.208503 0.046283 0.530290 0.503159 0.682333 76 76 76
-0.520082 0.430804 0.142232 0.369304 0.395398 0.840968 75 75 75
-0.428537 0.522349 0.055798 0.415845 0.389447 0.821802 67 67 67
-0.527443 0.626405 0.059485 0.375988 0.372967 0.848201 64 64 64
-0.415170 0.332755 0.145093 0.407819 0.434095 0.803247 75 75 75
-0.329848 0.418077 0.052287 0.454207 0.427656 0.781518 73 73 73
-0.309908 0.235055 0.147525 0.446211 0.472732 0.759850 78 78 78
-0.231511 0.313452 0.049111 0.492447 0.465590 0.735313 77 77 77
-0.204327 0.137675 0.149496 0.484298 0.511216 0.709952 85 85 85
-0.530547 0.623301 0.052426 -0.707083 0.707083 0.000000 64 64 64
-0.627562 0.526286 0.131778 -0.707083 0.707083 0.000000 74 74 74
-0.624459 0.529389 0.138837 -0.707083 0.707083 0.000000 74 74 74
-0.137717 0.204284 0.040495 0.502457 0.481338 -0.718192 76 76 76
-0.133498 0.208503 0.046283 0.503464 0.482467 -0.716727 76 76 76
-0.035938 0.103102 0.044072 0.484634 0.461226 -0.743187 59 59 59
-0.102989 0.036051 0.145684 0.707083 -0.707083 0.000000 59 59 59
-0.040313 0.098728 0.038520 0.707083 -0.707083 0.000000 59 59 59
-0.035938 0.103102 0.044072 0.707083 -0.707083 0.000000 59 59 59
-0.523346 0.427540 0.135319 -0.579852 -0.596606 0.554765 75 75 75
-0.520082 0.430804 0.142232 -0.579058 -0.595965 0.556291 75 75 75
-0.624459 0.529389 0.138837 -0.593036 -0.607013 0.528916 74 74 74
-0.530547 0.623301 0.052426 0.605701 0.594378 -0.528947 64 64 64
-0.527443 0.626405 0.059485 0.606128 0.594836 -0.527940 64 64 64
-0.428537 0.522349 0.055798 0.594592 0.581896 -0.554796 67 67 67
-0.431801 0.519085 0.048885 0.593921 0.581133 -0.556322 67 67 67
-0.329848 0.418077 0.052287 0.568621 0.553240 -0.608753 73 73 73
-0.333432 0.414493 0.045699 0.567553 0.552080 -0.610736 73 73 73
-0.231511 0.313452 0.049111 0.538102 0.520463 -0.662954 77 77 77
-0.235414 0.309550 0.042895 0.536912 0.519181 -0.664937 77 77 77
-0.102989 0.036051 0.145684 -0.459639 -0.486221 0.743156 59 59 59
-0.098615 0.040426 0.151236 -0.458876 -0.485488 0.744102 59 59 59
-0.204327 0.137675 0.149496 -0.479019 -0.504746 0.718162 85 85 85
-0.208546 0.133456 0.143708 -0.480087 -0.505783 0.716697 85 85 85
-0.309908 0.235055 0.147525 -0.516190 -0.539842 0.664907 78 78 78
-0.313811 0.231152 0.141309 -0.517472 -0.541032 0.662893 78 78 78
-0.415170 0.332755 0.145093 -0.549242 -0.570360 0.610706 75 75 75
-0.418754 0.329171 0.138505 -0.550401 -0.571398 0.608722 75 75 75
-0.627562 0.526286 0.131778 -0.329173 -0.378430 -0.865108 74 74 74
-0.624459 0.529389 0.138837 0.329234 0.378368 0.865108 74 74 74
-0.527443 0.626405 0.059485 -0.707083 0.707083 0.000000 64 64 64
-0.040313 0.098728 0.038520 0.483932 0.460494 -0.744133 59 59 59
-0.098615 0.040426 0.151236 0.707083 -0.707083 0.000000 59 59 59
-0.627562 0.526286 0.131778 -0.593493 -0.607440 0.527940 74 74 74
-0.241832 0.047070 0.040495 -0.019288 -0.730735 -0.682363 76 76 76
-0.098316 0.041306 0.038520 -0.039674 -0.769951 -0.636830 59 59 59
-0.098316 -0.047332 0.145684 -0.000610 -0.744652 -0.667440 59 59 59
-0.815894 0.065587 0.052426 -0.002106 -0.529618 -0.848201 64 64 64
-0.672378 0.061719 0.048885 -0.018708 -0.569384 -0.821833 67 67 67
-0.672378 -0.067745 0.135319 0.018555 -0.540757 -0.840968 75 75 75
-0.528863 0.057319 0.045699 -0.018891 -0.623524 -0.781549 73 73 73
-0.528863 -0.063345 0.138505 0.018708 -0.595355 -0.803217 75 75 75
-0.385347 0.052422 0.042895 -0.019074 -0.677389 -0.735343 77 77 77
-0.385347 -0.058449 0.141309 0.018891 -0.649831 -0.759819 78 78 78
-0.241832 -0.053096 0.143708 0.019074 -0.703970 -0.709922 85 85 85
-0.098316 -0.041146 0.151236 0.000580 0.744652 0.667440 59 59 59
-0.098316 0.047492 0.044072 0.039552 0.769951 0.636830 59 59 59
-0.241832 0.053037 0.046283 0.019166 0.730766 0.682333 76 76 76
-0.672378 -0.063129 0.142232 -0.018433 0.540727 0.840968 75 75 75
-0.672378 0.066335 0.055798 0.018647 0.569414 0.821802 67 67 67
-0.815894 0.069976 0.059485 0.002136 0.529618 0.848201 64 64 64
-0.528863 -0.058276 0.145093 -0.018586 0.595325 0.803247 75 75 75
-0.528863 0.062388 0.052287 0.018769 0.623585 0.781518 73 73 73
-0.385347 -0.052929 0.147525 -0.018738 0.649800 0.759850 78 78 78
-0.385347 0.057942 0.049111 0.018952 0.677450 0.735313 77 77 77
-0.241832 -0.047130 0.149496 -0.019013 0.703940 0.709952 85 85 85
-0.815894 0.065587 0.052426 -1.000000 0.000000 0.000000 64 64 64
-0.815894 -0.071613 0.131778 -1.000000 0.000000 0.000000 74 74 74
-0.815894 -0.067225 0.138837 -1.000000 0.000000 0.000000 74 74 74
-0.241832 0.047070 0.040495 0.014924 0.695669 -0.718192 76 76 76
-0.241832 0.053037 0.046283 0.014832 0.697165 -0.716727 76 76 76
-0.098316 0.047492 0.044072 0.016541 0.668844 -0.743187 59 59 59
-0.098316 -0.047332 0.145684 1.000000 0.000000 0.000000 59 59 59
-0.098316 0.041306 0.038520 0.999969 0.000000 0.000000 59 59 59
-0.098316 0.047492 0.044072 1.000000 0.000000 0.000000 59 59 59
-0.672378 -0.067745 0.135319 0.011811 -0.831904 0.554765 75 75 75
-0.672378 -0.063129 0.142232 0.011933 -0.830866 0.556291 75 75 75
-0.815894 -0.067225 0.138837 0.009888 -0.848567 0.528947 74 74 74
-0.815894 0.065587 0.052426 0.007996 0.848598 -0.528947 64 64 64
-0.815894 0.069976 0.059485 0.007965 0.849208 -0.527940 64 64 64
-0.672378 0.066335 0.055798 0.008972 0.831904 -0.554796 67 67 67
-0.672378 0.061719 0.048885 0.009033 0.830897 -0.556322 67 67 67
-0.528863 0.062388 0.052287 0.010865 0.793268 -0.608753 73 73 73
-0.528863 0.057319 0.045699 0.010926 0.791711 -0.610736 73 73 73
-0.385347 0.057942 0.049111 0.012452 0.748527 -0.662954 77 77 77
-0.385347 0.052422 0.042895 0.012513 0.746757 -0.664937 77 77 77
-0.098316 -0.047332 0.145684 0.018769 -0.668813 0.743156 59 59 59
-0.098316 -0.041146 0.151236 0.018799 -0.667776 0.744102 59 59 59
-0.241832 -0.047130 0.149496 0.018159 -0.695639 0.718131 85 85 85
-0.241832 -0.053096 0.143708 0.018128 -0.697134 0.716697 85 85 85
-0.385347 -0.052929 0.147525 0.016724 -0.746727 0.664907 78 78 78
-0.385347 -0.058449 0.141309 0.016663 -0.748497 0.662893 78 78 78
-0.528863 -0.058276 0.145093 0.014893 -0.791681 0.610706 75 75 75
-0.528863 -0.063345 0.138505 0.014832 -0.793237 0.608722 75 75 75
-0.815894 -0.071613 0.131778 0.034822 -0.500351 -0.865108 74 74 74
-0.815894 -0.067225 0.138837 -0.034730 0.500351 0.865108 74 74 74
-0.815894 0.069976 0.059485 -1.000000 0.000000 0.000000 64 64 64
-0.098316 0.041306 0.038520 0.016572 0.667806 -0.744133 59 59 59
-0.098316 -0.041146 0.151236 1.000000 0.000000 0.000000 59 59 59
-0.815894 -0.071613 0.131778 0.009857 -0.849208 0.527940 74 74 74
-0.204284 -0.137717 0.040495 0.503037 -0.530351 -0.682363 76 76 76
-0.098728 -0.040313 0.038520 0.516373 -0.572497 -0.636830 59 59 59
-0.036051 -0.102989 0.145684 0.526109 -0.526994 -0.667440 59 59 59
-0.623301 -0.530547 0.052426 0.372997 -0.375988 -0.848201 64 64 64
-0.519085 -0.431801 0.048885 0.389386 -0.415845 -0.821833 67 67 67
-0.427540 -0.523346 0.135319 0.395489 -0.369243 -0.840968 75 75 75
-0.414493 -0.333432 0.045699 0.427534 -0.454268 -0.781549 73 73 73
-0.329171 -0.418754 0.138505 0.434217 -0.407758 -0.803217 75 75 75
-0.309550 -0.235414 0.042895 0.465499 -0.492477 -0.735343 77 77 77
-0.231152 -0.313811 0.141309 0.472854 -0.446150 -0.759819 78 78 78
-0.133456 -0.208546 0.143708 0.511277 -0.484298 -0.709922 85 85 85
-0.040426 -0.098615 0.151236 -0.526139 0.526963 0.667440 59 59 59
-0.103102 -0.035938 0.044072 -0.516465 0.572405 0.636830 59 59 59
-0.208504 -0.133498 0.046283 -0.503159 0.530290 0.682333 76 76 76
-0.430804 -0.520082 0.142232 -0.395398 0.369304 0.840968 75 75 75
-0.522349 -0.428537 0.055798 -0.389447 0.415845 0.821802 67 67 67
-0.626405 -0.527444 0.059485 -0.372967 0.375988 0.848201 64 64 64
-0.332755 -0.415170 0.145093 -0.434095 0.407819 0.803247 75 75 75
-0.418077 -0.329848 0.052287 -0.427656 0.454207 0.781518 73 73 73
-0.235055 -0.309908 0.147525 -0.472732 0.446211 0.759850 78 78 78
-0.313453 -0.231511 0.049111 -0.465590 0.492447 0.735313 77 77 77
-0.137675 -0.204327 0.149496 -0.511216 0.484298 0.709952 85 85 85
-0.623301 -0.530547 0.052426 -0.707083 -0.707083 0.000000 64 64 64
-0.526286 -0.627562 0.131778 -0.707083 -0.707083 0.000000 74 74 74
-0.529389 -0.624459 0.138837 -0.707083 -0.707083 0.000000 74 74 74
-0.204284 -0.137717 0.040495 -0.481338 0.502457 -0.718192 76 76 76
-0.208504 -0.133498 0.046283 -0.482467 0.503464 -0.716727 76 76 76
-0.103102 -0.035938 0.044072 -0.461226 0.484634 -0.743187 59 59 59
-0.036051 -0.102989 0.145684 0.707083 0.707083 0.000000 59 59 59
-0.098728 -0.040313 0.038520 0.707083 0.707083 0.000000 59 59 59
-0.103102 -0.035938 0.044072 0.707083 0.707083 0.000000 59 59 59
-0.427540 -0.523346 0.135319 0.596606 -0.579852 0.554765 75 75 75
-0.430804 -0.520082 0.142232 0.595965 -0.579058 0.556291 75 75 75
-0.529389 -0.624459 0.138837 0.607013 -0.593036 0.528916 74 74 74
-0.623301 -0.530547 0.052426 -0.594378 0.605701 -0.528947 64 64 64
-0.626405 -0.527444 0.059485 -0.594836 0.606128 -0.527970 64 64 64
-0.522349 -0.428537 0.055798 -0.581896 0.594592 -0.554796 67 67 67
-0.519085 -0.431801 0.048885 -0.581133 0.593921 -0.556322 67 67 67
-0.418077 -0.329848 0.052287 -0.553240 0.568621 -0.608753 73 73 73
-0.414493 -0.333432 0.045699 -0.552080 0.567553 -0.610736 73 73 73
-0.313453 -0.231511 0.049111 -0.520463 0.538102 -0.662954 77 77 77
-0.309550 -0.235414 0.042895 -0.519181 0.536912 -0.664937 77 77 77
-0.036051 -0.102989 0.145684 0.486221 -0.459639 0.743156 59 59 59
-0.040426 -0.098615 0.151236 0.485488 -0.458876 0.744102 59 59 59
-0.137675 -0.204327 0.149496 0.504746 -0.479019 0.718162 85 85 85
-0.133456 -0.208546 0.143708 0.505783 -0.480087 0.716697 85 85 85
-0.235055 -0.309908 0.147525 0.539842 -0.516190 0.664907 78 78 78
-0.231152 -0.313811 0.141309 0.541032 -0.517472 0.662893 78 78 78
-0.332755 -0.415170 0.145093 0.570360 -0.549242 0.610706 75 75 75
-0.329171 -0.418754 0.138505 0.571398 -0.550401 0.608722 75 75 75
-0.526286 -0.627562 0.131778 0.378430 -0.329173 -0.865108 74 74 74
-0.529389 -0.624459 0.138837 -0.378368 0.329234 0.865108 74 74 74
-0.626405 -0.527444 0.059485 -0.707083 -0.707083 0.000000 64 64 64
-0.098728 -0.040313 0.038520 -0.460494 0.483932 -0.744133 59 59 59
-0.040426 -0.098615 0.151236 0.707083 0.707083 0.000000 59 59 59
-0.526286 -0.627562 0.131778 0.607440 -0.593493 0.527940 74 74 74
-0.047070 -0.241832 0.040495 0.730735 -0.019288 -0.682363 76 76 76
-0.041306 -0.098316 0.038520 0.769951 -0.039674 -0.636830 59 59 59
0.047332 -0.098316 0.145684 0.744652 -0.000610 -0.667440 59 59 59
-0.065587 -0.815894 0.052426 0.529618 -0.002106 -0.848201 64 64 64
-0.061719 -0.672378 0.048885 0.569384 -0.018708 -0.821833 67 67 67
0.067745 -0.672378 0.135319 0.540757 0.018555 -0.840968 75 75 75
-0.057319 -0.528863 0.045699 0.623524 -0.018891 -0.781549 73 73 73
0.063345 -0.528863 0.138505 0.595355 0.018708 -0.803217 75 75 75
-0.052422 -0.385347 0.042895 0.677389 -0.019074 -0.735343 77 77 77
0.058449 -0.385347 0.141309 0.649831 0.018891 -0.759819 78 78 78
0.053096 -0.241832 0.143708 0.703970 0.019074 -0.709922 85 85 85
0.041146 -0.098316 0.151236 -0.744652 0.000580 0.667440 59 59 59
-0.047492 -0.098316 0.044072 -0.769951 0.039552 0.636830 59 59 59
-0.053037 -0.241832 0.046283 -0.730766 0.019166 0.682333 76 76 76
0.063129 -0.672378 0.142232 -0.540727 -0.018433 0.840968 75 75 75
-0.066335 -0.672378 0.055798 -0.569414 0.018647 0.821802 67 67 67
-0.069976 -0.815894 0.059485 -0.529618 0.002136 0.848201 64 64 64
0.058276 -0.528863 0.145093 -0.595325 -0.018586 0.803247 75 75 75
-0.062388 -0.528863 0.052287 -0.623585 0.018769 0.781518 73 73 73
0.052929 -0.385347 0.147525 -0.649800 -0.018738 0.759850 78 78 78
-0.057942 -0.385347 0.049111 -0.677450 0.018952 0.735313 77 77 77
0.047130 -0.241832 0.149496 -0.703940 -0.019013 0.709952 85 85 85
-0.065587 -0.815894 0.052426 0.000000 -1.000000 0.000000 64 64 64
0.071613 -0.815894 0.131778 0.000000 -1.000000 0.000000 74 74 74
0.067225 -0.815894 0.138837 0.000000 -1.000000 0.000000 74 74 74
-0.047070 -0.241832 0.040495 -0.695669 0.014924 -0.718192 76 76 76
-0.053037 -0.241832 0.046283 -0.697165 0.014832 -0.716727 76 76 76
-0.047492 -0.098316 0.044072 -0.668844 0.016541 -0.743187 59 59 59
0.047332 -0.098316 0.145684 0.000000 1.000000 0.000000 59 59 59
-0.041306 -0.098316 0.038520 0.000000 1.000000 0.000000 59 59 59
-0.047492 -0.098316 0.044072 0.000000 1.000000 0.000000 59 59 59
0.067745 -0.672378 0.135319 0.831904 0.011811 0.554765 75 75 75
0.063129 -0.672378 0.142232 0.830866 0.011933 0.556291 75 75 75
0.067225 -0.815894 0.138837 0.848567 0.009888 0.528947 74 74 74
-0.065587 -0.815894 0.052426 -0.848598 0.007996 -0.528947 64 64 64
-0.069976 -0.815894 0.059485 -0.849208 0.007965 -0.527940 64 64 64
-0.066335 -0.672378 0.055798 -0.831904 0.008972 -0.554796 67 67 67
-0.061719 -0.672378 0.048885 -0.830897 0.009033 -0.556322 67 67 67
-0.062388 -0.528863 0.052287 -0.793268 0.010865 -0.608753 73 73 73
-0.057319 -0.528863 0.045699 -0.791711 0.010926 -0.610736 73 73 73
-0.057942 -0.385347 0.049111 -0.748527 0.012452 -0.662954 77 77 77
-0.052422 -0.385347 0.042895 -0.746757 0.012513 -0.664937 77 77 77
0.047332 -0.098316 0.145684 0.668813 0.018769 0.743156 59 59 59
0.041146 -0.098316 0.151236 0.667776 0.018799 0.744102 59 59 59
0.047130 -0.241832 0.149496 0.695608 0.018159 0.718162 85 85 85
0.053096 -0.241832 0.143708 0.697134 0.018128 0.716697 85 85 85
0.052929 -0.385347 0.147525 0.746727 0.016724 0.664907 78 78 78
0.058449 -0.385347 0.141309 0.748497 0.016663 0.662893 78 78 78
0.058276 -0.528863 0.145093 0.791681 0.014893 0.610706 75 75 75
0.063345 -0.528863 0.138505 0.793237 0.014832 0.608722 75 75 75
0.071613 -0.815894 0.131778 0.500351 0.034822 -0.865108 74 74 74
0.067225 -0.815894 0.138837 -0.500351 -0.034730 0.865108 74 74 74
-0.069976 -0.815894 0.059485 0.000000 -1.000000 0.000000 64 64 64
-0.041306 -0.098316 0.038520 -0.667806 0.016572 -0.744133 59 59 59
0.041146 -0.098316 0.151236 0.000000 1.000000 0.000000 59 59 59
0.071613 -0.815894 0.131778 0.849208 0.009857 0.527940 74 74 74
0.137718 -0.204285 0.040495 0.530351 0.503037 -0.682363 76 76 76
0.040313 -0.098728 0.038520 0.572497 0.516373 -0.636830 59 59 59
0.102989 -0.036051 0.145684 0.526994 0.526109 -0.667440 59 59 59
0.530547 -0.623301 0.052426 0.375988 0.372997 -0.848201 64 64 64
0.431801 -0.519085 0.048885 0.415845 0.389386 -0.821833 67 67 67
0.523347 -0.427540 0.135319 0.369243 0.395489 -0.840968 75 75 75
0.333432 -0.414493 0.045699 0.454268 0.427534 -0.781549 73 73 73
0.418754 -0.329171 0.138505 0.407758 0.434217 -0.803217 75 75 75
0.235414 -0.309550 0.042895 0.492477 0.465499 -0.735343 77 77 77
0.313811 -0.231152 0.141309 0.446150 0.472854 -0.759819 78 78 78
0.208546 -0.133456 0.143708 0.484298 0.511277 -0.709922 85 85 85
0.098615 -0.040426 0.151236 -0.526963 -0.526139 0.667440 59 59 59
0.035938 -0.103102 0.044072 -0.572405 -0.516465 0.636860 59 59 59
0.133498 -0.208504 0.046283 -0.530290 -0.503159 0.682333 76 76 76
0.520083 -0.430804 0.142232 -0.369304 -0.395398 0.840968 75 75 75
0.428537 -0.522350 0.055798 -0.415845 -0.389447 0.821802 67 67 67
0.527444 -0.626405 0.059485 -0.375988 -0.372967 0.848201 64 64 64
0.415170 -0.332755 0.145093 -0.407819 -0.434095 0.803247 75 75 75
0.329848 -0.418077 0.052287 -0.454207 -0.427656 0.781518 73 73 73
0.309908 -0.235055 0.147525 -0.446211 -0.472732 0.759850 78 78 78
0.231511 -0.313453 0.049111 -0.492447 -0.465590 0.735313 77 77 77
0.204327 -0.137675 0.149496 -0.484298 -0.511216 0.709952 85 85 85
0.530547 -0.623301 0.052426 0.707083 -0.707083 0.000000 64 64 64
0.627563 -0.526286 0.131778 0.707083 -0.707083 0.000000 74 74 74
0.624459 -0.529389 0.138837 0.707083 -0.707083 0.000000 74 74 74
0.137718 -0.204285 0.040495 -0.502457 -0.481338 -0.718192 76 76 76
0.133498 -0.208504 0.046283 -0.503464 -0.482467 -0.716727 76 76 76
0.035938 -0.103102 0.044072 -0.484634 -0.461226 -0.743187 59 59 59
0.102989 -0.036051 0.145684 -0.707083 0.707083 0.000000 59 59 59
0.040313 -0.098728 0.038520 -0.707083 0.707083 0.000000 59 59 59
0.035938 -0.103102 0.044072 -0.707083 0.707083 0.000000 59 59 59
0.523347 -0.427540 0.135319 0.579852 0.596606 0.554765 75 75 75
0.520083 -0.430804 0.142232 0.579058 0.595965 0.556291 75 75 75
0.624459 -0.529389 0.138837 0.593036 0.607013 0.528916 74 74 74
0.530547 -0.623301 0.052426 -0.605701 -0.594378 -0.528947 64 64 64
0.527444 -0.626405 0.059485 -0.606128 -0.594836 -0.527940 64 64 64
0.428537 -0.522350 0.055798 -0.594592 -0.581896 -0.554796 67 67 67
0.431801 -0.519085 0.048885 -0.593921 -0.581133 -0.556322 67 67 67
0.329848 -0.418077 0.052287 -0.568621 -0.553240 -0.608753 73 73 73
0.333432 -0.414493 0.045699 -0.567553 -0.552080 -0.610736 73 73 73
0.231511 -0.313453 0.049111 -0.538102 -0.520463 -0.662954 77 77 77
0.235414 -0.309550 0.042895 -0.536912 -0.519181 -0.664937 77 77 77
0.102989 -0.036051 0.145684 0.459639 0.486221 0.743156 59 59 59
0.098615 -0.040426 0.151236 0.458876 0.485488 0.744102 59 59 59
0.204327 -0.137675 0.149496 0.479019 0.504746 0.718162 85 85 85
0.208546 -0.133456 0.143708 0.480087 0.505783 0.716697 85 85 85
0.309908 -0.235055 0.147525 0.516190 0.539842 0.664907 78 78 78
0.313811 -0.231152 0.141309 0.517472 0.541032 0.662893 78 78 78
0.415170 -0.332755 0.145093 0.549242 0.570330 0.610706 75 75 75
0.418754 -0.329171 0.138505 0.550401 0.571398 0.608722 75 75 75
0.627563 -0.526286 0.131778 0.329173 0.378430 -0.865108 74 74 74
0.624459 -0.529389 0.138837 -0.329234 -0.378368 0.865108 74 74 74
0.527444 -0.626405 0.059485 0.707083 -0.707083 0.000000 64 64 64
0.040313 -0.098728 0.038520 -0.483932 -0.460494 -0.744133 59 59 59
0.098615 -0.040426 0.151236 -0.707083 0.707083 0.000000 59 59 59
0.627563 -0.526286 0.131778 0.593493 0.607440 0.527940 74 74 74
-0.124464 -0.000000 0.015227 -0.995270 0.000000 -0.096835 77 77 77
-0.114990 0.000000 -0.032404 -0.927274 0.000000 -0.374340 77 77 77
-0.106237 -0.044005 -0.032404 -0.856685 -0.354839 -0.374340 77 77 77
-0.088010 0.000000 -0.072783 -0.718833 0.000000 -0.695151 77 77 77
-0.081310 -0.033680 -0.072783 -0.664113 -0.275094 -0.695151 77 77 77
-0.047630 0.000000 -0.099764 -0.403088 0.000000 -0.915159 77 77 77
-0.044005 -0.018227 -0.099764 -0.372387 -0.154241 -0.915159 77 77 77
-0.114990 -0.047630 0.015227 -0.919523 -0.380871 -0.096835 77 77 77
-0.081310 -0.081310 -0.032404 -0.655660 -0.655660 -0.374340 77 77 77
-0.062232 -0.062232 -0.072783 -0.508286 -0.508286 -0.695151 77 77 77
-0.033680 -0.033680 -0.099764 -0.285012 -0.285012 -0.915159 77 77 77
-0.088010 -0.088010 0.015227 -0.703757 -0.703757 -0.096835 77 77 77
-0.044005 -0.106237 -0.032404 -0.354839 -0.856685 -0.374340 77 77 77
-0.033680 -0.081310 -0.072783 -0.275094 -0.664113 -0.695151 77 77 77
-0.018227 -0.044005 -0.099764 -0.154241 -0.372387 -0.915159 77 77 77
-0.000000 -0.114990 -0.032404 0.000000 -0.927274 -0.374340 77 77 77
-0.000000 -0.124464 0.015227 0.000000 -0.995270 -0.096835 77 77 77
-0.000000 -0.088010 -0.072783 0.000000 -0.718833 -0.695151 77 77 77
-0.000000 -0.047630 -0.099764 0.000000 -0.403088 -0.915159 77 77 77
0.044005 -0.106237 -0.032404 0.354839 -0.856685 -0.374340 77 77 77
0.047630 -0.114990 0.015227 0.380871 -0.919523 -0.096835 77 77 77
0.033680 -0.081310 -0.072783 0.275094 -0.664113 -0.695151 77 77 77
0.018227 -0.044005 -0.099764 0.154241 -0.372387 -0.915159 77 77 77
0.081310 -0.081310 -0.032404 0.655660 -0.655660 -0.374340 77 77 77
0.062232 -0.062232 -0.072783 0.508286 -0.508286 -0.695151 77 77 77
0.033680 -0.033680 -0.099764 0.285012 -0.285012 -0.915159 77 77 77
0.088010 -0.088010 0.015227 0.703757 -0.703757 -0.096835 77 77 77
0.106237 -0.044005 -0.032404 0.856685 -0.354839 -0.374340 77 77 77
0.081310 -0.033680 -0.072783 0.664113 -0.275094 -0.695151 77 77 77
0.044005 -0.018227 -0.099764 0.372387 -0.154241 -0.915159 77 77 77
0.114990 -0.047630 0.015227 0.919523 -0.380871 -0.096835 77 77 77
0.114990 0.000000 -0.032404 0.927274 0.000000 -0.374340 77 77 77
0.088010 0.000000 -0.072783 0.718833 0.000000 -0.695151 77 77 77
0.047630 0.000000 -0.099764 0.403088 0.000000 -0.915159 77 77 77
0.124464 0.000000 0.015227 0.995270 0.000000 -0.096835 77 77 77
0.106237 0.044005 -0.032404 0.856685 0.354839 -0.374340 77 77 77
0.081310 0.033680 -0.072783 0.664113 0.275094 -0.695151 77 77 77
0.044005 0.018227 -0.099764 0.372387 0.154241 -0.915159 77 77 77
0.114990 0.047631 0.015227 0.919523 0.380871 -0.096835 77 77 77
0.081310 0.081310 -0.032404 0.655660 0.655660 -0.374340 77 77 77
0.062232 0.062232 -0.072783 0.508286 0.508286 -0.695151 77 77 77
0.033680 0.033680 -0.099764 0.285012 0.285012 -0.915159 77 77 77
0.088010 0.088010 0.015227 0.703757 0.703757 -0.096835 77 77 77
0.044005 0.106237 -0.032404 0.354839 0.856685 -0.374340 77 77 77
0.033680 0.081310 -0.072783 0.275094 0.664113 -0.695151 77 77 77
0.018227 0.044005 -0.099764 0.154241 0.372387 -0.915159 77 77 77
0.047630 0.114990 0.015227 0.380871 0.919523 -0.096835 77 77 77
0.047630 0.114990 0.164726 0.382672 0.923856 0.000000 77 77 77
0.088010 0.088010 0.164726 0.707083 0.707083 0.000000 77 77 77
-0.088010 0.088010 0.015227 -0.703757 0.703757 -0.096835 77 77 77
-0.114990 0.047630 0.015227 -0.919523 0.380871 -0.096835 77 77 77
-0.114990 0.047630 0.164726 -0.923856 0.382672 0.000000 77 77 77
-0.000000 0.114990 -0.032404 0.000000 0.927274 -0.374340 77 77 77
-0.000000 0.088010 -0.072783 0.000000 0.718833 -0.695151 77 77 77
-0.000000 0.047630 -0.099764 0.000000 0.403088 -0.915159 77 77 77
0.088010 -0.088010 0.164726 0.707083 -0.707083 0.000000 77 77 77
0.047630 -0.114990 0.164726 0.382672 -0.923856 0.000000 77 77 77
-0.000000 0.124464 0.015227 0.000000 0.995270 -0.096835 77 77 77
-0.000000 0.124464 0.164726 0.000000 1.000000 0.000000 77 77 77
-0.044005 0.106237 -0.032404 -0.354839 0.856685 -0.374340 77 77 77
-0.033680 0.081310 -0.072783 -0.275094 0.664113 -0.695151 77 77 77
-0.018227 0.044005 -0.099764 -0.154241 0.372387 -0.915159 77 77 77
-0.047631 0.114990 0.015227 -0.380871 0.919523 -0.096835 77 77 77
-0.047631 0.114990 0.164726 -0.382672 0.923856 0.000000 77 77 77
-0.088010 -0.088010 0.164726 -0.707083 -0.707083 0.000000 77 77 77
0.114990 -0.047630 0.164726 0.923856 -0.382672 0.000000 77 77 77
-0.081310 0.081310 -0.032404 -0.655660 0.655660 -0.374340 77 77 77
-0.062232 0.062232 -0.072783 -0.508286 0.508286 -0.695151 77 77 77
-0.033680 0.033680 -0.099764 -0.285012 0.285012 -0.915159 77 77 77
-0.047630 -0.114990 0.015227 -0.380871 -0.919523 -0.096835 77 77 77
-0.000000 -0.124464 0.164726 0.000000 -1.000000 0.000000 77 77 77
0.114990 0.047630 0.164726 0.923856 0.382672 0.000000 77 77 77
-0.088010 0.088010 0.164726 -0.707083 0.707083 0.000000 77 77 77
-0.106237 0.044005 -0.032404 -0.856685 0.354839 -0.374340 77 77 77
-0.081310 0.033680 -0.072783 -0.664113 0.275094 -0.695151 77 77 77
-0.044005 0.018227 -0.099764 -0.372387 0.154241 -0.915159 77 77 77
-0.000000 0.000000 -0.109238 0.000000 0.000000 -1.000000 77 77 77
-0.124464 -0.000000 0.164726 -0.999969 0.000000 0.000000 77 77 77
-0.114990 -0.047630 0.164726 -0.923856 -0.382672 0.000000 77 77 77
0.124464 0.000000 0.164726 0.999969 0.000000 0.000000 77 77 77
-0.047630 -0.114990 0.164726 -0.382672 -0.923856 0.000000 77 77 77
0.000000 -0.000000 0.164618 0.000000 0.000000 1.000000 77 77 77
-0.047630 -0.114990 0.164726 0.000305 0.000793 0.999969 77 77 77
-0.000000 -0.124464 0.164726 0.000000 0.000855 0.999969 77 77 77
-0.088010 -0.088010 0.164726 0.000610 0.000610 0.999969 77 77 77
-0.114990 -0.047630 0.164726 0.000793 0.000305 0.999969 77 77 77
-0.124464 -0.000000 0.164726 0.000855 0.000000 0.999969 77 77 77
-0.114990 0.047630 0.164726 0.000793 -0.000305 0.999969 77 77 77
-0.088010 0.088010 0.164726 0.000610 -0.000610 0.999969 77 77 77
-0.047631 0.114990 0.164726 0.000305 -0.000793 0.999969 77 77 77
-0.000000 0.124464 0.164726 0.000000 -0.000855 0.999969 77 77 77
0.047630 0.114990 0.164726 -0.000305 -0.000793 0.999969 77 77 77
0.088010 0.088010 0.164726 -0.000610 -0.000610 0.999969 77 77 77
0.114990 0.047630 0.164726 -0.000793 -0.000305 0.999969 77 77 77
0.124464 0.000000 0.164726 -0.000855 0.000000 0.999969 77 77 77
0.114990 -0.047630 0.164726 -0.000793 0.000305 0.999969 77 77 77
0.088010 -0.088010 0.164726 -0.000610 0.000610 0.999969 77 77 77
0.047630 -0.114990 0.164726 -0.000305 0.000793 0.999969 77 77 77
3 0 1 2
3 3 4 5
3 4 6 7
3 6 8 9
3 8 0 10
3 11 12 13
3 14 15 16
3 17 18 15
3 19 20 18
3 21 13 20
3 22 23 24
3 25 26 27
3 28 29 30
3 31 32 33
3 34 35 36
3 37 36 38
3 39 38 40
3 41 40 26
3 42 43 44
3 45 44 46
3 47 46 48
3 49 48 32
3 10 0 2
3 50 3 5
3 5 4 7
3 7 6 9
3 9 8 10
3 21 11 13
3 51 14 16
3 14 17 15
3 17 19 18
3 19 21 20
3 52 22 24
3 53 25 27
3 54 28 30
3 55 31 33
3 37 34 36
3 39 37 38
3 41 39 40
3 25 41 26
3 45 42 44
3 47 45 46
3 49 47 48
3 31 49 32
3 56 57 58
3 59 60 61
3 60 62 63
3 62 64 65
3 64 56 66
3 67 68 69
3 70 71 72
3 73 74 71
3 75 76 74
3 77 69 76
3 78 79 80
3 81 82 83
3 84 85 86
3 87 88 89
3 90 91 92
3 93 92 94
3 95 94 96
3 97 96 82
3 98 99 100
3 101 100 102
3 103 102 104
3 105 104 88
3 66 56 58
3 106 59 61
3 61 60 63
3 63 62 65
3 65 64 66
3 77 67 69
3 107 70 72
3 70 73 71
3 73 75 74
3 75 77 76
3 108 78 80
3 109 81 83
3 110 84 86
3 111 87 89
3 93 90 92
3 95 93 94
3 97 95 96
3 81 97 82
3 101 98 100
3 103 101 102
3 105 103 104
3 87 105 88
3 112 113 114
3 115 116 117
3 116 118 119
3 118 120 121
3 120 112 122
3 123 124 125
3 126 127 128
3 129 130 127
3 131 132 130
3 133 125 132
3 134 135 136
3 137 138 139
3 140 141 142
3 143 144 145
3 146 147 148
3 149 148 150
3 151 150 152
3 153 152 138
3 154 155 156
3 157 156 158
3 159 158 160
3 161 160 144
3 122 112 114
3 162 115 117
3 117 116 119
3 119 118 121
3 121 120 122
3 133 123 125
3 163 126 128
3 126 129 127
3 129 131 130
3 131 133 132
3 164 134 136
3 165 137 139
3 166 140 142
3 167 143 145
3 149 146 148
3 151 149 150
3 153 151 152
3 137 153 138
3 157 154 156
3 159 157 158
3 161 159 160
3 143 161 144
3 168 169 170
3 171 172 173
3 172 174 175
3 174 176 177
3 176 168 178
3 179 180 181
3 182 183 184
3 185 186 183
3 187 188 186
3 189 181 188
3 190 191 192
3 193 194 195
3 196 197 198
3 199 200 201
3 202 203 204
3 205 204 206
3 207 206 208
3 209 208 194
3 210 211 212
3 213 212 214
3 215 214 216
3 217 216 200
3 178 168 170
3 218 171 173
3 173 172 175
3 175 174 177
3 177 176 178
3 189 179 181
3 219 182 184
3 182 185 183
3 185 187 186
3 187 189 188
3 220 190 192
3 221 193 195
3 222 196 198
3 223 199 201
3 205 202 204
3 207 205 206
3 209 207 208
3 193 209 194
3 213 210 212
3 215 213 214
3 217 215 216
3 199 217 200
3 224 225 226
3 227 228 229
3 228 230 231
3 230 232 233
3 232 224 234
3 235 236 237
3 238 239 240
3 241 242 239
3 243 244 242
3 245 237 244
3 246 247 248
3 249 250 251
3 252 253 254
3 255 256 257
3 258 259 260
3 261 260 262
3 263 262 264
3 265 264 250
3 266 267 268
3 269 268 270
3 271 270 272
3 273 272 256
3 234 224 226
3 274 227 229
3 229 228 231
3 231 230 233
3 233 232 234
3 245 235 237
3 275 238 240
3 238 241 239
3 241 243 242
3 243 245 244
3 276 246 248
3 277 249 251
3 278 252 254
3 279 255 257
3 261 258 260
3 263 261 262
3 265 263 264
3 249 265 250
3 269 266 268
3 271 269 270
3 273 271 272
3 255 273 256
3 280 281 282
3 283 284 285
3 284 286 287
3 286 288 289
3 288 280 290
3 291 292 293
3 294 295 296
3 297 298 295
3 299 300 298
3 301 293 300
3 302 303 304
3 305 306 307
3 308 309 310
3 311 312 313
3 314 315 316
3 317 316 318
3 319 318 320
3 321 320 306
3 322 323 324
3 325 324 326
3 327 326 328
3 329 328 312
3 290 280 282
3 330 283 285
3 285 284 287
3 287 286 289
3 289 288 290
3 301 291 293
3 331 294 296
3 294 297 295
3 297 299 298
3 299 301 300
3 332 302 304
3 333 305 307
3 334 308 310
3 335 311 313
3 317 314 316
3 319 317 318
3 321 319 320
3 305 321 306
3 325 322 324
3 327 325 326
3 329 327 328
3 311 329 312
3 336 337 338
3 339 340 341
3 340 342 343
3 342 344 345
3 344 336 346
3 347 348 349
3 350 351 352
3 353 354 351
3 355 356 354
3 357 349 356
3 358 359 360
3 361 362 363
3 364 365 366
3 367 368 369
3 370 371 372
3 373 372 374
3 375 374 376
3 377 376 362
3 378 379 380
3 381 380 382
3 383 382 384
3 385 384 368
3 346 336 338
3 386 339 341
3 341 340 343
3 343 342 345
3 345 344 346
3 357 347 349
3 387 350 352
3 350 353 351
3 353 355 354
3 355 357 356
3 388 358 360
3 389 361 363
3 390 364 366
3 391 367 369
3 373 370 372
3 375 373 374
3 377 375 376
3 361 377 362
3 381 378 380
3 383 381 382
3 385 383 384
3 367 385 368
3 392 393 394
3 395 396 397
3 396 398 399
3 398 400 401
3 400 392 402
3 403 404 405
3 406 407 408
3 409 410 407
3 411 412 410
3 413 405 412
3 414 415 416
3 417 418 419
3 420 421 422
3 423 424 425
3 426 427 428
3 429 428 430
3 431 430 432
3 433 432 418
3 434 435 436
3 437 436 438
3 439 438 440
3 441 440 424
3 402 392 394
3 442 395 397
3 397 396 399
3 399 398 401
3 401 400 402
3 413 403 405
3 443 406 408
3 406 409 407
3 409 411 410
3 411 413 412
3 444 414 416
3 445 417 419
3 446 420 422
3 447 423 425
3 429 426 428
3 431 429 430
3 433 431 432
3 417 433 418
3 437 434 436
3 439 437 438
3 441 439 440
3 423 441 424
3 448 449 450
3 449 451 452
3 451 453 454
3 455 450 456
3 450 452 457
3 454 458 457
3 459 456 460
3 456 457 461
3 458 462 461
3 460 463 464
3 460 461 465
3 461 462 466
3 463 467 468
3 463 465 469
3 465 466 470
3 468 467 471
3 467 469 472
3 469 470 473
3 474 471 475
3 472 476 475
3 472 473 477
3 478 475 479
3 476 480 479
3 476 477 481
3 482 479 483
3 480 484 483
3 480 481 485
3 486 483 487
3 484 488 487
3 484 485 489
3 490 487 491
3 488 492 491
3 488 489 493
3 490 494 495
3 486 490 496
3 497 498 499
3 494 491 500
3 492 501 500
3 492 493 502
3 468 474 503
3 464 468 504
3 494 505 506
3 505 500 507
3 501 508 507
3 501 502 509
3 505 510 511
3 455 459 512
3 474 478 513
3 510 507 514
3 508 515 514
3 508 509 516
3 517 464 518
3 482 486 519
3 510 497 520
3 497 514 521
3 515 522 521
3 515 516 523
3 453 524 454
3 454 524 458
3 458 524 462
3 462 524 466
3 466 524 470
3 470 524 473
3 473 524 477
3 477 524 481
3 481 524 485
3 485 524 489
3 489 524 493
3 498 448 525
3 493 524 502
3 448 455 526
3 502 524 509
3 478 482 527
3 509 524 516
3 459 517 528
3 516 524 523
3 498 521 449
3 521 522 451
3 522 523 453
3 523 524 453
3 529 530 531
3 529 532 530
3 529 533 532
3 529 534 533
3 529 535 534
3 529 536 535
3 529 537 536
3 529 538 537
3 529 539 538
3 529 540 539
3 529 541 540
3 529 542 541
3 529 543 542
3 529 544 543
3 529 545 544
3 529 531 545
3 455 448 450
3 450 449 452
3 452 451 454
3 459 455 456
3 456 450 457
3 452 454 457
3 517 459 460
3 460 456 461
3 457 458 461
3 517 460 464
3 463 460 465
3 465 461 466
3 464 463 468
3 467 463 469
3 469 465 470
3 474 468 471
3 471 467 472
3 472 469 473
3 478 474 475
3 471 472 475
3 476 472 477
3 482 478 479
3 475 476 479
3 480 476 481
3 486 482 483
3 479 480 483
3 484 480 485
3 490 486 487
3 483 484 487
3 488 484 489
3 494 490 491
3 487 488 491
3 492 488 493
3 496 490 495
3 519 486 496
3 520 497 499
3 505 494 500
3 491 492 500
3 501 492 502
3 504 468 503
3 518 464 504
3 495 494 506
3 510 505 507
3 500 501 507
3 508 501 509
3 506 505 511
3 526 455 512
3 503 474 513
3 497 510 514
3 507 508 514
3 515 508 516
3 528 517 518
3 527 482 519
3 511 510 520
3 498 497 521
3 514 515 521
3 522 515 523
3 499 498 525
3 525 448 526
3 513 478 527
3 512 459 528
3 448 498 449
3 449 521 451
3 451 522 453
