ply
format ascii 1.0
comment Created by Blender 2.71 (sub 0) - www.blender.org, source file: 'Fan.blend'
element vertex 274
property float x
property float y
property float z
property uchar red
property uchar green
property uchar blue
element face 512
property list uchar uint vertex_indices
end_header
0.241832 -0.047070 0.040495 76 76 76
0.098316 -0.041306 0.038520 59 59 59
0.098316 0.047332 0.145684 59 59 59
0.815893 -0.065587 0.052426 64 64 64
0.672378 -0.061719 0.048885 67 67 67
0.672378 0.067745 0.135319 75 75 75
0.528863 -0.057319 0.045699 73 73 73
0.528863 0.063345 0.138505 75 75 75
0.385347 -0.052422 0.042895 77 77 77
0.385347 0.058449 0.141309 78 78 78
0.241832 0.053096 0.143708 85 85 85
0.098316 0.041146 0.151236 59 59 59
0.098316 -0.047492 0.044072 59 59 59
0.241832 -0.053036 0.046283 76 76 76
0.672378 0.063129 0.142232 75 75 75
0.672378 -0.066335 0.055798 67 67 67
0.815893 -0.069976 0.059485 64 64 64
0.528863 0.058276 0.145093 75 75 75
0.528863 -0.062387 0.052287 73 73 73
0.385347 0.052929 0.147525 78 78 78
0.385347 -0.057941 0.049111 77 77 77
0.241832 0.047130 0.149496 85 85 85
0.815893 0.071614 0.131778 74 74 74
0.815893 0.067225 0.138837 74 74 74
0.204284 0.137717 0.040495 76 76 76
0.098728 0.040313 0.038520 59 59 59
0.036051 0.102989 0.145684 59 59 59
0.623301 0.530547 0.052426 64 64 64
0.519085 0.431801 0.048885 67 67 67
0.427540 0.523346 0.135319 75 75 75
0.414493 0.333432 0.045699 73 73 73
0.329171 0.418754 0.138505 75 75 75
0.309550 0.235414 0.042895 77 77 77
0.231152 0.313811 0.141309 78 78 78
0.133456 0.208546 0.143708 85 85 85
0.040426 0.098615 0.151236 59 59 59
0.103102 0.035938 0.044072 59 59 59
0.208503 0.133498 0.046283 76 76 76
0.430804 0.520082 0.142232 75 75 75
0.522349 0.428537 0.055798 67 67 67
0.626404 0.527443 0.059485 64 64 64
0.332755 0.415170 0.145093 75 75 75
0.418077 0.329848 0.052287 73 73 73
0.235055 0.309908 0.147525 78 78 78
0.313452 0.231511 0.049111 77 77 77
0.137675 0.204327 0.149496 85 85 85
0.526285 0.627562 0.131778 74 74 74
0.529389 0.624459 0.138837 74 74 74
0.047070 0.241832 0.040495 76 76 76
0.041306 0.098316 0.038520 59 59 59
-0.047332 0.098316 0.145684 59 59 59
0.065587 0.815894 0.052426 64 64 64
0.061719 0.672378 0.048885 67 67 67
-0.067745 0.672378 0.135319 75 75 75
0.057319 0.528863 0.045699 73 73 73
-0.063345 0.528863 0.138505 75 75 75
0.052422 0.385347 0.042895 77 77 77
-0.058449 0.385347 0.141309 78 78 78
-0.053096 0.241832 0.143708 85 85 85
-0.041146 0.098316 0.151236 59 59 59
0.047492 0.098316 0.044072 59 59 59
0.053037 0.241832 0.046283 76 76 76
-0.063129 0.672378 0.142232 75 75 75
0.066335 0.672378 0.055798 67 67 67
0.069976 0.815894 0.059485 64 64 64
-0.058276 0.528863 0.145093 75 75 75
0.062387 0.528863 0.052287 73 73 73
-0.052929 0.385347 0.147525 78 78 78
0.057941 0.385347 0.049111 77 77 77
-0.047130 0.241832 0.149496 85 85 85
-0.071614 0.815894 0.131778 74 74 74
-0.067225 0.815894 0.138837 74 74 74
-0.137717 0.204284 0.040495 76 76 76
-0.040313 0.098728 0.038520 59 59 59
-0.102989 0.036051 0.145684 59 59 59
-0.530547 0.623301 0.052426 64 64 64
-0.431801 0.519085 0.048885 67 67 67
-0.523346 0.427540 0.135319 75 75 75
-0.333432 0.414493 0.045699 73 73 73
-0.418754 0.329171 0.138505 75 75 75
-0.235414 0.309550 0.042895 77 77 77
-0.313811 0.231152 0.141309 78 78 78
-0.208546 0.133456 0.143708 85 85 85
-0.098615 0.040426 0.151236 59 59 59
-0.035938 0.103102 0.044072 59 59 59
-0.133498 0.208503 0.046283 76 76 76
-0.520082 0.430804 0.142232 75 75 75
-0.428537 0.522349 0.055798 67 67 67
-0.527443 0.626405 0.059485 64 64 64
-0.415170 0.332755 0.145093 75 75 75
-0.329848 0.418077 0.052287 73 73 73
-0.309908 0.235055 0.147525 78 78 78
-0.231511 0.313452 0.049111 77 77 77
-0.204327 0.137675 0.149496 85 85 85
-0.627562 0.526286 0.131778 74 74 74
-0.624459 0.529389 0.138837 74 74 74
-0.241832 0.047070 0.040495 76 76 76
-0.098316 0.041306 0.038520 59 59 59
-0.098316 -0.047332 0.145684 59 59 59
-0.815894 0.065587 0.052426 64 64 64
-0.672378 0.061719 0.048885 67 67 67
-0.672378 -0.067745 0.135319 75 75 75
-0.528863 0.057319 0.045699 73 73 73
-0.528863 -0.063345 0.138505 75 75 75
-0.385347 0.052422 0.042895 77 77 77
-0.385347 -0.058449 0.141309 78 78 78
-0.241832 -0.053096 0.143708 85 85 85
-0.098316 -0.041146 0.151236 59 59 59
-0.098316 0.047492 0.044072 59 59 59
-0.241832 0.053037 0.046283 76 76 76
-0.672378 -0.063129 0.142232 75 75 75
-0.672378 0.066335 0.055798 67 67 67
-0.815894 0.069976 0.059485 64 64 64
-0.528863 -0.058276 0.145093 75 75 75
-0.528863 0.062388 0.052287 73 73 73
-0.385347 -0.052929 0.147525 78 78 78
-0.385347 0.057942 0.049111 77 77 77
-0.241832 -0.047130 0.149496 85 85 85
-0.815894 -0.071613 0.131778 74 74 74
-0.815894 -0.067225 0.138837 74 74 74
-0.204284 -0.137717 0.040495 76 76 76
-0.098728 -0.040313 0.038520 59 59 59
-0.036051 -0.102989 0.145684 59 59 59
-0.623301 -0.530547 0.052426 64 64 64
-0.519085 -0.431801 0.048885 67 67 67
-0.427540 -0.523346 0.135319 75 75 75
-0.414493 -0.333432 0.045699 73 73 73
-0.329171 -0.418754 0.138505 75 75 75
-0.309550 -0.235414 0.042895 77 77 77
-0.231152 -0.313811 0.141309 78 78 78
-0.133456 -0.208546 0.143708 85 85 85
-0.040426 -0.098615 0.151236 59 59 59
-0.103102 -0.035938 0.044072 59 59 59
-0.208504 -0.133498 0.046283 76 76 76
-0.430804 -0.520082 0.142232 75 75 75
-0.522349 -0.428537 0.055798 67 67 67
-0.626405 -0.527444 0.059485 64 64 64
-0.332755 -0.415170 0.145093 75 75 75
-0.418077 -0.329848 0.052287 73 73 73
-0.235055 -0.309908 0.147525 78 78 78
-0.313453 -0.231511 0.049111 77 77 77
-0.137675 -0.204327 0.149496 85 85 85
-0.526286 -0.627562 0.131778 74 74 74
-0.529389 -0.624459 0.138837 74 74 74
-0.047070 -0.241832 0.040495 76 76 76
-0.041306 -0.098316 0.038520 59 59 59
0.047332 -0.098316 0.145684 59 59 59
-0.065587 -0.815894 0.052426 64 64 64
-0.061719 -0.672378 0.048885 67 67 67
0.067745 -0.672378 0.135319 75 75 75
-0.057319 -0.528863 0.045699 73 73 73
0.063345 -0.528863 0.138505 75 75 75
-0.052422 -0.385347 0.042895 77 77 77
0.058449 -0.385347 0.141309 78 78 78
0.053096 -0.241832 0.143708 85 85 85
0.041146 -0.098316 0.151236 59 59 59
-0.047492 -0.098316 0.044072 59 59 59
-0.053037 -0.241832 0.046283 76 76 76
0.063129 -0.672378 0.142232 75 75 75
-0.066335 -0.672378 0.055798 67 67 67
-0.069976 -0.815894 0.059485 64 64 64
0.058276 -0.528863 0.145093 75 75 75
-0.062388 -0.528863 0.052287 73 73 73
0.052929 -0.385347 0.147525 78 78 78
-0.057942 -0.385347 0.049111 77 77 77
0.047130 -0.241832 0.149496 85 85 85
0.071613 -0.815894 0.131778 74 74 74
0.067225 -0.815894 0.138837 74 74 74
0.137718 -0.204285 0.040495 76 76 76
0.040313 -0.098728 0.038520 59 59 59
0.102989 -0.036051 0.145684 59 59 59
0.530547 -0.623301 0.052426 64 64 64
0.431801 -0.519085 0.048885 67 67 67
0.523347 -0.427540 0.135319 75 75 75
0.333432 -0.414493 0.045699 73 73 73
0.418754 -0.329171 0.138505 75 75 75
0.235414 -0.309550 0.042895 77 77 77
0.313811 -0.231152 0.141309 78 78 78
0.208546 -0.133456 0.143708 85 85 85
0.098615 -0.040426 0.151236 59 59 59
0.035938 -0.103102 0.044072 59 59 59
0.133498 -0.208504 0.046283 76 76 76
0.520083 -0.430804 0.142232 75 75 75
0.428537 -0.522350 0.055798 67 67 67
0.527444 -0.626405 0.059485 64 64 64
0.415170 -0.332755 0.145093 75 75 75
0.329848 -0.418077 0.052287 73 73 73
0.309908 -0.235055 0.147525 78 78 78
0.231511 -0.313453 0.049111 77 77 77
0.204327 -0.137675 0.149496 85 85 85
0.627563 -0.526286 0.131778 74 74 74
0.624459 -0.529389 0.138837 74 74 74
-0.124464 -0.000000 0.015227 77 77 77
-0.114990 0.000000 -0.032404 77 77 77
-0.106237 -0.044005 -0.032404 77 77 77
-0.088010 0.000000 -0.072783 77 77 77
-0.081310 -0.033680 -0.072783 77 77 77
-0.047630 0.000000 -0.099764 77 77 77
-0.044005 -0.018227 -0.099764 77 77 77
-0.114990 -0.047630 0.015227 77 77 77
-0.081310 -0.081310 -0.032404 77 77 77
-0.062232 -0.062232 -0.072783 77 77 77
-0.033680 -0.033680 -0.099764 77 77 77
-0.088010 -0.088010 0.015227 77 77 77
-0.044005 -0.106237 -0.032404 77 77 77
-0.033680 -0.081310 -0.072783 77 77 77
-0.018227 -0.044005 -0.099764 77 77 77
-0.000000 -0.114990 -0.032404 77 77 77
-0.000000 -0.124464 0.015227 77 77 77
-0.000000 -0.088010 -0.072783 77 77 77
-0.000000 -0.047630 -0.099764 77 77 77
0.044005 -0.106237 -0.032404 77 77 77
0.047630 -0.114990 0.015227 77 77 77
0.033680 -0.081310 -0.072783 77 77 77
0.018227 -0.044005 -0.099764 77 77 77
0.081310 -0.081310 -0.032404 77 77 77
0.062232 -0.062232 -0.072783 77 77 77
0.033680 -0.033680 -0.099764 77 77 77
0.088010 -0.088010 0.015227 77 77 77
0.106237 -0.044005 -0.032404 77 77 77
0.081310 -0.033680 -0.072783 77 77 77
0.044005 -0.018227 -0.099764 77 77 77
0.114990 -0.047630 0.015227 77 77 77
0.114990 0.000000 -0.032404 77 77 77
0.088010 0.000000 -0.072783 77 77 77
0.047630 0.000000 -0.099764 77 77 77
0.124464 0.000000 0.015227 77 77 77
0.106237 0.044005 -0.032404 77 77 77
0.081310 0.033680 -0.072783 77 77 77
0.044005 0.018227 -0.099764 77 77 77
0.114990 0.047631 0.015227 77 77 77
0.081310 0.081310 -0.032404 77 77 77
0.062232 0.062232 -0.072783 77 77 77
0.033680 0.033680 -0.099764 77 77 77
0.088010 0.088010 0.015227 77 77 77
0.044005 0.106237 -0.032404 77 77 77
0.033680 0.081310 -0.072783 77 77 77
0.018227 0.044005 -0.099764 77 77 77
0.047630 0.114990 0.015227 77 77 77
0.047630 0.114990 0.164726 77 77 77
0.088010 0.088010 0.164726 77 77 77
-0.088010 0.088010 0.015227 77 77 77
-0.114990 0.047630 0.015227 77 77 77
-0.114990 0.047630 0.164726 77 77 77
-0.000000 0.114990 -0.032404 77 77 77
-0.000000 0.088010 -0.072783 77 77 77
-0.000000 0.047630 -0.099764 77 77 77
0.088010 -0.088010 0.164726 77 77 77
0.047630 -0.114990 0.164726 77 77 77
-0.000000 0.124464 0.015227 77 77 77
-0.000000 0.124464 0.164726 77 77 77
-0.044005 0.106237 -0.032404 77 77 77
-0.033680 0.081310 -0.072783 77 77 77
-0.018227 0.044005 -0.099764 77 77 77
-0.047631 0.114990 0.015227 77 77 77
-0.047631 0.114990 0.164726 77 77 77
-0.088010 -0.088010 0.164726 77 77 77
0.114990 -0.047630 0.164726 77 77 77
-0.081310 0.081310 -0.032404 77 77 77
-0.062232 0.062232 -0.072783 77 77 77
-0.033680 0.033680 -0.099764 77 77 77
-0.047630 -0.114990 0.015227 77 77 77
-0.000000 -0.124464 0.164726 77 77 77
0.114990 0.047630 0.164726 77 77 77
-0.088010 0.088010 0.164726 77 77 77
-0.106237 0.044005 -0.032404 77 77 77
-0.081310 0.033680 -0.072783 77 77 77
-0.044005 0.018227 -0.099764 77 77 77
-0.000000 0.000000 -0.109238 77 77 77
-0.124464 -0.000000 0.164726 77 77 77
-0.114990 -0.047630 0.164726 77 77 77
0.124464 0.000000 0.164726 77 77 77
-0.047630 -0.114990 0.164726 77 77 77
0.000000 -0.000000 0.164618 77 77 77
3 0 1 2
3 3 4 5
3 4 6 7
3 6 8 9
3 8 0 10
3 11 12 13
3 14 15 16
3 17 18 15
3 19 20 18
3 21 13 20
3 3 22 23
3 0 13 12
3 2 1 12
3 5 14 23
3 3 16 15
3 4 15 18
3 6 18 20
3 8 20 13
3 2 11 21
3 10 21 19
3 9 19 17
3 7 17 14
3 10 0 2
3 22 3 5
3 5 4 7
3 7 6 9
3 9 8 10
3 21 11 13
3 23 14 16
3 14 17 15
3 17 19 18
3 19 21 20
3 16 3 23
3 1 0 12
3 11 2 12
3 22 5 23
3 4 3 15
3 6 4 18
3 8 6 20
3 0 8 13
3 10 2 21
3 9 10 19
3 7 9 17
3 5 7 14
3 24 25 26
3 27 28 29
3 28 30 31
3 30 32 33
3 32 24 34
3 35 36 37
3 38 39 40
3 41 42 39
3 43 44 42
3 45 37 44
3 27 46 47
3 24 37 36
3 26 25 36
3 29 38 47
3 27 40 39
3 28 39 42
3 30 42 44
3 32 44 37
3 26 35 45
3 34 45 43
3 33 43 41
3 31 41 38
3 34 24 26
3 46 27 29
3 29 28 31
3 31 30 33
3 33 32 34
3 45 35 37
3 47 38 40
3 38 41 39
3 41 43 42
3 43 45 44
3 40 27 47
3 25 24 36
3 35 26 36
3 46 29 47
3 28 27 39
3 30 28 42
3 32 30 44
3 24 32 37
3 34 26 45
3 33 34 43
3 31 33 41
3 29 31 38
3 48 49 50
3 51 52 53
3 52 54 55
3 54 56 57
3 56 48 58
3 59 60 61
3 62 63 64
3 65 66 63
3 67 68 66
3 69 61 68
3 51 70 71
3 48 61 60
3 50 49 60
3 53 62 71
3 51 64 63
3 52 63 66
3 54 66 68
3 56 68 61
3 50 59 69
3 58 69 67
3 57 67 65
3 55 65 62
3 58 48 50
3 70 51 53
3 53 52 55
3 55 54 57
3 57 56 58
3 69 59 61
3 71 62 64
3 62 65 63
3 65 67 66
3 67 69 68
3 64 51 71
3 49 48 60
3 59 50 60
3 70 53 71
3 52 51 63
3 54 52 66
3 56 54 68
3 48 56 61
3 58 50 69
3 57 58 67
3 55 57 65
3 53 55 62
3 72 73 74
3 75 76 77
3 76 78 79
3 78 80 81
3 80 72 82
3 83 84 85
3 86 87 88
3 89 90 87
3 91 92 90
3 93 85 92
3 75 94 95
3 72 85 84
3 74 73 84
3 77 86 95
3 75 88 87
3 76 87 90
3 78 90 92
3 80 92 85
3 74 83 93
3 82 93 91
3 81 91 89
3 79 89 86
3 82 72 74
3 94 75 77
3 77 76 79
3 79 78 81
3 81 80 82
3 93 83 85
3 95 86 88
3 86 89 87
3 89 91 90
3 91 93 92
3 88 75 95
3 73 72 84
3 83 74 84
3 94 77 95
3 76 75 87
3 78 76 90
3 80 78 92
3 72 80 85
3 82 74 93
3 81 82 91
3 79 81 89
3 77 79 86
3 96 97 98
3 99 100 101
3 100 102 103
3 102 104 105
3 104 96 106
3 107 108 109
3 110 111 112
3 113 114 111
3 115 116 114
3 117 109 116
3 99 118 119
3 96 109 108
3 98 97 108
3 101 110 119
3 99 112 111
3 100 111 114
3 102 114 116
3 104 116 109
3 98 107 117
3 106 117 115
3 105 115 113
3 103 113 110
3 106 96 98
3 118 99 101
3 101 100 103
3 103 102 105
3 105 104 106
3 117 107 109
3 119 110 112
3 110 113 111
3 113 115 114
3 115 117 116
3 112 99 119
3 97 96 108
3 107 98 108
3 118 101 119
3 100 99 111
3 102 100 114
3 104 102 116
3 96 104 109
3 106 98 117
3 105 106 115
3 103 105 113
3 101 103 110
3 120 121 122
3 123 124 125
3 124 126 127
3 126 128 129
3 128 120 130
3 131 132 133
3 134 135 136
3 137 138 135
3 139 140 138
3 141 133 140
3 123 142 143
3 120 133 132
3 122 121 132
3 125 134 143
3 123 136 135
3 124 135 138
3 126 138 140
3 128 140 133
3 122 131 141
3 130 141 139
3 129 139 137
3 127 137 134
3 130 120 122
3 142 123 125
3 125 124 127
3 127 126 129
3 129 128 130
3 141 131 133
3 143 134 136
3 134 137 135
3 137 139 138
3 139 141 140
3 136 123 143
3 121 120 132
3 131 122 132
3 142 125 143
3 124 123 135
3 126 124 138
3 128 126 140
3 120 128 133
3 130 122 141
3 129 130 139
3 127 129 137
3 125 127 134
3 144 145 146
3 147 148 149
3 148 150 151
3 150 152 153
3 152 144 154
3 155 156 157
3 158 159 160
3 161 162 159
3 163 164 162
3 165 157 164
3 147 166 167
3 144 157 156
3 146 145 156
3 149 158 167
3 147 160 159
3 148 159 162
3 150 162 164
3 152 164 157
3 146 155 165
3 154 165 163
3 153 163 161
3 151 161 158
3 154 144 146
3 166 147 149
3 149 148 151
3 151 150 153
3 153 152 154
3 165 155 157
3 167 158 160
3 158 161 159
3 161 163 162
3 163 165 164
3 160 147 167
3 145 144 156
3 155 146 156
3 166 149 167
3 148 147 159
3 150 148 162
3 152 150 164
3 144 152 157
3 154 146 165
3 153 154 163
3 151 153 161
3 149 151 158
3 168 169 170
3 171 172 173
3 172 174 175
3 174 176 177
3 176 168 178
3 179 180 181
3 182 183 184
3 185 186 183
3 187 188 186
3 189 181 188
3 171 190 191
3 168 181 180
3 170 169 180
3 173 182 191
3 171 184 183
3 172 183 186
3 174 186 188
3 176 188 181
3 170 179 189
3 178 189 187
3 177 187 185
3 175 185 182
3 178 168 170
3 190 171 173
3 173 172 175
3 175 174 177
3 177 176 178
3 189 179 181
3 191 182 184
3 182 185 183
3 185 187 186
3 187 189 188
3 184 171 191
3 169 168 180
3 179 170 180
3 190 173 191
3 172 171 183
3 174 172 186
3 176 174 188
3 168 176 181
3 178 170 189
3 177 178 187
3 175 177 185
3 173 175 182
3 192 193 194
3 193 195 196
3 195 197 198
3 199 194 200
3 194 196 201
3 198 202 201
3 203 200 204
3 200 201 205
3 202 206 205
3 204 207 208
3 204 205 209
3 205 206 210
3 207 211 212
3 207 209 213
3 209 210 214
3 212 211 215
3 211 213 216
3 213 214 217
3 218 215 219
3 216 220 219
3 216 217 221
3 222 219 223
3 220 224 223
3 220 221 225
3 226 223 227
3 224 228 227
3 224 225 229
3 230 227 231
3 228 232 231
3 228 229 233
3 234 231 235
3 232 236 235
3 232 233 237
3 234 238 239
3 230 234 240
3 241 242 243
3 238 235 244
3 236 245 244
3 236 237 246
3 212 218 247
3 208 212 248
3 238 249 250
3 249 244 251
3 245 252 251
3 245 246 253
3 249 254 255
3 199 203 256
3 218 222 257
3 254 251 258
3 252 259 258
3 252 253 260
3 261 208 262
3 226 230 263
3 254 241 264
3 241 258 265
3 259 266 265
3 259 260 267
3 197 268 198
3 198 268 202
3 202 268 206
3 206 268 210
3 210 268 214
3 214 268 217
3 217 268 221
3 221 268 225
3 225 268 229
3 229 268 233
3 233 268 237
3 242 192 269
3 237 268 246
3 192 199 270
3 246 268 253
3 222 226 271
3 253 268 260
3 203 261 272
3 260 268 267
3 242 265 193
3 265 266 195
3 266 267 197
3 267 268 197
3 273 272 262
3 273 256 272
3 273 270 256
3 273 269 270
3 273 243 269
3 273 264 243
3 273 255 264
3 273 250 255
3 273 239 250
3 273 240 239
3 273 263 240
3 273 271 263
3 273 257 271
3 273 247 257
3 273 248 247
3 273 262 248
3 199 192 194
3 194 193 196
3 196 195 198
3 203 199 200
3 200 194 201
3 196 198 201
3 261 203 204
3 204 200 205
3 201 202 205
3 261 204 208
3 207 204 209
3 209 205 210
3 208 207 212
3 211 207 213
3 213 209 214
3 218 212 215
3 215 211 216
3 216 213 217
3 222 218 219
3 215 216 219
3 220 216 221
3 226 222 223
3 219 220 223
3 224 220 225
3 230 226 227
3 223 224 227
3 228 224 229
3 234 230 231
3 227 228 231
3 232 228 233
3 238 234 235
3 231 232 235
3 236 232 237
3 240 234 239
3 263 230 240
3 264 241 243
3 249 238 244
3 235 236 244
3 245 236 246
3 248 212 247
3 262 208 248
3 239 238 250
3 254 249 251
3 244 245 251
3 252 245 253
3 250 249 255
3 270 199 256
3 247 218 257
3 241 254 258
3 251 252 258
3 259 252 260
3 272 261 262
3 271 226 263
3 255 254 264
3 242 241 265
3 258 259 265
3 266 259 267
3 243 242 269
3 269 192 270
3 257 222 271
3 256 203 272
3 192 242 193
3 193 265 195
3 195 266 197
