ply
format ascii 1.0
comment Created by Blender 2.72 (sub 0) - www.blender.org, source file: 'Rudder.blend'
element vertex 23
property float x
property float y
property float z
property uchar red
property uchar green
property uchar blue
element face 16
property list uchar uint vertex_indices
end_header
0.000000 1.745204 -0.376515 191 191 191
0.019741 1.745204 -0.004964 191 191 191
0.019741 0.000000 -0.004964 115 115 115
-0.015167 1.745204 -0.000000 191 191 191
-0.019741 1.745204 -0.004964 191 191 191
-0.019741 0.000000 -0.004964 149 149 149
0.000000 0.000000 -0.376515 124 124 124
0.019741 1.745204 -0.004964 232 232 232
0.000000 1.745204 -0.376515 232 232 232
0.015167 1.745204 -0.000000 232 232 232
0.015167 0.000000 -0.000000 116 116 116
0.015167 1.745204 -0.000000 191 191 191
-0.015167 0.000000 -0.000000 129 129 129
0.000000 0.000000 -0.376515 97 97 97
-0.015167 0.000000 -0.000000 150 150 150
-0.019741 0.000000 -0.004964 232 232 232
0.000000 0.000000 -0.376515 232 232 232
-0.015167 0.000000 -0.000000 232 232 232
0.019741 0.000000 -0.004964 232 232 232
0.015167 0.000000 -0.000000 232 232 232
-0.019741 1.745204 -0.004964 232 232 232
-0.015167 1.745204 -0.000000 232 232 232
0.015167 0.000000 -0.000000 139 139 139
3 0 1 2
3 3 4 5
3 4 0 6
3 7 8 9
3 2 1 10
3 1 11 10
3 11 3 12
3 13 0 2
3 14 3 5
3 5 4 6
3 15 16 17
3 16 18 19
3 16 19 17
3 8 20 21
3 8 21 9
3 22 11 12
