ply
format ascii 1.0
comment Created by Blender 2.71 (sub 0) - www.blender.org, source file: 'Rudder.blend'
element vertex 30
property float x
property float y
property float z
property float nx
property float ny
property float nz
property uchar red
property uchar green
property uchar blue
element face 16
property list uchar uint vertex_indices
end_header
0.000000 1.745204 -0.376515 0.998591 0.000000 -0.053057 191 191 191
0.019741 1.745204 -0.004964 0.998591 0.000000 -0.053057 191 191 191
0.019741 0.000000 -0.004964 0.998591 0.000000 -0.053057 115 115 115
-0.015167 1.745204 -0.000000 -0.735368 0.000000 0.677668 191 191 191
-0.019741 1.745204 -0.004964 -0.735368 0.000000 0.677668 191 191 191
-0.019741 0.000000 -0.004964 -0.735368 0.000000 0.677668 149 149 149
-0.019741 1.745204 -0.004964 -0.998591 0.000000 -0.053057 191 191 191
0.000000 1.745204 -0.376515 -0.998591 0.000000 -0.053057 191 191 191
0.000000 0.000000 -0.376515 -0.998591 0.000000 -0.053057 124 124 124
0.000000 0.000000 -0.376515 0.000000 -1.000000 -0.000000 232 232 232
0.015167 0.000000 -0.000000 0.000000 -1.000000 -0.000000 232 232 232
-0.015167 0.000000 -0.000000 0.000000 -1.000000 -0.000000 232 232 232
0.000000 1.745204 -0.376515 0.000000 1.000000 0.000000 232 232 232
-0.015167 1.745204 -0.000000 0.000000 1.000000 0.000000 232 232 232
0.015167 1.745204 -0.000000 0.000000 1.000000 0.000000 232 232 232
0.019741 1.745204 -0.004964 0.735368 0.000000 0.677668 191 191 191
0.015167 1.745204 -0.000000 0.735368 0.000000 0.677668 191 191 191
0.015167 0.000000 -0.000000 0.735368 0.000000 0.677668 116 116 116
0.015167 1.745204 -0.000000 0.000000 -0.000000 1.000000 191 191 191
-0.015167 1.745204 -0.000000 0.000000 -0.000000 1.000000 191 191 191
-0.015167 0.000000 -0.000000 0.000000 -0.000000 1.000000 129 129 129
0.000000 0.000000 -0.376515 0.998591 0.000000 -0.053057 97 97 97
-0.015167 0.000000 -0.000000 -0.735368 -0.000000 0.677668 150 150 150
-0.019741 0.000000 -0.004964 -0.998591 -0.000000 -0.053057 149 149 149
-0.019741 0.000000 -0.004964 0.000000 -1.000000 0.000000 232 232 232
0.019741 0.000000 -0.004964 0.000000 -1.000000 -0.000000 232 232 232
0.019741 1.745204 -0.004964 0.000000 1.000000 -0.000000 232 232 232
-0.019741 1.745204 -0.004964 0.000000 1.000000 0.000000 232 232 232
0.019741 0.000000 -0.004964 0.735368 0.000000 0.677668 115 115 115
0.015167 0.000000 -0.000000 -0.000000 0.000000 1.000000 139 139 139
3 0 1 2
3 3 4 5
3 6 7 8
3 9 10 11
3 12 13 14
3 15 16 17
3 18 19 20
3 21 0 2
3 22 3 5
3 23 6 8
3 11 24 9
3 9 25 10
3 14 26 12
3 12 27 13
3 28 15 17
3 29 18 20
