ply
format ascii 1.0
comment Created by Blender 2.71 (sub 0) - www.blender.org, source file: 'Searchlight.blend'
element vertex 484
property float x
property float y
property float z
property float nx
property float ny
property float nz
property uchar red
property uchar green
property uchar blue
element face 472
property list uchar uint vertex_indices
end_header
-0.268594 0.370044 0.000000 -1.000000 0.000000 0.000000 26 26 26
-0.268594 0.370044 -0.016212 -0.999969 0.000000 0.000000 26 26 26
-0.268594 0.353832 0.000000 -0.999969 0.000000 0.000000 26 26 26
0.268594 0.370044 0.000000 1.000000 0.000000 0.000000 26 26 26
0.268594 0.353832 0.000000 0.999969 0.000000 0.000000 26 26 26
0.268594 0.370044 -0.016212 0.999969 0.000000 0.000000 26 26 26
-0.268594 0.370044 -0.016212 0.000000 0.000000 -1.000000 26 26 26
0.268594 0.370044 -0.016212 0.000000 0.000000 -1.000000 26 26 26
0.268594 0.353832 0.000000 0.000000 -0.707083 -0.707083 26 26 26
-0.268594 0.370044 0.016212 -0.999969 0.000000 0.000000 26 26 26
0.268594 0.370044 0.016212 0.999969 0.000000 0.000000 26 26 26
0.268594 0.353832 0.000000 0.000000 -0.707083 0.707083 26 26 26
0.268594 0.370044 0.016212 0.000000 0.000000 1.000000 26 26 26
-0.268594 0.370044 0.016212 0.000000 0.000000 1.000000 26 26 26
-0.268594 0.386256 -0.000000 -0.999969 0.000000 0.000000 26 26 26
0.268594 0.386256 -0.000000 0.999969 0.000000 0.000000 26 26 26
0.268594 0.386256 -0.000000 0.000000 0.707083 0.707083 26 26 26
-0.268594 0.386256 -0.000000 0.000000 0.707083 0.707083 26 26 26
-0.268594 0.386256 -0.000000 0.000000 0.707083 -0.707083 26 26 26
0.268594 0.386256 -0.000000 0.000000 0.707083 -0.707083 26 26 26
0.002612 0.079005 0.019531 -0.999725 -0.023103 0.000000 41 41 41
0.002612 0.079005 -0.019531 -0.999725 -0.023103 0.000000 41 41 41
0.003264 0.050803 -0.019531 -0.763848 -0.645375 0.000000 41 41 41
0.248442 0.333608 -0.023409 0.001801 0.009095 -0.999939 51 51 51
0.247206 0.401151 -0.022768 0.000183 0.009491 -0.999939 51 51 51
0.287987 0.400329 -0.022768 0.000793 0.009125 -0.999939 51 51 51
0.247206 0.401151 0.022768 0.020142 0.999786 0.000000 56 56 56
0.287987 0.400329 0.022768 0.020142 0.999786 0.000000 56 56 56
0.287987 0.400329 -0.022768 0.020142 0.999786 0.000000 56 56 56
0.020073 0.081536 0.027255 -0.183630 -0.021393 0.982757 41 41 41
0.002612 0.079005 0.019531 -0.403394 -0.009308 0.914975 41 41 41
0.003264 0.050803 0.019531 -0.323710 -0.060244 0.944212 41 41 41
0.289850 0.323875 0.023409 0.996857 -0.078829 0.000000 41 41 41
0.289850 0.323875 -0.023409 0.996857 -0.078829 0.000000 41 41 41
0.287987 0.400329 -0.022768 0.999695 0.024354 0.000000 41 41 41
0.020073 0.081536 -0.027255 -0.189062 0.981964 0.000000 41 41 41
0.002612 0.079005 -0.019531 -0.143468 0.989654 0.000000 41 41 41
0.002612 0.079005 0.019531 -0.143468 0.989654 0.000000 41 41 41
0.020073 0.081536 -0.027255 -0.183630 -0.021393 -0.982757 41 41 41
0.031210 0.042156 -0.027255 -0.109928 -0.031068 -0.993439 41 41 41
0.003264 0.050803 -0.019531 -0.323710 -0.060244 -0.944212 41 41 41
0.020073 0.081536 -0.027255 -0.183630 -0.021393 -0.982757 51 51 51
0.076726 0.094475 -0.026614 0.008789 0.007752 -0.999908 51 51 51
0.103542 0.062822 -0.026614 0.008209 0.006165 -0.999939 51 51 51
0.129226 0.121285 -0.025973 0.007233 0.008301 -0.999939 51 51 51
0.160420 0.093093 -0.025973 0.007080 0.007477 -0.999939 51 51 51
0.174813 0.160626 -0.025332 0.005799 0.008698 -0.999939 51 51 51
0.209791 0.136333 -0.025332 0.005860 0.008057 -0.999939 51 51 51
0.211092 0.210673 -0.024691 0.004547 0.008972 -0.999939 51 51 51
0.249224 0.190472 -0.024691 0.004730 0.008515 -0.999939 51 51 51
0.236113 0.269187 -0.024050 0.003357 0.009033 -0.999939 51 51 51
0.276832 0.252770 -0.024050 0.003693 0.008667 -0.999939 51 51 51
0.289850 0.323875 -0.023409 0.002350 0.008789 -0.999939 51 51 51
0.248442 0.333608 0.023409 0.001801 0.009095 0.999939 48 48 48
0.289850 0.323875 0.023409 0.002350 0.008789 0.999939 48 48 48
0.287987 0.400329 0.022768 0.000793 0.009125 0.999939 48 48 48
0.236113 0.269187 0.024050 0.003357 0.009033 0.999939 48 48 48
0.276832 0.252770 0.024050 0.003693 0.008667 0.999939 48 48 48
0.211092 0.210673 0.024691 0.004547 0.008972 0.999939 48 48 48
0.249223 0.190472 0.024691 0.004730 0.008515 0.999939 48 48 48
0.174813 0.160626 0.025332 0.005799 0.008698 0.999939 48 48 48
0.209791 0.136333 0.025332 0.005860 0.008057 0.999939 48 48 48
0.129226 0.121285 0.025973 0.007233 0.008301 0.999939 48 48 48
0.160420 0.093093 0.025973 0.007080 0.007477 0.999939 48 48 48
0.076726 0.094475 0.026614 0.008789 0.007752 0.999908 48 48 48
0.103542 0.062822 0.026614 0.008209 0.006165 0.999939 48 48 48
0.020073 0.081536 0.027255 -0.183630 -0.021393 0.982757 48 48 48
0.031210 0.042156 0.027255 -0.109928 -0.031068 0.993439 48 48 48
0.003264 0.050803 0.019531 -0.763848 -0.645375 0.000000 41 41 41
0.031210 0.042156 -0.027255 -0.295572 -0.955290 0.000000 41 41 41
0.031210 0.042156 0.027255 0.274697 -0.961516 0.000000 41 41 41
0.031210 0.042156 -0.027255 0.274697 -0.961516 0.000000 41 41 41
0.103542 0.062822 -0.026614 0.373760 -0.927519 0.000000 41 41 41
0.103542 0.062822 0.026614 0.373760 -0.927519 0.000000 41 41 41
0.160420 0.093093 -0.025973 0.567492 -0.823359 0.000000 41 41 41
0.209791 0.136333 -0.025332 0.737663 -0.675161 0.000000 41 41 41
0.209791 0.136333 0.025332 0.737663 -0.675161 0.000000 41 41 41
0.249224 0.190472 -0.024691 0.865810 -0.500320 0.000000 41 41 41
0.249223 0.190472 0.024691 0.865810 -0.500320 0.000000 41 41 41
0.276832 0.252770 -0.024050 0.955382 -0.295328 0.000000 41 41 41
0.276832 0.252770 0.024050 0.955382 -0.295328 0.000000 41 41 41
0.247206 0.401151 0.022768 -0.999817 -0.018281 0.000000 41 41 41
0.247206 0.401151 -0.022768 -0.999817 -0.018281 0.000000 41 41 41
0.248442 0.333608 -0.023409 -0.996277 0.085910 0.000000 41 41 41
0.236113 0.269187 -0.024050 -0.956114 0.292886 0.000000 41 41 41
0.236113 0.269187 0.024050 -0.956114 0.292886 0.000000 41 41 41
0.211092 0.210673 -0.024691 -0.869594 0.493728 0.000000 41 41 41
0.211092 0.210673 0.024691 -0.869594 0.493728 0.000000 41 41 41
0.174813 0.160626 -0.025332 -0.735893 0.677084 0.000000 41 41 41
0.174813 0.160626 0.025332 -0.735893 0.677084 0.000000 41 41 41
0.129226 0.121285 -0.025973 -0.557360 0.830226 0.000000 41 41 41
0.129226 0.121285 0.025973 -0.557360 0.830226 0.000000 41 41 41
0.076726 0.094475 -0.026614 -0.340495 0.940214 0.000000 41 41 41
0.076726 0.094475 0.026614 -0.340495 0.940214 0.000000 41 41 41
-0.002612 0.079005 0.019531 0.999725 -0.023103 0.000000 41 41 41
-0.003264 0.050803 0.019531 0.763848 -0.645375 0.000000 41 41 41
-0.003264 0.050803 -0.019531 0.763848 -0.645375 0.000000 41 41 41
-0.248442 0.333608 -0.023409 -0.001801 0.009095 -0.999939 51 51 51
-0.289850 0.323875 -0.023409 -0.002350 0.008789 -0.999939 51 51 51
-0.287987 0.400329 -0.022768 -0.000793 0.009125 -0.999939 51 51 51
-0.287987 0.400329 -0.022768 -0.020142 0.999786 0.000000 56 56 56
-0.287987 0.400329 0.022768 -0.020142 0.999786 0.000000 56 56 56
-0.247206 0.401151 0.022768 -0.020142 0.999786 0.000000 56 56 56
-0.020073 0.081536 0.027255 0.183630 -0.021393 0.982757 41 41 41
-0.031210 0.042156 0.027255 0.109928 -0.031068 0.993439 41 41 41
-0.003264 0.050803 0.019531 0.323710 -0.060244 0.944212 41 41 41
-0.289850 0.323875 0.023409 -0.996857 -0.078829 0.000000 41 41 41
-0.287987 0.400329 0.022768 -0.999695 0.024354 0.000000 41 41 41
-0.287987 0.400329 -0.022768 -0.999695 0.024354 0.000000 41 41 41
-0.002612 0.079005 0.019531 0.143468 0.989654 0.000000 41 41 41
-0.002612 0.079005 -0.019531 0.143468 0.989654 0.000000 41 41 41
-0.020073 0.081536 -0.027255 0.189062 0.981964 0.000000 41 41 41
-0.003264 0.050803 -0.019531 0.323710 -0.060244 -0.944212 41 41 41
-0.031210 0.042156 -0.027255 0.109928 -0.031068 -0.993439 41 41 41
-0.020073 0.081536 -0.027255 0.183630 -0.021393 -0.982757 41 41 41
-0.020073 0.081536 -0.027255 0.183630 -0.021393 -0.982757 51 51 51
-0.031210 0.042156 -0.027255 0.109928 -0.031068 -0.993439 51 51 51
-0.103542 0.062822 -0.026614 -0.008209 0.006165 -0.999939 51 51 51
-0.076726 0.094475 -0.026614 -0.008789 0.007752 -0.999908 51 51 51
-0.160420 0.093093 -0.025973 -0.007080 0.007477 -0.999939 51 51 51
-0.129226 0.121285 -0.025973 -0.007233 0.008301 -0.999939 51 51 51
-0.209791 0.136333 -0.025332 -0.005860 0.008057 -0.999939 51 51 51
-0.174814 0.160626 -0.025332 -0.005799 0.008698 -0.999939 51 51 51
-0.249224 0.190472 -0.024691 -0.004730 0.008515 -0.999939 51 51 51
-0.211092 0.210673 -0.024691 -0.004547 0.008972 -0.999939 51 51 51
-0.276832 0.252770 -0.024050 -0.003693 0.008667 -0.999939 51 51 51
-0.236113 0.269187 -0.024050 -0.003357 0.009033 -0.999939 51 51 51
-0.287987 0.400329 0.022768 -0.000793 0.009125 0.999939 48 48 48
-0.289850 0.323875 0.023409 -0.002350 0.008789 0.999939 48 48 48
-0.248442 0.333608 0.023409 -0.001801 0.009095 0.999939 48 48 48
-0.276832 0.252770 0.024050 -0.003693 0.008667 0.999939 48 48 48
-0.236113 0.269187 0.024050 -0.003357 0.009033 0.999939 48 48 48
-0.249224 0.190472 0.024691 -0.004730 0.008515 0.999939 48 48 48
-0.211092 0.210673 0.024691 -0.004547 0.008972 0.999939 48 48 48
-0.209791 0.136333 0.025332 -0.005860 0.008057 0.999939 48 48 48
-0.174814 0.160626 0.025332 -0.005799 0.008698 0.999939 48 48 48
-0.160420 0.093093 0.025973 -0.007080 0.007477 0.999939 48 48 48
-0.129226 0.121285 0.025973 -0.007233 0.008301 0.999939 48 48 48
-0.103542 0.062822 0.026614 -0.008209 0.006165 0.999939 48 48 48
-0.076726 0.094475 0.026614 -0.008789 0.007752 0.999908 48 48 48
-0.031210 0.042156 0.027255 0.109928 -0.031068 0.993439 48 48 48
-0.020073 0.081536 0.027255 0.183630 -0.021393 0.982757 48 48 48
-0.031210 0.042156 0.027255 0.295572 -0.955290 0.000000 41 41 41
-0.031210 0.042156 -0.027255 0.295572 -0.955290 0.000000 41 41 41
-0.031210 0.042156 0.027255 -0.274697 -0.961516 0.000000 41 41 41
-0.103542 0.062822 0.026614 -0.373760 -0.927519 0.000000 41 41 41
-0.103542 0.062822 -0.026614 -0.373760 -0.927519 0.000000 41 41 41
-0.160420 0.093093 0.025973 -0.567492 -0.823359 0.000000 41 41 41
-0.160420 0.093093 -0.025973 -0.567492 -0.823359 0.000000 41 41 41
-0.209791 0.136333 0.025332 -0.737663 -0.675161 0.000000 41 41 41
-0.209791 0.136333 -0.025332 -0.737663 -0.675161 0.000000 41 41 41
-0.249224 0.190472 0.024691 -0.865810 -0.500320 0.000000 41 41 41
-0.249224 0.190472 -0.024691 -0.865810 -0.500320 0.000000 41 41 41
-0.276832 0.252770 0.024050 -0.955382 -0.295328 0.000000 41 41 41
-0.276832 0.252770 -0.024050 -0.955382 -0.295328 0.000000 41 41 41
-0.289850 0.323875 -0.023409 -0.996857 -0.078829 0.000000 41 41 41
-0.247206 0.401151 0.022768 0.999817 -0.018281 0.000000 41 41 41
-0.248442 0.333608 0.023409 0.996277 0.085910 0.000000 41 41 41
-0.248442 0.333608 -0.023409 0.996277 0.085910 0.000000 41 41 41
-0.236113 0.269187 0.024050 0.956114 0.292886 0.000000 41 41 41
-0.236113 0.269187 -0.024050 0.956114 0.292886 0.000000 41 41 41
-0.211092 0.210673 0.024691 0.869594 0.493728 0.000000 41 41 41
-0.211092 0.210673 -0.024691 0.869594 0.493728 0.000000 41 41 41
-0.174814 0.160626 0.025332 0.735893 0.677084 0.000000 41 41 41
-0.174814 0.160626 -0.025332 0.735893 0.677084 0.000000 41 41 41
-0.129226 0.121285 0.025973 0.557360 0.830226 0.000000 41 41 41
-0.129226 0.121285 -0.025973 0.557360 0.830226 0.000000 41 41 41
-0.076726 0.094475 0.026614 0.340495 0.940214 0.000000 41 41 41
-0.076726 0.094475 -0.026614 0.340495 0.940214 0.000000 41 41 41
-0.020073 0.081536 0.027255 0.189062 0.981964 0.000000 41 41 41
-0.000000 -0.000000 0.000000 0.000000 -1.000000 0.000000 31 31 31
-0.000000 -0.000000 -0.121499 0.000000 -1.000000 0.000000 31 31 31
0.046496 -0.000000 -0.112251 0.000000 -1.000000 0.000000 31 31 31
-0.000000 0.058805 0.000000 0.000000 1.000000 0.000000 38 38 38
0.046496 0.058805 -0.112251 0.000000 1.000000 0.000000 38 38 38
-0.000000 0.058805 -0.121499 0.000000 1.000000 0.000000 38 38 38
-0.000000 -0.000000 -0.121499 0.000000 0.000000 -1.000000 31 31 31
-0.000000 0.058805 -0.121499 0.000000 0.000000 -1.000000 31 31 31
0.046496 0.058805 -0.112251 0.382672 0.000000 -0.923856 31 31 31
0.085913 -0.000000 -0.085913 0.000000 -1.000000 0.000000 31 31 31
0.085913 0.058805 -0.085913 0.000000 1.000000 0.000000 38 38 38
0.046496 -0.000000 -0.112251 0.382672 0.000000 -0.923856 31 31 31
0.085913 0.058805 -0.085913 0.707083 0.000000 -0.707083 31 31 31
0.112251 -0.000000 -0.046496 0.000000 -1.000000 0.000000 31 31 31
0.112251 0.058805 -0.046496 0.000000 1.000000 0.000000 38 38 38
0.085913 -0.000000 -0.085913 0.707083 0.000000 -0.707083 31 31 31
0.112251 0.058805 -0.046496 0.923856 0.000000 -0.382672 31 31 31
0.121499 -0.000000 0.000000 0.000000 -1.000000 0.000000 31 31 31
0.121499 0.058805 0.000000 0.000000 1.000000 0.000000 38 38 38
0.112251 -0.000000 -0.046496 0.923856 0.000000 -0.382672 31 31 31
0.121499 0.058805 0.000000 1.000000 0.000000 0.000000 31 31 31
0.112251 -0.000000 0.046496 0.000000 -1.000000 0.000000 31 31 31
0.112251 0.058805 0.046496 0.000000 1.000000 0.000000 38 38 38
0.121499 -0.000000 0.000000 1.000000 0.000000 0.000000 31 31 31
0.112251 0.058805 0.046496 0.923856 0.000000 0.382672 31 31 31
0.085913 -0.000000 0.085913 0.000000 -1.000000 0.000000 31 31 31
0.085913 0.058805 0.085913 0.000000 1.000000 0.000000 38 38 38
0.112251 -0.000000 0.046496 0.923856 0.000000 0.382672 31 31 31
0.085913 0.058805 0.085913 0.707083 0.000000 0.707083 31 31 31
0.046496 -0.000000 0.112251 0.000000 -1.000000 0.000000 31 31 31
0.046496 0.058805 0.112251 0.000000 1.000000 0.000000 38 38 38
0.085913 -0.000000 0.085913 0.707083 0.000000 0.707083 31 31 31
0.046496 0.058805 0.112251 0.382672 0.000000 0.923856 31 31 31
0.000000 -0.000000 0.121499 0.000000 -1.000000 0.000000 31 31 31
0.000000 0.058805 0.121499 0.000000 1.000000 0.000000 38 38 38
0.046496 -0.000000 0.112251 0.382672 0.000000 0.923856 31 31 31
0.000000 0.058805 0.121499 0.000000 0.000000 1.000000 31 31 31
-0.046496 -0.000000 0.112251 0.000000 -1.000000 0.000000 31 31 31
-0.046496 0.058805 0.112251 0.000000 1.000000 0.000000 38 38 38
0.000000 -0.000000 0.121499 0.000000 0.000000 0.999969 31 31 31
-0.046496 0.058805 0.112251 -0.382672 0.000000 0.923856 31 31 31
-0.085913 -0.000000 0.085913 0.000000 -1.000000 0.000000 31 31 31
-0.085913 0.058805 0.085913 0.000000 1.000000 0.000000 38 38 38
-0.046496 -0.000000 0.112251 -0.382672 0.000000 0.923856 31 31 31
-0.085913 0.058805 0.085913 -0.707083 0.000000 0.707083 31 31 31
-0.112251 -0.000000 0.046496 0.000000 -1.000000 0.000000 31 31 31
-0.112251 0.058805 0.046496 0.000000 1.000000 0.000000 38 38 38
-0.085913 -0.000000 0.085913 -0.707083 0.000000 0.707083 31 31 31
-0.112251 0.058805 0.046496 -0.923856 0.000000 0.382672 31 31 31
-0.121499 -0.000000 -0.000000 0.000000 -1.000000 0.000000 31 31 31
-0.121499 0.058805 -0.000000 0.000000 1.000000 0.000000 38 38 38
-0.112251 -0.000000 0.046496 -0.923856 0.000000 0.382672 31 31 31
-0.121499 0.058805 -0.000000 -1.000000 0.000000 0.000000 31 31 31
-0.112251 -0.000000 -0.046496 0.000000 -1.000000 0.000000 31 31 31
-0.112251 0.058805 -0.046496 0.000000 1.000000 0.000000 38 38 38
-0.121499 -0.000000 -0.000000 -1.000000 0.000000 0.000000 31 31 31
-0.112251 0.058805 -0.046496 -0.923856 0.000000 -0.382672 31 31 31
-0.085913 -0.000000 -0.085913 0.000000 -1.000000 0.000000 31 31 31
-0.085913 0.058805 -0.085913 0.000000 1.000000 0.000000 38 38 38
-0.112251 -0.000000 -0.046496 -0.923856 0.000000 -0.382672 31 31 31
-0.085913 0.058805 -0.085913 -0.707083 0.000000 -0.707083 31 31 31
-0.046496 -0.000000 -0.112251 0.000000 -1.000000 0.000000 31 31 31
-0.046496 0.058805 -0.112251 0.000000 1.000000 0.000000 38 38 38
-0.085913 -0.000000 -0.085913 -0.707083 0.000000 -0.707083 31 31 31
-0.046496 0.058805 -0.112251 -0.382672 0.000000 -0.923856 31 31 31
-0.046496 -0.000000 -0.112251 -0.382672 0.000000 -0.923856 31 31 31
-0.000000 0.047813 -0.000000 0.000000 -1.000000 0.000000 31 31 31
-0.000000 0.047813 -0.045136 0.000000 -1.000000 0.000000 31 31 31
0.017273 0.047813 -0.041700 0.000000 -1.000000 0.000000 31 31 31
-0.000000 0.094648 -0.000000 0.000000 1.000000 0.000000 38 38 38
0.017273 0.094648 -0.041700 0.000000 1.000000 0.000000 38 38 38
-0.000000 0.094648 -0.045136 0.000000 1.000000 0.000000 38 38 38
-0.000000 0.047813 -0.045136 0.000000 0.000000 -1.000000 31 31 31
-0.000000 0.094648 -0.045136 0.000000 0.000000 -1.000000 31 31 31
0.017273 0.094648 -0.041700 0.382672 0.000000 -0.923856 31 31 31
0.031916 0.047813 -0.031916 0.000000 -1.000000 0.000000 31 31 31
0.031916 0.094648 -0.031916 0.000000 1.000000 0.000000 38 38 38
0.017273 0.047813 -0.041700 0.382672 0.000000 -0.923856 31 31 31
0.031916 0.094648 -0.031916 0.707083 0.000000 -0.707083 31 31 31
0.041700 0.047813 -0.017273 0.000000 -1.000000 0.000000 31 31 31
0.041700 0.094648 -0.017273 0.000000 1.000000 0.000000 38 38 38
0.031916 0.047813 -0.031916 0.707083 0.000000 -0.707083 31 31 31
0.041700 0.094648 -0.017273 0.923856 0.000000 -0.382672 31 31 31
0.045136 0.047813 0.000000 0.000000 -1.000000 0.000000 31 31 31
0.045136 0.094648 0.000000 0.000000 1.000000 0.000000 38 38 38
0.041700 0.047813 -0.017273 0.923856 0.000000 -0.382672 31 31 31
0.045136 0.094648 0.000000 1.000000 0.000000 0.000000 31 31 31
0.041700 0.047813 0.017273 0.000000 -1.000000 0.000000 31 31 31
0.041700 0.094648 0.017273 0.000000 1.000000 0.000000 38 38 38
0.045136 0.047813 0.000000 1.000000 0.000000 0.000000 31 31 31
0.041700 0.094648 0.017273 0.923856 0.000000 0.382672 31 31 31
0.031916 0.047813 0.031916 0.000000 -1.000000 0.000000 31 31 31
0.031916 0.094648 0.031916 0.000000 1.000000 0.000000 38 38 38
0.041700 0.047813 0.017273 0.923856 0.000000 0.382672 31 31 31
0.031916 0.094648 0.031916 0.707083 0.000000 0.707083 31 31 31
0.017273 0.047813 0.041700 0.000000 -1.000000 0.000000 31 31 31
0.017273 0.094648 0.041700 0.000000 1.000000 0.000000 38 38 38
0.031916 0.047813 0.031916 0.707083 0.000000 0.707083 31 31 31
0.017273 0.094648 0.041700 0.382672 0.000000 0.923856 31 31 31
0.000000 0.047813 0.045136 0.000000 -1.000000 0.000000 31 31 31
0.000000 0.094648 0.045136 0.000000 1.000000 0.000000 38 38 38
0.017273 0.047813 0.041700 0.382672 0.000000 0.923856 31 31 31
0.000000 0.094648 0.045136 0.000000 0.000000 0.999969 31 31 31
-0.017273 0.047813 0.041700 0.000000 -1.000000 0.000000 31 31 31
-0.017273 0.094648 0.041700 0.000000 1.000000 0.000000 38 38 38
0.000000 0.047813 0.045136 0.000000 0.000000 0.999969 31 31 31
-0.017273 0.094648 0.041700 -0.382672 0.000000 0.923856 31 31 31
-0.031916 0.047813 0.031916 0.000000 -1.000000 0.000000 31 31 31
-0.031916 0.094648 0.031916 0.000000 1.000000 0.000000 38 38 38
-0.017273 0.047813 0.041700 -0.382672 0.000000 0.923856 31 31 31
-0.031916 0.094648 0.031916 -0.707083 0.000000 0.707083 31 31 31
-0.041700 0.047813 0.017273 0.000000 -1.000000 0.000000 31 31 31
-0.041700 0.094648 0.017273 0.000000 1.000000 0.000000 38 38 38
-0.031916 0.047813 0.031916 -0.707083 0.000000 0.707083 31 31 31
-0.041700 0.094648 0.017273 -0.923856 0.000000 0.382672 31 31 31
-0.045136 0.047813 -0.000000 0.000000 -1.000000 0.000000 31 31 31
-0.045136 0.094648 -0.000000 0.000000 1.000000 0.000000 38 38 38
-0.041700 0.047813 0.017273 -0.923856 0.000000 0.382672 31 31 31
-0.045136 0.094648 -0.000000 -1.000000 0.000000 0.000000 31 31 31
-0.041700 0.047813 -0.017273 0.000000 -1.000000 0.000000 31 31 31
-0.041700 0.094648 -0.017273 0.000000 1.000000 0.000000 38 38 38
-0.045136 0.047813 -0.000000 -1.000000 0.000000 0.000000 31 31 31
-0.041700 0.094648 -0.017273 -0.923856 0.000000 -0.382672 31 31 31
-0.031916 0.047813 -0.031916 0.000000 -1.000000 0.000000 31 31 31
-0.031916 0.094648 -0.031916 0.000000 1.000000 0.000000 38 38 38
-0.041700 0.047813 -0.017273 -0.923856 0.000000 -0.382672 31 31 31
-0.031916 0.094648 -0.031916 -0.707083 0.000000 -0.707083 31 31 31
-0.017273 0.047813 -0.041700 0.000000 -1.000000 0.000000 31 31 31
-0.017273 0.094648 -0.041700 0.000000 1.000000 0.000000 38 38 38
-0.031916 0.047813 -0.031916 -0.707083 0.000000 -0.707083 31 31 31
-0.017273 0.094648 -0.041700 -0.382672 0.000000 -0.923856 31 31 31
-0.017273 0.047813 -0.041700 -0.382672 0.000000 -0.923856 31 31 31
-0.240000 0.370788 -0.090417 -0.370312 0.000000 -0.928892 59 59 59
-0.221731 0.462633 -0.090417 -0.342143 0.141697 -0.928892 66 66 66
-0.141247 0.429295 -0.125149 -0.272896 0.113041 -0.955351 64 64 64
-0.000000 0.610788 -0.090417 0.000000 1.000000 0.000000 101 101 102
-0.000000 0.610789 0.112247 0.000000 1.000000 0.000000 101 101 102
0.091844 0.592520 0.112247 0.382672 0.923856 0.000000 90 90 90
0.221731 0.278944 -0.090417 0.342143 -0.141697 -0.928892 50 50 50
0.169706 0.201083 -0.090417 0.261849 -0.261849 -0.928892 46 46 46
0.108106 0.262682 -0.125149 0.208869 -0.208869 -0.955351 51 51 51
0.091844 0.592520 -0.090417 0.382672 0.923856 0.000000 90 90 90
0.169706 0.540494 0.112247 0.707083 0.707083 0.000000 74 74 74
-0.091844 0.149057 -0.090417 -0.141697 -0.342143 -0.928892 47 47 47
-0.058507 0.229541 -0.125149 -0.113041 -0.272896 -0.955351 48 48 48
0.000000 0.217903 -0.125149 0.000000 -0.295389 -0.955351 47 47 47
0.169706 0.540494 -0.090417 0.707083 0.707083 0.000000 74 74 74
0.221731 0.462633 0.112247 0.923856 0.382672 0.000000 74 74 74
0.240000 0.370788 -0.090417 0.370312 0.000000 -0.928892 56 56 56
0.141247 0.312282 -0.125149 0.272896 -0.113041 -0.955351 57 57 57
0.221731 0.462632 -0.090417 0.923856 0.382672 0.000000 74 74 74
0.240000 0.370788 0.112247 1.000000 0.000000 0.000000 66 65 66
0.091844 0.592520 -0.090417 0.141697 0.342143 -0.928892 65 65 65
0.058507 0.512036 -0.125149 0.113041 0.272896 -0.955351 66 66 66
-0.000000 0.523674 -0.125149 0.000000 0.295389 -0.955351 66 66 66
0.240000 0.370788 -0.090417 1.000000 0.000000 0.000000 65 65 65
0.221731 0.278944 0.112247 0.923856 -0.382672 0.000000 58 57 58
-0.152885 0.370788 -0.125149 -0.295389 0.000000 -0.955351 61 61 61
-0.141247 0.312282 -0.125149 -0.272896 -0.113041 -0.955351 59 59 59
0.221731 0.278944 -0.090417 0.923856 -0.382672 0.000000 55 54 55
0.169706 0.201083 0.112247 0.707083 -0.707083 0.000000 59 59 60
0.091844 0.149057 -0.090417 0.141697 -0.342143 -0.928892 48 48 48
0.000000 0.130788 -0.090417 0.000000 -0.370312 -0.928892 47 47 47
0.169706 0.201083 -0.090417 0.707083 -0.707083 0.000000 56 55 56
0.091844 0.149057 0.112247 0.382672 -0.923856 0.000000 49 48 49
-0.169706 0.540494 -0.090417 -0.261849 0.261849 -0.928892 65 65 65
-0.091844 0.592520 -0.090417 -0.141697 0.342143 -0.928892 64 64 64
-0.058507 0.512036 -0.125149 -0.113041 0.272896 -0.955351 66 66 66
0.091844 0.149057 -0.090417 0.382672 -0.923856 0.000000 47 46 47
0.000000 0.130788 0.112247 0.000000 -1.000000 0.000000 49 48 49
0.152885 0.370788 -0.125149 0.295389 0.000000 -0.955351 59 59 59
0.141247 0.429295 -0.125149 0.272896 0.113041 -0.955351 63 63 63
-0.091844 0.149057 0.112247 -0.382672 -0.923856 0.000000 52 51 52
-0.091844 0.149057 -0.090417 -0.382672 -0.923856 0.000000 50 50 51
-0.221731 0.278944 -0.090417 -0.342143 -0.141697 -0.928892 51 51 51
-0.108106 0.262682 -0.125149 -0.208869 -0.208869 -0.955351 53 53 53
-0.169706 0.201083 0.112247 -0.707083 -0.707083 0.000000 56 55 56
-0.169706 0.201083 -0.090417 -0.707083 -0.707083 0.000000 54 54 54
-0.000000 0.610788 -0.090417 0.000000 0.370312 -0.928892 64 64 64
-0.221731 0.278944 0.112247 -0.923856 -0.382672 0.000000 56 56 56
-0.221731 0.278944 -0.090417 -0.923856 -0.382672 0.000000 55 54 55
0.058507 0.229541 -0.125149 0.113041 -0.272896 -0.955351 48 48 48
-0.240000 0.370789 0.112247 -1.000000 0.000000 0.000000 66 66 66
-0.240000 0.370788 -0.090417 -1.000000 0.000000 0.000000 65 65 65
-0.108106 0.478895 -0.125149 -0.208869 0.208869 -0.955351 65 65 65
-0.221731 0.462633 0.112247 -0.923856 0.382672 0.000000 74 74 74
-0.221731 0.462633 -0.090417 -0.923856 0.382672 0.000000 74 74 74
0.221731 0.462632 -0.090417 0.342143 0.141697 -0.928892 63 63 63
0.108106 0.478895 -0.125149 0.208869 0.208869 -0.955351 65 65 65
-0.169706 0.540494 0.112247 -0.707083 0.707083 0.000000 80 80 80
-0.169706 0.540494 -0.090417 -0.707083 0.707083 0.000000 78 78 78
-0.169706 0.201083 -0.090417 -0.261849 -0.261849 -0.928892 46 46 46
-0.091844 0.592520 0.112247 -0.382672 0.923856 0.000000 100 100 100
0.169706 0.540494 -0.090417 0.261849 0.261849 -0.928892 65 65 65
0.000000 0.298062 -0.141307 0.000000 -0.134404 -0.990905 61 61 61
0.072726 0.370788 -0.141307 0.134404 0.000000 -0.990905 61 61 61
0.067190 0.398620 -0.141307 0.124149 0.051424 -0.990905 61 61 61
-0.027831 0.437979 -0.141307 -0.051424 0.124149 -0.990905 61 61 61
-0.067190 0.342957 -0.141307 -0.124149 -0.051424 -0.990905 61 61 61
-0.051425 0.319363 -0.141307 -0.095035 -0.095035 -0.990905 61 61 61
0.027831 0.303598 -0.141307 0.051424 -0.124149 -0.990905 61 61 61
-0.051425 0.422214 -0.141307 -0.095035 0.095035 -0.990905 61 61 61
0.051425 0.422214 -0.141307 0.095035 0.095035 -0.990905 61 61 61
-0.027831 0.303598 -0.141307 -0.051424 -0.124149 -0.990905 61 61 61
0.051425 0.319363 -0.141307 0.095035 -0.095035 -0.990905 61 61 61
-0.067190 0.398620 -0.141307 -0.124149 0.051424 -0.990905 61 61 61
0.027831 0.437979 -0.141307 0.051424 0.124149 -0.990905 61 61 61
0.000000 0.443515 -0.141307 0.000000 0.134404 -0.990905 61 61 61
0.067190 0.342957 -0.141307 0.124149 -0.051424 -0.990905 61 61 61
-0.072726 0.370788 -0.141307 -0.134404 0.000000 -0.990905 61 61 61
0.000000 0.370788 -0.145138 0.000000 0.000000 -1.000000 61 61 61
-0.221731 0.278944 0.112247 0.000000 0.000000 1.000000 74 74 74
-0.169706 0.201083 0.112247 0.000000 0.000000 1.000000 74 74 74
-0.156615 0.214173 0.112247 0.000000 0.000000 1.000000 74 74 74
0.240000 0.370788 0.112247 0.000000 0.000000 1.000000 74 74 74
0.221488 0.370788 0.112247 0.000000 0.000000 1.000000 74 74 74
0.204628 0.286029 0.112247 0.000000 0.000000 1.000000 74 74 74
-0.091844 0.149057 0.112247 0.000000 0.000000 1.000000 74 74 74
-0.084760 0.166160 0.112247 0.000000 0.000000 1.000000 74 74 74
0.221731 0.462633 0.112247 0.000000 0.000000 1.000000 74 74 74
0.204628 0.455548 0.112247 0.000000 0.000000 0.999969 74 74 74
-0.169706 0.540494 0.112247 0.000000 0.000000 1.000000 74 74 74
-0.156615 0.527404 0.112247 0.000000 0.000000 1.000000 74 74 74
-0.084760 0.575416 0.112247 0.000000 0.000000 1.000000 74 74 74
0.091844 0.592520 0.112247 0.000000 0.000000 1.000000 74 74 74
-0.000000 0.610789 0.112247 0.000000 0.000000 1.000000 74 74 74
-0.000000 0.592276 0.112247 0.000000 0.000000 0.999969 74 74 74
0.000000 0.130788 0.112247 0.000000 0.000000 1.000000 74 74 74
0.000000 0.149301 0.112247 0.000000 0.000000 1.000000 74 74 74
0.169706 0.540494 0.112247 0.000000 0.000000 1.000000 74 74 74
0.156615 0.527404 0.112247 0.000000 0.000000 1.000000 74 74 74
-0.221731 0.462633 0.112247 0.000000 0.000000 1.000000 74 74 74
-0.204628 0.455548 0.112247 0.000000 0.000000 0.999969 74 74 74
0.091844 0.149057 0.112247 0.000000 0.000000 1.000000 74 74 74
0.084760 0.166161 0.112247 0.000000 0.000000 1.000000 74 74 74
0.084760 0.575416 0.112247 0.000000 0.000000 1.000000 74 74 74
-0.240000 0.370789 0.112247 0.000000 0.000000 1.000000 74 74 74
-0.221488 0.370789 0.112247 0.000000 0.000000 1.000000 74 74 74
-0.091844 0.592520 0.112247 0.000000 0.000000 1.000000 74 74 74
0.169706 0.201083 0.112247 0.000000 0.000000 1.000000 74 74 74
0.156615 0.214173 0.112247 0.000000 0.000000 0.999969 74 74 74
-0.204628 0.286029 0.112247 0.000000 0.000000 1.000000 74 74 74
0.221731 0.278944 0.112247 0.000000 0.000000 1.000000 74 74 74
0.204628 0.286029 0.112247 -0.923856 0.382672 0.000000 150 145 135
0.221488 0.370788 0.112247 -0.999969 0.000000 0.000000 150 145 135
0.221488 0.370788 0.092886 -1.000000 0.000000 0.000000 150 145 135
-0.000000 0.592276 0.112247 0.000000 -1.000000 0.000000 150 145 135
-0.084760 0.575416 0.112247 0.382672 -0.923856 0.000000 150 145 135
-0.084760 0.575416 0.092886 0.382672 -0.923856 0.000000 150 145 135
0.204628 0.455548 0.112247 -0.923856 -0.382672 0.000000 150 145 135
0.156615 0.527404 0.112247 -0.707083 -0.707083 0.000000 150 145 135
0.156615 0.527404 0.092886 -0.707083 -0.707083 0.000000 150 145 135
-0.204628 0.455548 0.112247 0.923856 -0.382672 0.000000 150 145 135
-0.204628 0.455548 0.092886 0.923856 -0.382672 0.000000 150 145 135
-0.156615 0.527404 0.092886 0.707083 -0.707083 0.000000 150 145 135
0.084760 0.575416 0.112247 -0.382672 -0.923856 0.000000 150 145 135
-0.000000 0.592276 0.092886 0.000000 -1.000000 0.000000 150 145 135
-0.221488 0.370789 0.112247 1.000000 0.000000 0.000000 150 145 135
-0.204628 0.286029 0.112247 0.923856 0.382672 0.000000 150 145 135
-0.204628 0.286029 0.092886 0.923856 0.382672 0.000000 150 145 135
-0.156615 0.214173 0.112247 0.707083 0.707083 0.000000 150 145 135
-0.084760 0.166160 0.112247 0.382672 0.923856 0.000000 150 145 135
-0.084760 0.166160 0.092886 0.382672 0.923856 0.000000 150 145 135
0.000000 0.149301 0.112247 0.000000 0.999969 0.000000 150 145 135
0.084760 0.166161 0.112247 -0.382672 0.923856 0.000000 150 145 135
0.084760 0.166161 0.092886 -0.382672 0.923856 0.000000 150 145 135
0.156615 0.214173 0.112247 -0.707083 0.707083 0.000000 150 145 135
0.204628 0.286029 0.092886 -0.923856 0.382672 0.000000 150 145 135
0.204628 0.455548 0.092886 -0.923856 -0.382672 0.000000 150 145 135
-0.156615 0.527404 0.112247 0.707083 -0.707083 0.000000 150 145 135
0.084760 0.575416 0.092886 -0.382672 -0.923856 0.000000 150 145 135
-0.221488 0.370789 0.092886 1.000000 0.000000 0.000000 150 145 135
-0.156615 0.214173 0.092886 0.707083 0.707083 0.000000 150 145 135
0.000000 0.149301 0.092886 0.000000 1.000000 0.000000 150 145 135
0.156615 0.214173 0.092886 -0.707083 0.707083 0.000000 150 145 135
0.156615 0.214173 0.092886 0.000000 0.000000 1.000000 229 230 192
0.204628 0.286029 0.092886 0.000000 0.000000 1.000000 229 230 192
0.000000 0.370788 0.092886 0.000000 0.000000 0.999969 229 230 192
0.221488 0.370788 0.092886 0.000000 0.000000 1.000000 229 230 192
0.204628 0.455548 0.092886 0.000000 0.000000 1.000000 229 230 192
-0.084760 0.575416 0.092886 0.000000 0.000000 1.000000 229 230 192
-0.156615 0.527404 0.092886 0.000000 0.000000 0.999969 229 230 192
0.156615 0.527404 0.092886 0.000000 0.000000 1.000000 229 230 192
0.084760 0.575416 0.092886 0.000000 0.000000 1.000000 229 230 192
-0.204628 0.455548 0.092886 0.000000 0.000000 1.000000 229 230 192
-0.221488 0.370789 0.092886 0.000000 0.000000 1.000000 229 230 192
-0.204628 0.286029 0.092886 0.000000 0.000000 1.000000 229 230 192
-0.156615 0.214173 0.092886 0.000000 0.000000 1.000000 229 230 192
-0.084760 0.166160 0.092886 0.000000 0.000000 1.000000 229 230 192
0.000000 0.149301 0.092886 0.000000 0.000000 1.000000 229 230 192
0.084760 0.166161 0.092886 0.000000 0.000000 1.000000 229 230 192
-0.000000 0.592276 0.092886 0.000000 0.000000 1.000000 229 230 192
-0.268594 0.353832 0.000000 0.000000 -0.707083 -0.707083 26 26 26
-0.268594 0.353832 0.000000 0.000000 -0.707083 0.707083 26 26 26
0.247206 0.401151 -0.022768 0.020142 0.999786 0.000000 56 56 56
0.031210 0.042156 0.027255 -0.109928 -0.031068 0.993439 41 41 41
0.287987 0.400329 0.022768 0.999695 0.024354 0.000000 41 41 41
0.020073 0.081536 0.027255 -0.189062 0.981964 0.000000 41 41 41
0.002612 0.079005 -0.019531 -0.403394 -0.009308 -0.914975 41 41 41
0.031210 0.042156 -0.027255 -0.109928 -0.031068 -0.993439 51 51 51
0.247206 0.401151 0.022768 0.000183 0.009491 0.999939 48 48 48
0.031210 0.042156 0.027255 -0.295572 -0.955290 0.000000 41 41 41
0.160420 0.093093 0.025973 0.567492 -0.823359 0.000000 41 41 41
0.248442 0.333608 0.023409 -0.996277 0.085910 0.000000 41 41 41
-0.002612 0.079005 -0.019531 0.999725 -0.023103 0.000000 41 41 41
-0.247206 0.401151 -0.022768 -0.000183 0.009491 -0.999939 51 51 51
-0.247206 0.401151 -0.022768 -0.020142 0.999786 0.000000 56 56 56
-0.002612 0.079005 0.019531 0.403394 -0.009308 0.914975 41 41 41
-0.002612 0.079005 -0.019531 0.403394 -0.009308 -0.914975 41 41 41
-0.247206 0.401151 0.022768 -0.000183 0.009491 0.999939 48 48 48
-0.031210 0.042156 -0.027255 -0.274697 -0.961516 0.000000 41 41 41
-0.247206 0.401151 -0.022768 0.999817 -0.018281 0.000000 41 41 41
0.000000 0.130788 -0.090417 0.000000 -1.000000 0.000000 47 46 47
-0.091844 0.592520 -0.090417 -0.382672 0.923856 0.000000 97 97 98
3 0 1 2
3 3 4 5
3 6 7 8
3 0 2 9
3 3 10 4
3 11 12 13
3 0 9 14
3 3 15 10
3 12 16 17
3 0 14 1
3 3 5 15
3 18 19 7
3 20 21 22
3 23 24 25
3 26 27 28
3 29 30 31
3 32 33 34
3 35 36 37
3 38 39 40
3 41 42 43
3 42 44 45
3 44 46 47
3 46 48 49
3 48 50 51
3 50 23 52
3 53 54 55
3 56 57 54
3 58 59 57
3 60 61 59
3 62 63 61
3 64 65 63
3 66 67 65
3 68 22 69
3 70 71 72
3 73 72 74
3 74 75 76
3 75 77 78
3 77 79 80
3 79 33 32
3 81 82 83
3 83 84 85
3 84 86 87
3 86 88 89
3 88 90 91
3 91 90 92
3 93 92 35
3 94 95 96
3 97 98 99
3 100 101 102
3 103 104 105
3 106 107 108
3 109 110 111
3 112 113 114
3 115 116 117
3 118 117 119
3 120 119 121
3 122 121 123
3 124 123 125
3 126 125 98
3 127 128 129
3 128 130 131
3 130 132 133
3 132 134 135
3 134 136 137
3 136 138 139
3 138 140 141
3 95 142 143
3 144 145 146
3 145 147 148
3 149 150 148
3 151 152 150
3 153 154 152
3 106 155 154
3 156 157 158
3 159 160 158
3 161 162 160
3 163 164 162
3 165 166 164
3 165 167 168
3 167 169 111
3 170 171 172
3 173 174 175
3 176 177 178
3 170 172 179
3 173 180 174
3 181 178 182
3 170 179 183
3 173 184 180
3 185 182 186
3 170 183 187
3 173 188 184
3 189 186 190
3 170 187 191
3 173 192 188
3 193 190 194
3 170 191 195
3 173 196 192
3 197 194 198
3 170 195 199
3 173 200 196
3 201 198 202
3 170 199 203
3 173 204 200
3 205 202 206
3 170 203 207
3 173 208 204
3 209 206 210
3 170 207 211
3 173 212 208
3 213 210 214
3 170 211 215
3 173 216 212
3 217 214 218
3 170 215 219
3 173 220 216
3 221 218 222
3 170 219 223
3 173 224 220
3 225 222 226
3 170 223 227
3 173 228 224
3 229 226 230
3 170 227 231
3 173 232 228
3 233 230 234
3 170 231 171
3 173 175 232
3 235 234 177
3 236 237 238
3 239 240 241
3 242 243 244
3 236 238 245
3 239 246 240
3 247 244 248
3 236 245 249
3 239 250 246
3 251 248 252
3 236 249 253
3 239 254 250
3 255 252 256
3 236 253 257
3 239 258 254
3 259 256 260
3 236 257 261
3 239 262 258
3 263 260 264
3 236 261 265
3 239 266 262
3 267 264 268
3 236 265 269
3 239 270 266
3 271 268 272
3 236 269 273
3 239 274 270
3 275 272 276
3 236 273 277
3 239 278 274
3 279 276 280
3 236 277 281
3 239 282 278
3 283 280 284
3 236 281 285
3 239 286 282
3 287 284 288
3 236 285 289
3 239 290 286
3 291 288 292
3 236 289 293
3 239 294 290
3 295 292 296
3 236 293 297
3 239 298 294
3 299 296 300
3 236 297 237
3 239 241 298
3 301 300 243
3 302 303 304
3 305 306 307
3 308 309 310
3 311 307 312
3 313 314 315
3 316 312 317
3 318 308 319
3 320 317 321
3 322 323 324
3 325 321 326
3 302 327 328
3 329 326 330
3 331 332 315
3 333 330 334
3 335 336 337
3 338 334 339
3 318 340 341
3 339 342 343
3 344 328 345
3 342 346 347
3 336 348 324
3 346 349 350
3 309 331 351
3 349 352 353
3 303 335 354
3 352 355 356
3 357 341 358
3 355 359 360
3 361 345 314
3 360 359 362
3 363 358 323
3 362 306 305
3 351 315 364
3 340 365 366
3 354 337 367
3 328 368 369
3 310 351 370
3 304 354 371
3 341 366 372
3 345 369 373
3 319 310 374
3 327 304 375
3 358 372 376
3 337 324 377
3 314 373 364
3 340 319 378
3 327 379 368
3 323 376 377
3 370 364 380
3 373 369 380
3 368 379 380
3 377 376 380
3 375 371 380
3 372 366 380
3 367 377 380
3 365 378 380
3 374 370 380
3 364 373 380
3 369 368 380
3 379 375 380
3 376 372 380
3 371 367 380
3 366 365 380
3 378 374 380
3 381 382 383
3 384 385 386
3 382 387 388
3 384 389 390
3 391 392 393
3 394 395 396
3 387 397 398
3 389 399 400
3 401 402 392
3 403 404 398
3 399 394 405
3 406 407 402
3 408 393 396
3 409 410 404
3 406 381 411
3 412 386 410
3 413 414 415
3 416 417 418
3 419 420 421
3 422 423 424
3 425 416 426
3 427 428 429
3 430 431 432
3 433 434 435
3 436 413 437
3 414 419 438
3 417 439 424
3 420 425 440
3 427 441 423
3 428 430 442
3 431 433 443
3 434 436 444
3 445 446 447
3 448 449 447
3 450 451 447
3 452 453 447
3 454 455 447
3 456 457 447
3 458 459 447
3 460 445 447
3 446 448 447
3 461 450 447
3 449 452 447
3 451 454 447
3 453 461 447
3 455 456 447
3 457 458 447
3 459 460 447
3 462 6 8
3 463 11 13
3 13 12 17
3 6 18 7
3 68 20 22
3 52 23 25
3 464 26 28
3 465 29 31
3 466 32 34
3 467 35 37
3 468 38 40
3 469 41 43
3 43 42 45
3 45 44 47
3 47 46 49
3 49 48 51
3 51 50 52
3 470 53 55
3 53 56 54
3 56 58 57
3 58 60 59
3 60 62 61
3 62 64 63
3 64 66 65
3 471 68 69
3 73 70 72
3 472 73 74
3 472 74 76
3 76 75 78
3 78 77 80
3 80 79 32
3 473 81 83
3 473 83 85
3 85 84 87
3 87 86 89
3 89 88 91
3 93 91 92
3 467 93 35
3 474 94 96
3 475 97 99
3 476 100 102
3 477 103 105
3 155 106 108
3 169 109 111
3 478 112 114
3 118 115 117
3 120 118 119
3 122 120 121
3 124 122 123
3 126 124 125
3 97 126 98
3 479 127 129
3 129 128 131
3 131 130 133
3 133 132 135
3 135 134 137
3 137 136 139
3 139 138 141
3 96 95 143
3 480 144 146
3 146 145 148
3 147 149 148
3 149 151 150
3 151 153 152
3 153 106 154
3 481 156 158
3 157 159 158
3 159 161 160
3 161 163 162
3 163 165 164
3 166 165 168
3 168 167 111
3 181 176 178
3 185 181 182
3 189 185 186
3 193 189 190
3 197 193 194
3 201 197 198
3 205 201 202
3 209 205 206
3 213 209 210
3 217 213 214
3 221 217 218
3 225 221 222
3 229 225 226
3 233 229 230
3 235 233 234
3 176 235 177
3 247 242 244
3 251 247 248
3 255 251 252
3 259 255 256
3 263 259 260
3 267 263 264
3 271 267 268
3 275 271 272
3 279 275 276
3 283 279 280
3 287 283 284
3 291 287 288
3 295 291 292
3 299 295 296
3 301 299 300
3 242 301 243
3 327 302 304
3 311 305 307
3 319 308 310
3 316 311 312
3 332 313 315
3 320 316 317
3 340 318 319
3 325 320 321
3 348 322 324
3 329 325 326
3 344 302 328
3 333 329 330
3 351 331 315
3 338 333 334
3 354 335 337
3 482 338 339
3 357 318 341
3 482 339 343
3 361 344 345
3 343 342 347
3 337 336 324
3 347 346 350
3 310 309 351
3 350 349 353
3 304 303 354
3 353 352 356
3 363 357 358
3 356 355 360
3 313 361 314
3 483 360 362
3 322 363 323
3 483 362 305
3 370 351 364
3 341 340 366
3 371 354 367
3 345 328 369
3 374 310 370
3 375 304 371
3 358 341 372
3 314 345 373
3 378 319 374
3 379 327 375
3 323 358 376
3 367 337 377
3 315 314 364
3 365 340 378
3 328 327 368
3 324 323 377
3 411 381 383
3 412 384 386
3 383 382 388
3 385 384 390
3 408 391 393
3 405 394 396
3 388 387 398
3 390 389 400
3 391 401 392
3 397 403 398
3 400 399 405
3 401 406 402
3 395 408 396
3 403 409 404
3 407 406 411
3 409 412 410
3 437 413 415
3 426 416 418
3 438 419 421
3 439 422 424
3 440 425 426
3 441 427 429
3 442 430 432
3 443 433 435
3 444 436 437
3 415 414 438
3 418 417 424
3 421 420 440
3 422 427 423
3 429 428 442
3 432 431 443
3 435 434 444
