ply
format ascii 1.0
comment Created by Blender 2.72 (sub 0) - www.blender.org, source file: 'Searchlight.blend'
element vertex 413
property float x
property float y
property float z
property uchar red
property uchar green
property uchar blue
element face 472
property list uchar uint vertex_indices
end_header
-0.268594 0.370044 0.000000 26 26 26
-0.268594 0.370044 -0.016212 26 26 26
-0.268594 0.353832 0.000000 26 26 26
0.268594 0.370044 0.000000 26 26 26
0.268594 0.353832 0.000000 26 26 26
0.268594 0.370044 -0.016212 26 26 26
-0.268594 0.370044 0.016212 26 26 26
0.268594 0.370044 0.016212 26 26 26
-0.268594 0.386256 -0.000000 26 26 26
0.268594 0.386256 -0.000000 26 26 26
0.002612 0.079005 0.019531 41 41 41
0.002612 0.079005 -0.019531 41 41 41
0.003264 0.050803 -0.019531 41 41 41
0.248442 0.333608 -0.023409 51 51 51
0.247206 0.401151 -0.022768 51 51 51
0.287987 0.400329 -0.022768 51 51 51
0.247206 0.401151 0.022768 56 56 56
0.287987 0.400329 0.022768 56 56 56
0.287987 0.400329 -0.022768 56 56 56
0.020073 0.081536 0.027255 41 41 41
0.003264 0.050803 0.019531 41 41 41
0.289850 0.323875 0.023409 41 41 41
0.289850 0.323875 -0.023409 41 41 41
0.287987 0.400329 -0.022768 41 41 41
0.020073 0.081536 -0.027255 41 41 41
0.031210 0.042156 -0.027255 41 41 41
0.020073 0.081536 -0.027255 51 51 51
0.076726 0.094475 -0.026614 51 51 51
0.103542 0.062822 -0.026614 51 51 51
0.129226 0.121285 -0.025973 51 51 51
0.160420 0.093093 -0.025973 51 51 51
0.174813 0.160626 -0.025332 51 51 51
0.209791 0.136333 -0.025332 51 51 51
0.211092 0.210673 -0.024691 51 51 51
0.249224 0.190472 -0.024691 51 51 51
0.236113 0.269187 -0.024050 51 51 51
0.276832 0.252770 -0.024050 51 51 51
0.289850 0.323875 -0.023409 51 51 51
0.248442 0.333608 0.023409 48 48 48
0.289850 0.323875 0.023409 48 48 48
0.287987 0.400329 0.022768 48 48 48
0.236113 0.269187 0.024050 48 48 48
0.276832 0.252770 0.024050 48 48 48
0.211092 0.210673 0.024691 48 48 48
0.249223 0.190472 0.024691 48 48 48
0.174813 0.160626 0.025332 48 48 48
0.209791 0.136333 0.025332 48 48 48
0.129226 0.121285 0.025973 48 48 48
0.160420 0.093093 0.025973 48 48 48
0.076726 0.094475 0.026614 48 48 48
0.103542 0.062822 0.026614 48 48 48
0.020073 0.081536 0.027255 48 48 48
0.031210 0.042156 0.027255 48 48 48
0.031210 0.042156 0.027255 41 41 41
0.103542 0.062822 -0.026614 41 41 41
0.103542 0.062822 0.026614 41 41 41
0.160420 0.093093 -0.025973 41 41 41
0.209791 0.136333 -0.025332 41 41 41
0.209791 0.136333 0.025332 41 41 41
0.249224 0.190472 -0.024691 41 41 41
0.249223 0.190472 0.024691 41 41 41
0.276832 0.252770 -0.024050 41 41 41
0.276832 0.252770 0.024050 41 41 41
0.247206 0.401151 0.022768 41 41 41
0.247206 0.401151 -0.022768 41 41 41
0.248442 0.333608 -0.023409 41 41 41
0.236113 0.269187 -0.024050 41 41 41
0.236113 0.269187 0.024050 41 41 41
0.211092 0.210673 -0.024691 41 41 41
0.211092 0.210673 0.024691 41 41 41
0.174813 0.160626 -0.025332 41 41 41
0.174813 0.160626 0.025332 41 41 41
0.129226 0.121285 -0.025973 41 41 41
0.129226 0.121285 0.025973 41 41 41
0.076726 0.094475 -0.026614 41 41 41
0.076726 0.094475 0.026614 41 41 41
-0.002612 0.079005 0.019531 41 41 41
-0.003264 0.050803 0.019531 41 41 41
-0.003264 0.050803 -0.019531 41 41 41
-0.248442 0.333608 -0.023409 51 51 51
-0.289850 0.323875 -0.023409 51 51 51
-0.287987 0.400329 -0.022768 51 51 51
-0.287987 0.400329 -0.022768 56 56 56
-0.287987 0.400329 0.022768 56 56 56
-0.247206 0.401151 0.022768 56 56 56
-0.020073 0.081536 0.027255 41 41 41
-0.031210 0.042156 0.027255 41 41 41
-0.289850 0.323875 0.023409 41 41 41
-0.287987 0.400329 0.022768 41 41 41
-0.287987 0.400329 -0.022768 41 41 41
-0.002612 0.079005 -0.019531 41 41 41
-0.020073 0.081536 -0.027255 41 41 41
-0.031210 0.042156 -0.027255 41 41 41
-0.020073 0.081536 -0.027255 51 51 51
-0.031210 0.042156 -0.027255 51 51 51
-0.103542 0.062822 -0.026614 51 51 51
-0.076726 0.094475 -0.026614 51 51 51
-0.160420 0.093093 -0.025973 51 51 51
-0.129226 0.121285 -0.025973 51 51 51
-0.209791 0.136333 -0.025332 51 51 51
-0.174814 0.160626 -0.025332 51 51 51
-0.249224 0.190472 -0.024691 51 51 51
-0.211092 0.210673 -0.024691 51 51 51
-0.276832 0.252770 -0.024050 51 51 51
-0.236113 0.269187 -0.024050 51 51 51
-0.287987 0.400329 0.022768 48 48 48
-0.289850 0.323875 0.023409 48 48 48
-0.248442 0.333608 0.023409 48 48 48
-0.276832 0.252770 0.024050 48 48 48
-0.236113 0.269187 0.024050 48 48 48
-0.249224 0.190472 0.024691 48 48 48
-0.211092 0.210673 0.024691 48 48 48
-0.209791 0.136333 0.025332 48 48 48
-0.174814 0.160626 0.025332 48 48 48
-0.160420 0.093093 0.025973 48 48 48
-0.129226 0.121285 0.025973 48 48 48
-0.103542 0.062822 0.026614 48 48 48
-0.076726 0.094475 0.026614 48 48 48
-0.031210 0.042156 0.027255 48 48 48
-0.020073 0.081536 0.027255 48 48 48
-0.103542 0.062822 0.026614 41 41 41
-0.103542 0.062822 -0.026614 41 41 41
-0.160420 0.093093 0.025973 41 41 41
-0.160420 0.093093 -0.025973 41 41 41
-0.209791 0.136333 0.025332 41 41 41
-0.209791 0.136333 -0.025332 41 41 41
-0.249224 0.190472 0.024691 41 41 41
-0.249224 0.190472 -0.024691 41 41 41
-0.276832 0.252770 0.024050 41 41 41
-0.276832 0.252770 -0.024050 41 41 41
-0.289850 0.323875 -0.023409 41 41 41
-0.247206 0.401151 0.022768 41 41 41
-0.248442 0.333608 0.023409 41 41 41
-0.248442 0.333608 -0.023409 41 41 41
-0.236113 0.269187 0.024050 41 41 41
-0.236113 0.269187 -0.024050 41 41 41
-0.211092 0.210673 0.024691 41 41 41
-0.211092 0.210673 -0.024691 41 41 41
-0.174814 0.160626 0.025332 41 41 41
-0.174814 0.160626 -0.025332 41 41 41
-0.129226 0.121285 0.025973 41 41 41
-0.129226 0.121285 -0.025973 41 41 41
-0.076726 0.094475 0.026614 41 41 41
-0.076726 0.094475 -0.026614 41 41 41
-0.000000 -0.000000 0.000000 31 31 31
-0.000000 -0.000000 -0.121499 31 31 31
0.046496 -0.000000 -0.112251 31 31 31
-0.000000 0.058805 0.000000 38 38 38
0.046496 0.058805 -0.112251 38 38 38
-0.000000 0.058805 -0.121499 38 38 38
-0.000000 0.058805 -0.121499 31 31 31
0.046496 0.058805 -0.112251 31 31 31
0.085913 -0.000000 -0.085913 31 31 31
0.085913 0.058805 -0.085913 38 38 38
0.085913 0.058805 -0.085913 31 31 31
0.112251 -0.000000 -0.046496 31 31 31
0.112251 0.058805 -0.046496 38 38 38
0.112251 0.058805 -0.046496 31 31 31
0.121499 -0.000000 0.000000 31 31 31
0.121499 0.058805 0.000000 38 38 38
0.121499 0.058805 0.000000 31 31 31
0.112251 -0.000000 0.046496 31 31 31
0.112251 0.058805 0.046496 38 38 38
0.112251 0.058805 0.046496 31 31 31
0.085913 -0.000000 0.085913 31 31 31
0.085913 0.058805 0.085913 38 38 38
0.085913 0.058805 0.085913 31 31 31
0.046496 -0.000000 0.112251 31 31 31
0.046496 0.058805 0.112251 38 38 38
0.046496 0.058805 0.112251 31 31 31
0.000000 -0.000000 0.121499 31 31 31
0.000000 0.058805 0.121499 38 38 38
0.000000 0.058805 0.121499 31 31 31
-0.046496 -0.000000 0.112251 31 31 31
-0.046496 0.058805 0.112251 38 38 38
-0.046496 0.058805 0.112251 31 31 31
-0.085913 -0.000000 0.085913 31 31 31
-0.085913 0.058805 0.085913 38 38 38
-0.085913 0.058805 0.085913 31 31 31
-0.112251 -0.000000 0.046496 31 31 31
-0.112251 0.058805 0.046496 38 38 38
-0.112251 0.058805 0.046496 31 31 31
-0.121499 -0.000000 -0.000000 31 31 31
-0.121499 0.058805 -0.000000 38 38 38
-0.121499 0.058805 -0.000000 31 31 31
-0.112251 -0.000000 -0.046496 31 31 31
-0.112251 0.058805 -0.046496 38 38 38
-0.112251 0.058805 -0.046496 31 31 31
-0.085913 -0.000000 -0.085913 31 31 31
-0.085913 0.058805 -0.085913 38 38 38
-0.085913 0.058805 -0.085913 31 31 31
-0.046496 -0.000000 -0.112251 31 31 31
-0.046496 0.058805 -0.112251 38 38 38
-0.046496 0.058805 -0.112251 31 31 31
-0.000000 0.047813 -0.000000 31 31 31
-0.000000 0.047813 -0.045136 31 31 31
0.017273 0.047813 -0.041700 31 31 31
-0.000000 0.094648 -0.000000 38 38 38
0.017273 0.094648 -0.041700 38 38 38
-0.000000 0.094648 -0.045136 38 38 38
-0.000000 0.094648 -0.045136 31 31 31
0.017273 0.094648 -0.041700 31 31 31
0.031916 0.047813 -0.031916 31 31 31
0.031916 0.094648 -0.031916 38 38 38
0.031916 0.094648 -0.031916 31 31 31
0.041700 0.047813 -0.017273 31 31 31
0.041700 0.094648 -0.017273 38 38 38
0.041700 0.094648 -0.017273 31 31 31
0.045136 0.047813 0.000000 31 31 31
0.045136 0.094648 0.000000 38 38 38
0.045136 0.094648 0.000000 31 31 31
0.041700 0.047813 0.017273 31 31 31
0.041700 0.094648 0.017273 38 38 38
0.041700 0.094648 0.017273 31 31 31
0.031916 0.047813 0.031916 31 31 31
0.031916 0.094648 0.031916 38 38 38
0.031916 0.094648 0.031916 31 31 31
0.017273 0.047813 0.041700 31 31 31
0.017273 0.094648 0.041700 38 38 38
0.017273 0.094648 0.041700 31 31 31
0.000000 0.047813 0.045136 31 31 31
0.000000 0.094648 0.045136 38 38 38
0.000000 0.094648 0.045136 31 31 31
-0.017273 0.047813 0.041700 31 31 31
-0.017273 0.094648 0.041700 38 38 38
-0.017273 0.094648 0.041700 31 31 31
-0.031916 0.047813 0.031916 31 31 31
-0.031916 0.094648 0.031916 38 38 38
-0.031916 0.094648 0.031916 31 31 31
-0.041700 0.047813 0.017273 31 31 31
-0.041700 0.094648 0.017273 38 38 38
-0.041700 0.094648 0.017273 31 31 31
-0.045136 0.047813 -0.000000 31 31 31
-0.045136 0.094648 -0.000000 38 38 38
-0.045136 0.094648 -0.000000 31 31 31
-0.041700 0.047813 -0.017273 31 31 31
-0.041700 0.094648 -0.017273 38 38 38
-0.041700 0.094648 -0.017273 31 31 31
-0.031916 0.047813 -0.031916 31 31 31
-0.031916 0.094648 -0.031916 38 38 38
-0.031916 0.094648 -0.031916 31 31 31
-0.017273 0.047813 -0.041700 31 31 31
-0.017273 0.094648 -0.041700 38 38 38
-0.017273 0.094648 -0.041700 31 31 31
-0.240000 0.370788 -0.090417 59 59 59
-0.221731 0.462633 -0.090417 66 66 66
-0.141247 0.429295 -0.125149 64 64 64
-0.000000 0.610788 -0.090417 101 101 102
-0.000000 0.610789 0.112247 101 101 102
0.091844 0.592520 0.112247 90 90 90
0.221731 0.278944 -0.090417 50 50 50
0.169706 0.201083 -0.090417 46 46 46
0.108106 0.262682 -0.125149 51 51 51
0.091844 0.592520 -0.090417 90 90 90
0.169706 0.540494 0.112247 74 74 74
-0.091844 0.149057 -0.090417 47 47 47
-0.058507 0.229541 -0.125149 48 48 48
0.000000 0.217903 -0.125149 47 47 47
0.169706 0.540494 -0.090417 74 74 74
0.221731 0.462633 0.112247 74 74 74
0.240000 0.370788 -0.090417 56 56 56
0.141247 0.312282 -0.125149 57 57 57
0.221731 0.462632 -0.090417 74 74 74
0.240000 0.370788 0.112247 66 65 66
0.091844 0.592520 -0.090417 65 65 65
0.058507 0.512036 -0.125149 66 66 66
-0.000000 0.523674 -0.125149 66 66 66
0.240000 0.370788 -0.090417 65 65 65
0.221731 0.278944 0.112247 58 57 58
-0.152885 0.370788 -0.125149 61 61 61
-0.141247 0.312282 -0.125149 59 59 59
0.221731 0.278944 -0.090417 55 54 55
0.169706 0.201083 0.112247 59 59 60
0.091844 0.149057 -0.090417 48 48 48
0.000000 0.130788 -0.090417 47 47 47
0.169706 0.201083 -0.090417 56 55 56
0.091844 0.149057 0.112247 49 48 49
-0.169706 0.540494 -0.090417 65 65 65
-0.091844 0.592520 -0.090417 64 64 64
-0.058507 0.512036 -0.125149 66 66 66
0.091844 0.149057 -0.090417 47 46 47
0.000000 0.130788 0.112247 49 48 49
0.152885 0.370788 -0.125149 59 59 59
0.141247 0.429295 -0.125149 63 63 63
-0.091844 0.149057 0.112247 52 51 52
-0.091844 0.149057 -0.090417 50 50 51
-0.221731 0.278944 -0.090417 51 51 51
-0.108106 0.262682 -0.125149 53 53 53
-0.169706 0.201083 0.112247 56 55 56
-0.169706 0.201083 -0.090417 54 54 54
-0.000000 0.610788 -0.090417 64 64 64
-0.221731 0.278944 0.112247 56 56 56
-0.221731 0.278944 -0.090417 55 54 55
0.058507 0.229541 -0.125149 48 48 48
-0.240000 0.370789 0.112247 66 66 66
-0.240000 0.370788 -0.090417 65 65 65
-0.108106 0.478895 -0.125149 65 65 65
-0.221731 0.462633 0.112247 74 74 74
-0.221731 0.462633 -0.090417 74 74 74
0.221731 0.462632 -0.090417 63 63 63
0.108106 0.478895 -0.125149 65 65 65
-0.169706 0.540494 0.112247 80 80 80
-0.169706 0.540494 -0.090417 78 78 78
-0.169706 0.201083 -0.090417 46 46 46
-0.091844 0.592520 0.112247 100 100 100
0.169706 0.540494 -0.090417 65 65 65
0.000000 0.298062 -0.141307 61 61 61
0.072726 0.370788 -0.141307 61 61 61
0.067190 0.398620 -0.141307 61 61 61
-0.027831 0.437979 -0.141307 61 61 61
-0.067190 0.342957 -0.141307 61 61 61
-0.051425 0.319363 -0.141307 61 61 61
0.027831 0.303598 -0.141307 61 61 61
-0.051425 0.422214 -0.141307 61 61 61
0.051425 0.422214 -0.141307 61 61 61
-0.027831 0.303598 -0.141307 61 61 61
0.051425 0.319363 -0.141307 61 61 61
-0.067190 0.398620 -0.141307 61 61 61
0.027831 0.437979 -0.141307 61 61 61
0.000000 0.443515 -0.141307 61 61 61
0.067190 0.342957 -0.141307 61 61 61
-0.072726 0.370788 -0.141307 61 61 61
0.000000 0.370788 -0.145138 61 61 61
-0.221731 0.278944 0.112247 74 74 74
-0.169706 0.201083 0.112247 74 74 74
-0.156615 0.214173 0.112247 74 74 74
0.240000 0.370788 0.112247 74 74 74
0.221488 0.370788 0.112247 74 74 74
0.204628 0.286029 0.112247 74 74 74
-0.091844 0.149057 0.112247 74 74 74
-0.084760 0.166160 0.112247 74 74 74
0.204628 0.455548 0.112247 74 74 74
-0.169706 0.540494 0.112247 74 74 74
-0.156615 0.527404 0.112247 74 74 74
-0.084760 0.575416 0.112247 74 74 74
0.091844 0.592520 0.112247 74 74 74
-0.000000 0.610789 0.112247 74 74 74
-0.000000 0.592276 0.112247 74 74 74
0.000000 0.130788 0.112247 74 74 74
0.000000 0.149301 0.112247 74 74 74
0.156615 0.527404 0.112247 74 74 74
-0.204628 0.455548 0.112247 74 74 74
0.091844 0.149057 0.112247 74 74 74
0.084760 0.166161 0.112247 74 74 74
0.084760 0.575416 0.112247 74 74 74
-0.240000 0.370789 0.112247 74 74 74
-0.221488 0.370789 0.112247 74 74 74
-0.091844 0.592520 0.112247 74 74 74
0.169706 0.201083 0.112247 74 74 74
0.156615 0.214173 0.112247 74 74 74
-0.204628 0.286029 0.112247 74 74 74
0.221731 0.278944 0.112247 74 74 74
0.204628 0.286029 0.112247 150 145 135
0.221488 0.370788 0.112247 150 145 135
0.221488 0.370788 0.092886 150 145 135
-0.000000 0.592276 0.112247 150 145 135
-0.084760 0.575416 0.112247 150 145 135
-0.084760 0.575416 0.092886 150 145 135
0.204628 0.455548 0.112247 150 145 135
0.156615 0.527404 0.112247 150 145 135
0.156615 0.527404 0.092886 150 145 135
-0.204628 0.455548 0.112247 150 145 135
-0.204628 0.455548 0.092886 150 145 135
-0.156615 0.527404 0.092886 150 145 135
0.084760 0.575416 0.112247 150 145 135
-0.000000 0.592276 0.092886 150 145 135
-0.221488 0.370789 0.112247 150 145 135
-0.204628 0.286029 0.112247 150 145 135
-0.204628 0.286029 0.092886 150 145 135
-0.156615 0.214173 0.112247 150 145 135
-0.084760 0.166160 0.112247 150 145 135
-0.084760 0.166160 0.092886 150 145 135
0.000000 0.149301 0.112247 150 145 135
0.084760 0.166161 0.112247 150 145 135
0.084760 0.166161 0.092886 150 145 135
0.156615 0.214173 0.112247 150 145 135
0.204628 0.286029 0.092886 150 145 135
0.204628 0.455548 0.092886 150 145 135
-0.156615 0.527404 0.112247 150 145 135
0.084760 0.575416 0.092886 150 145 135
-0.221488 0.370789 0.092886 150 145 135
-0.156615 0.214173 0.092886 150 145 135
0.000000 0.149301 0.092886 150 145 135
0.156615 0.214173 0.092886 150 145 135
0.156615 0.214173 0.092886 229 230 192
0.204628 0.286029 0.092886 229 230 192
0.000000 0.370788 0.092886 229 230 192
0.221488 0.370788 0.092886 229 230 192
0.204628 0.455548 0.092886 229 230 192
-0.084760 0.575416 0.092886 229 230 192
-0.156615 0.527404 0.092886 229 230 192
0.156615 0.527404 0.092886 229 230 192
0.084760 0.575416 0.092886 229 230 192
-0.204628 0.455548 0.092886 229 230 192
-0.221488 0.370789 0.092886 229 230 192
-0.204628 0.286029 0.092886 229 230 192
-0.156615 0.214173 0.092886 229 230 192
-0.084760 0.166160 0.092886 229 230 192
0.000000 0.149301 0.092886 229 230 192
0.084760 0.166161 0.092886 229 230 192
-0.000000 0.592276 0.092886 229 230 192
0.247206 0.401151 -0.022768 56 56 56
0.287987 0.400329 0.022768 41 41 41
0.031210 0.042156 -0.027255 51 51 51
0.247206 0.401151 0.022768 48 48 48
0.160420 0.093093 0.025973 41 41 41
0.248442 0.333608 0.023409 41 41 41
-0.247206 0.401151 -0.022768 51 51 51
-0.247206 0.401151 -0.022768 56 56 56
-0.247206 0.401151 0.022768 48 48 48
-0.247206 0.401151 -0.022768 41 41 41
0.000000 0.130788 -0.090417 47 46 47
-0.091844 0.592520 -0.090417 97 97 98
3 0 1 2
3 3 4 5
3 1 5 4
3 0 2 6
3 3 7 4
3 4 7 6
3 0 6 8
3 3 9 7
3 7 9 8
3 0 8 1
3 3 5 9
3 8 9 5
3 10 11 12
3 13 14 15
3 16 17 18
3 19 10 20
3 21 22 23
3 24 11 10
3 24 25 12
3 26 27 28
3 27 29 30
3 29 31 32
3 31 33 34
3 33 35 36
3 35 13 37
3 38 39 40
3 41 42 39
3 43 44 42
3 45 46 44
3 47 48 46
3 49 50 48
3 51 52 50
3 20 12 25
3 53 25 54
3 55 54 56
3 56 57 58
3 57 59 60
3 59 61 62
3 61 22 21
3 63 64 65
3 65 66 67
3 66 68 69
3 68 70 71
3 70 72 73
3 73 72 74
3 75 74 24
3 76 77 78
3 79 80 81
3 82 83 84
3 85 86 77
3 87 88 89
3 76 90 91
3 78 92 91
3 93 94 95
3 96 95 97
3 98 97 99
3 100 99 101
3 102 101 103
3 104 103 80
3 105 106 107
3 106 108 109
3 108 110 111
3 110 112 113
3 112 114 115
3 114 116 117
3 116 118 119
3 77 86 92
3 86 120 121
3 120 122 123
3 124 125 123
3 126 127 125
3 128 129 127
3 87 130 129
3 131 132 133
3 134 135 133
3 136 137 135
3 138 139 137
3 140 141 139
3 140 142 143
3 142 85 91
3 144 145 146
3 147 148 149
3 145 150 151
3 144 146 152
3 147 153 148
3 146 151 154
3 144 152 155
3 147 156 153
3 152 154 157
3 144 155 158
3 147 159 156
3 155 157 160
3 144 158 161
3 147 162 159
3 158 160 163
3 144 161 164
3 147 165 162
3 161 163 166
3 144 164 167
3 147 168 165
3 164 166 169
3 144 167 170
3 147 171 168
3 167 169 172
3 144 170 173
3 147 174 171
3 170 172 175
3 144 173 176
3 147 177 174
3 173 175 178
3 144 176 179
3 147 180 177
3 176 178 181
3 144 179 182
3 147 183 180
3 179 181 184
3 144 182 185
3 147 186 183
3 182 184 187
3 144 185 188
3 147 189 186
3 185 187 190
3 144 188 191
3 147 192 189
3 188 190 193
3 144 191 145
3 147 149 192
3 191 193 150
3 194 195 196
3 197 198 199
3 195 200 201
3 194 196 202
3 197 203 198
3 196 201 204
3 194 202 205
3 197 206 203
3 202 204 207
3 194 205 208
3 197 209 206
3 205 207 210
3 194 208 211
3 197 212 209
3 208 210 213
3 194 211 214
3 197 215 212
3 211 213 216
3 194 214 217
3 197 218 215
3 214 216 219
3 194 217 220
3 197 221 218
3 217 219 222
3 194 220 223
3 197 224 221
3 220 222 225
3 194 223 226
3 197 227 224
3 223 225 228
3 194 226 229
3 197 230 227
3 226 228 231
3 194 229 232
3 197 233 230
3 229 231 234
3 194 232 235
3 197 236 233
3 232 234 237
3 194 235 238
3 197 239 236
3 235 237 240
3 194 238 241
3 197 242 239
3 238 240 243
3 194 241 195
3 197 199 242
3 241 243 200
3 244 245 246
3 247 248 249
3 250 251 252
3 253 249 254
3 255 256 257
3 258 254 259
3 260 250 261
3 262 259 263
3 264 265 266
3 267 263 268
3 244 269 270
3 271 268 272
3 273 274 257
3 275 272 276
3 277 278 279
3 280 276 281
3 260 282 283
3 281 284 285
3 286 270 287
3 284 288 289
3 278 290 266
3 288 291 292
3 251 273 293
3 291 294 295
3 245 277 296
3 294 297 298
3 299 283 300
3 297 301 302
3 303 287 256
3 302 301 304
3 305 300 265
3 304 248 247
3 293 257 306
3 282 307 308
3 296 279 309
3 270 310 311
3 252 293 312
3 246 296 313
3 283 308 314
3 287 311 315
3 261 252 316
3 269 246 317
3 300 314 318
3 279 266 319
3 256 315 306
3 282 261 320
3 269 321 310
3 265 318 319
3 312 306 322
3 315 311 322
3 310 321 322
3 319 318 322
3 317 313 322
3 314 308 322
3 309 319 322
3 307 320 322
3 316 312 322
3 306 315 322
3 311 310 322
3 321 317 322
3 318 314 322
3 313 309 322
3 308 307 322
3 320 316 322
3 323 324 325
3 326 327 328
3 324 329 330
3 326 259 331
3 332 333 334
3 335 336 337
3 329 338 339
3 259 254 340
3 297 341 333
3 342 343 339
3 254 335 344
3 345 346 341
3 347 334 337
3 348 349 343
3 345 323 350
3 351 328 349
3 352 353 354
3 355 356 357
3 358 359 360
3 361 362 363
3 364 355 365
3 366 367 368
3 369 370 371
3 372 373 374
3 375 352 376
3 353 358 377
3 356 378 363
3 359 364 379
3 366 380 362
3 367 369 381
3 370 372 382
3 373 375 383
3 384 385 386
3 387 388 386
3 389 390 386
3 391 392 386
3 393 394 386
3 395 396 386
3 397 398 386
3 399 384 386
3 385 387 386
3 400 389 386
3 388 391 386
3 390 393 386
3 392 400 386
3 394 395 386
3 396 397 386
3 398 399 386
3 2 1 4
3 2 4 6
3 6 7 8
3 1 8 5
3 20 10 12
3 37 13 15
3 401 16 18
3 53 19 20
3 402 21 23
3 19 24 10
3 11 24 12
3 403 26 28
3 28 27 30
3 30 29 32
3 32 31 34
3 34 33 36
3 36 35 37
3 404 38 40
3 38 41 39
3 41 43 42
3 43 45 44
3 45 47 46
3 47 49 48
3 49 51 50
3 53 20 25
3 55 53 54
3 405 55 56
3 405 56 58
3 58 57 60
3 60 59 62
3 62 61 21
3 406 63 65
3 406 65 67
3 67 66 69
3 69 68 71
3 71 70 73
3 75 73 74
3 19 75 24
3 90 76 78
3 407 79 81
3 408 82 84
3 76 85 77
3 130 87 89
3 85 76 91
3 90 78 91
3 96 93 95
3 98 96 97
3 100 98 99
3 102 100 101
3 104 102 103
3 79 104 80
3 409 105 107
3 107 106 109
3 109 108 111
3 111 110 113
3 113 112 115
3 115 114 117
3 117 116 119
3 78 77 92
3 92 86 121
3 121 120 123
3 122 124 123
3 124 126 125
3 126 128 127
3 128 87 129
3 410 131 133
3 132 134 133
3 134 136 135
3 136 138 137
3 138 140 139
3 141 140 143
3 143 142 91
3 146 145 151
3 152 146 154
3 155 152 157
3 158 155 160
3 161 158 163
3 164 161 166
3 167 164 169
3 170 167 172
3 173 170 175
3 176 173 178
3 179 176 181
3 182 179 184
3 185 182 187
3 188 185 190
3 191 188 193
3 145 191 150
3 196 195 201
3 202 196 204
3 205 202 207
3 208 205 210
3 211 208 213
3 214 211 216
3 217 214 219
3 220 217 222
3 223 220 225
3 226 223 228
3 229 226 231
3 232 229 234
3 235 232 237
3 238 235 240
3 241 238 243
3 195 241 200
3 269 244 246
3 253 247 249
3 261 250 252
3 258 253 254
3 274 255 257
3 262 258 259
3 282 260 261
3 267 262 263
3 290 264 266
3 271 267 268
3 286 244 270
3 275 271 272
3 293 273 257
3 280 275 276
3 296 277 279
3 411 280 281
3 299 260 283
3 411 281 285
3 303 286 287
3 285 284 289
3 279 278 266
3 289 288 292
3 252 251 293
3 292 291 295
3 246 245 296
3 295 294 298
3 305 299 300
3 298 297 302
3 255 303 256
3 412 302 304
3 264 305 265
3 412 304 247
3 312 293 306
3 283 282 308
3 313 296 309
3 287 270 311
3 316 252 312
3 317 246 313
3 300 283 314
3 256 287 315
3 320 261 316
3 321 269 317
3 265 300 318
3 309 279 319
3 257 256 306
3 307 282 320
3 270 269 310
3 266 265 319
3 350 323 325
3 351 326 328
3 325 324 330
3 327 326 331
3 347 332 334
3 344 335 337
3 330 329 339
3 331 259 340
3 332 297 333
3 338 342 339
3 340 254 344
3 297 345 341
3 336 347 337
3 342 348 343
3 346 345 350
3 348 351 349
3 376 352 354
3 365 355 357
3 377 358 360
3 378 361 363
3 379 364 365
3 380 366 368
3 381 369 371
3 382 372 374
3 383 375 376
3 354 353 377
3 357 356 363
3 360 359 379
3 361 366 362
3 368 367 381
3 371 370 382
3 374 373 383
